<?xml version="1.0" standalone="no"?>
<!DOCTYPE svg PUBLIC "-//W3C//DTD SVG 1.1//EN" "http://www.w3.org/Graphics/SVG/1.1/DTD/svg11.dtd" >
<svg>
<metadata>
Created by FontForge 20090914 at Wed Mar 26 23:16:57 2014
 By www-data
Copyright (c) 2009 by Fontsmith Ltd. All rights reserved.
</metadata>
<defs>
<font id="MovistarHeadline" horiz-adv-x="424" >
  <font-face 
    font-family="Movistar Headline"
    font-weight="400"
    font-stretch="normal"
    units-per-em="1000"
    panose-1="2 0 5 3 4 0 0 2 0 4"
    ascent="750"
    descent="-250"
    x-height="489.999"
    cap-height="684"
    bbox="-29 -288.004 1255 1188.07"
    underline-thickness="50"
    underline-position="-50"
    unicode-range="U+0020-U+FB02"
  />
<missing-glyph horiz-adv-x="642" 
d="M86 660h470v-660h-470v660zM480 612h-320l161 -240zM510 90v480l-160 -239zM480 49l-159 239l-161 -239h320zM134 90l159 241l-159 239v-480z" />
    <glyph glyph-name="fi" unicode="fi" horiz-adv-x="576" 
d="M500 0h-81.0029v428h-236v-428h-81v428h-85v48l85 15v66c0 30 3.5 55.5 10.5 76.5s17.167 38.167 30.5 51.5c14 14 30.833 24.5 50.5 31.5s44.167 10.5 73.5 10.5c14 0 29.333 -1.33301 46 -4s30.334 -5.66699 41.001 -9v-56h-54c-25.333 0 -45.166 -1.33301 -59.499 -4
s-26.166 -8 -35.499 -16c-8.66699 -7.33301 -14.5 -18 -17.5 -32s-4.5 -32 -4.5 -54v-62h264c20.667 0 34.667 -3.83301 42 -11.5s11 -20.167 11 -37.5v-441zM451.997 604c-15.333 0 -27.333 4 -36 12s-13 21.667 -13 41v3c0 19.333 4.33301 33 13 41s20.667 12 36 12h6
c15.333 0 27.333 -4 36 -12s13 -21.667 13 -41v-3c0 -19.333 -4.33301 -33 -13 -41s-20.667 -12 -36 -12h-6z" />
    <glyph glyph-name="fl" unicode="fl" horiz-adv-x="562" 
d="M486 0l-81.0029 -0.000976562v658h-105c-25.333 0 -45.166 -1.33301 -59.499 -4s-26.166 -8 -35.499 -16c-8.66699 -7.33301 -14.5 -18 -17.5 -32s-4.5 -32 -4.5 -54v-62h133v-62h-133v-428h-81v428h-85v48l85 15v63c0 30 3.5 55.5 10.5 76.5s17.167 38.167 30.5 51.5
c30.667 30 85.334 45 164.001 45c7.33301 0 16.833 -0.166992 28.5 -0.5s24.334 -0.666016 38.001 -0.999023s27.167 -1 40.5 -2s25.666 -2.16699 36.999 -3.5c13.333 -1.33301 22.5 -5.5 27.5 -12.5s7.5 -18.167 7.5 -33.5v-674z" />
    <glyph glyph-name=".notdef" horiz-adv-x="642" 
d="M86 660h470v-660h-470v660zM480 612h-320l161 -240zM510 90v480l-160 -239zM480 49l-159 239l-161 -239h320zM134 90l159 241l-159 239v-480z" />
    <glyph glyph-name="space" unicode=" " horiz-adv-x="190" 
 />
    <glyph glyph-name="exclam" unicode="!" horiz-adv-x="275" 
d="M168 196c0 -6.66699 -3.33301 -10 -10 -10h-51l-14 498h90zM134 -14c-15.333 0 -27.5 4.16699 -36.5 12.5s-13.5 22.166 -13.5 41.499v4c0 19.333 4.5 33.166 13.5 41.499s21.167 12.5 36.5 12.5h7c15.333 0 27.5 -4.16699 36.5 -12.5s13.5 -22.166 13.5 -41.499v-4
c0 -19.333 -4.5 -33.166 -13.5 -41.499s-21.167 -12.5 -36.5 -12.5h-7z" />
    <glyph glyph-name="quotedbl" unicode="&#x22;" horiz-adv-x="402" 
d="M90 460l-9 198c-0.666992 10 1.16602 16.833 5.49902 20.5s11.833 5.5 22.5 5.5h52l-14 -210c-0.666992 -6 -2.16699 -9.83301 -4.5 -11.5s-7.16602 -2.5 -14.499 -2.5h-38zM251 460l-9 198c-0.666992 10 1.16602 16.833 5.49902 20.5s11.833 5.5 22.5 5.5h52l-14 -210
c-0.666992 -6 -2.16699 -9.83301 -4.5 -11.5s-7.16602 -2.5 -14.499 -2.5h-38z" />
    <glyph glyph-name="numbersign" unicode="#" horiz-adv-x="568" 
d="M326 220h-126l-36 -220h-66l36 220h-69v60h79l21 123h-100v60h109l37 221h66l-37 -221h125l38 221h66l-38 -221h73v-60h-82l-20 -123h102v-60h-112l-36 -220h-66zM210 280h126l21 123h-127z" />
    <glyph glyph-name="dollar" unicode="$" horiz-adv-x="568" 
d="M151 68c12 -2.66699 28.832 -4.99902 50.499 -6.99902s43.167 -3 64.5 -3c60.667 0 104.334 12 131.001 36c22.667 20.667 34 49 34 85c0 15.333 -1.83301 29.166 -5.5 41.499s-9.83398 23.166 -18.501 32.499s-20.667 17.666 -36 24.999s-37 15.333 -65 24l-52 16
c-33.333 10 -60.666 20.833 -81.999 32.5s-38.333 23.5 -51 35.5c-17.333 16.667 -29.833 35.167 -37.5 55.5s-11.5 43.166 -11.5 68.499c0 28.667 4.5 54 13.5 76s22.167 41 39.5 57s37 28.333 59 37s48 14.667 78 18v115h65v-113c26 -1.33301 51.5 -4 76.5 -8
s45.5 -8.33301 61.5 -13c5.33301 -1.33301 9.33301 -3.33301 12 -6s4 -7.33398 4 -14.001v-119h-59c-1.33301 2.66699 -2.66602 7.16699 -3.99902 13.5s-2.66602 13.333 -3.99902 21s-2.5 15.5 -3.5 23.5s-1.5 15 -1.5 21c-6.66699 0.666992 -14.5 1.5 -23.5 2.5
s-18.333 1.83301 -28 2.5s-19.167 1.16699 -28.5 1.5s-17 0.5 -23 0.5c-28 0 -52.333 -2.66699 -73 -8s-37.667 -14.666 -51 -27.999c-18 -18 -27 -41.667 -27 -71c0 -14.667 2 -28 6 -40s11.333 -23.333 22 -34c9.33301 -8.66699 21.5 -17.167 36.5 -25.5
s35.833 -16.5 62.5 -24.5l55 -17c34.667 -11.333 63.167 -22.833 85.5 -34.5s40.5 -25.834 54.5 -42.501c24.667 -28.667 37 -68.667 37 -120c0 -30 -4.5 -56.167 -13.5 -78.5s-21.833 -41.5 -38.5 -57.5c-15.333 -15.333 -34.333 -27.666 -57 -36.999
s-48.667 -15.666 -78 -18.999v-117h-65v113c-34 0.666992 -65.833 2.83398 -95.5 6.50098s-53.5 8.16699 -71.5 13.5c-6 2 -10.167 4.33301 -12.5 7s-3.5 7.33398 -3.5 14.001v122h59c1.33301 -2.66699 2.66602 -7.16699 3.99902 -13.5s2.66602 -13.5 3.99902 -21.5
s2.5 -16 3.5 -24s1.5 -15 1.5 -21z" />
    <glyph glyph-name="percent" unicode="%" horiz-adv-x="941" 
d="M332 -14h-76l353 711h76zM384 489c0 -28 -2.83301 -54.667 -8.5 -80s-14.667 -47.5 -27 -66.5s-28.666 -34 -48.999 -45s-45.166 -16.5 -74.499 -16.5s-54.166 5.5 -74.499 16.5s-36.666 26 -48.999 45s-21.333 41.167 -27 66.5s-8.5 52 -8.5 80s2.83301 54.5 8.5 79.5
s14.667 47 27 66s28.666 34.167 48.999 45.5s45.166 17 74.499 17s54.166 -5.66699 74.499 -17s36.666 -26.5 48.999 -45.5s21.333 -41 27 -66s8.5 -51.5 8.5 -79.5zM308 489c0 49.333 -6.33301 85.5 -19 108.5s-34 34.5 -64 34.5s-51.333 -11.5 -64 -34.5
s-19 -59.167 -19 -108.5s6.33301 -85.5 19 -108.5s34 -34.5 64 -34.5s51.333 11.5 64 34.5s19 59.167 19 108.5zM875 194c0 -28 -2.83301 -54.667 -8.5 -80s-14.667 -47.5 -27 -66.5s-28.666 -34 -48.999 -45s-45.166 -16.5 -74.499 -16.5s-54.166 5.5 -74.499 16.5
s-36.666 26 -48.999 45s-21.333 41.167 -27 66.5s-8.5 52 -8.5 80s2.83301 54.5 8.5 79.5s14.667 47 27 66s28.666 34.167 48.999 45.5s45.166 17 74.499 17s54.166 -5.66699 74.499 -17s36.666 -26.5 48.999 -45.5s21.333 -41 27 -66s8.5 -51.5 8.5 -79.5zM799 194
c0 49.333 -6.33301 85.5 -19 108.5s-34 34.5 -64 34.5s-51.333 -11.5 -64 -34.5s-19 -59.167 -19 -108.5s6.33301 -85.5 19 -108.5s34 -34.5 64 -34.5s51.333 11.5 64 34.5s19 59.167 19 108.5z" />
    <glyph glyph-name="ampersand" unicode="&#x26;" horiz-adv-x="707" 
d="M256 -14c-32 0 -61.332 4.66016 -87.999 13.9932s-49.5 22.333 -68.5 39s-33.667 36.834 -44 60.501s-15.5 50.167 -15.5 79.5c0 46 13.333 85.333 40 118s62.334 62.334 107.001 89.001c-17.333 20 -31.333 37.333 -42 52s-19.167 28.334 -25.5 41.001
s-10.666 24.834 -12.999 36.501s-3.5 24.167 -3.5 37.5c0 21.333 4.16699 40.833 12.5 58.5s19.666 32.834 33.999 45.501s31 22.5 50 29.5s39.5 10.5 61.5 10.5c24 0 45.667 -3.5 65 -10.5s35.666 -16.667 48.999 -29s23.666 -27.166 30.999 -44.499s11 -36 11 -56
c0 -18 -2.83301 -34.5 -8.5 -49.5s-14 -29.333 -25 -43s-24.833 -27.167 -41.5 -40.5s-35.667 -27.333 -57 -42l177 -200c19.333 38 32.833 81.333 40.5 130s11.5 100.667 11.5 156c0 9.33301 1.66699 15.333 5 18s8.66602 4 15.999 4h119v-62h-78
c-1.33301 -56 -7.5 -109.167 -18.5 -159.5s-28.167 -95.5 -51.5 -135.5l61 -69h88v-63c-4 -0.666992 -9.83301 -1.5 -17.5 -2.5s-15.5 -1.83301 -23.5 -2.5s-15.5 -1.16699 -22.5 -1.5s-12.167 -0.5 -15.5 -0.5c-17.333 0 -31 2.33301 -41 7s-21.333 14.667 -34 30l-38 42
c-25.333 -27.333 -55.166 -48.666 -89.499 -63.999s-73.5 -23 -117.5 -23zM222.001 345.993c-38.667 -28 -64.667 -55.167 -78 -81.5s-20 -52.833 -20 -79.5c0 -40.667 12.5 -72.667 37.5 -96s60.5 -35 106.5 -35c32 0 60.5 6 85.5 18s47.167 28.667 66.5 50z
M348.001 554.993c0 21.333 -7.33301 39.998 -22 55.998s-36 24 -64 24c-24 0 -44.333 -7.16699 -61 -21.5s-25 -34.5 -25 -60.5c0 -21.333 5.83301 -41.166 17.5 -59.499s30.5 -42.166 56.5 -71.499c34 25.333 58.833 47.833 74.5 67.5s23.5 41.5 23.5 65.5z" />
    <glyph glyph-name="quotesingle" unicode="'" horiz-adv-x="241" 
d="M90 460l-9 198c-0.666992 10 1.16602 16.833 5.49902 20.5s11.833 5.5 22.5 5.5h52l-14 -210c-0.666992 -6 -2.16699 -9.83301 -4.5 -11.5s-7.16602 -2.5 -14.499 -2.5h-38z" />
    <glyph glyph-name="parenleft" unicode="(" horiz-adv-x="329" 
d="M74 258c0 102.667 17.333 194.667 52 276s85.334 150.666 152.001 207.999l41 -42c-22 -25.333 -42.333 -53.166 -61 -83.499s-34.667 -63.666 -48 -99.999s-23.666 -75.833 -30.999 -118.5s-11 -89.334 -11 -140.001s3.66699 -97.334 11 -140.001
s17.666 -82.167 30.999 -118.5s29.333 -69.666 48 -99.999s39 -58.166 61 -83.499l-41 -42c-66.667 57.333 -117.334 126.666 -152.001 207.999s-52 173.333 -52 276z" />
    <glyph glyph-name="parenright" unicode=")" horiz-adv-x="329" 
d="M255 258c0 -102.667 -17.333 -194.667 -52 -276s-85.334 -150.666 -152.001 -207.999l-41 42c22 25.333 42.333 53.166 61 83.499s34.667 63.666 48 99.999s23.666 75.833 30.999 118.5s11 89.334 11 140.001s-3.66699 97.334 -11 140.001s-17.666 82.167 -30.999 118.5
s-29.333 69.666 -48 99.999s-39 58.166 -61 83.499l41 42c66.667 -57.333 117.334 -126.666 152.001 -207.999s52 -173.333 52 -276z" />
    <glyph glyph-name="asterisk" unicode="*" horiz-adv-x="438" 
d="M219 443l-83 -129l-56 44l99 117l-145 43l24 68l136 -63l-12 161h72l-10 -161l136 63l24 -68l-145 -43l99 -117l-56 -44z" />
    <glyph glyph-name="plus" unicode="+" horiz-adv-x="508" 
d="M286 356h130v-65h-130v-130h-65v130h-129v65h129v129h65v-129z" />
    <glyph glyph-name="comma" unicode="," horiz-adv-x="227" 
d="M103 -141l0.00195312 124.996c-14.667 3.33301 -26.167 9.33301 -34.5 18s-12.5 21.667 -12.5 39v3c0 20 4.66699 34 14 42s21.666 12 36.999 12h1c19.333 0 33.666 -5.16699 42.999 -15.5s14 -28.166 14 -53.499c0 -10.667 -0.666992 -23 -2 -37s-3 -28.167 -5 -42.5
s-4.16699 -28.166 -6.5 -41.499s-4.83301 -24.666 -7.5 -33.999c-1.33301 -5.33301 -3.33301 -9.16602 -6 -11.499s-7.66699 -3.5 -15 -3.5h-20z" />
    <glyph glyph-name="hyphen" unicode="-" horiz-adv-x="317" 
d="M66 226v71h185v-71h-185z" />
    <glyph glyph-name="period" unicode="." horiz-adv-x="227" 
d="M110 -14c-15.333 0 -27.5 4.16699 -36.5 12.5s-13.5 22.166 -13.5 41.499v4c0 19.333 4.5 33.166 13.5 41.499s21.167 12.5 36.5 12.5h7c15.333 0 27.5 -4.16699 36.5 -12.5s13.5 -22.166 13.5 -41.499v-4c0 -19.333 -4.5 -33.166 -13.5 -41.499
s-21.167 -12.5 -36.5 -12.5h-7z" />
    <glyph glyph-name="slash" unicode="/" horiz-adv-x="457" 
d="M120 -14h-76l293 711h76z" />
    <glyph glyph-name="zero" unicode="0" horiz-adv-x="566" 
d="M520 341c0 -56.667 -4.33301 -107 -13 -151s-22.5 -81.167 -41.5 -111.5s-43.5 -53.333 -73.5 -69s-66 -23.5 -108 -23.5s-78 7.83301 -108 23.5s-54.5 38.667 -73.5 69s-32.833 67.5 -41.5 111.5s-13 94.333 -13 151s4.33301 107 13 151s22.5 81.167 41.5 111.5
s43.5 53.5 73.5 69.5s66 24 108 24s78 -8 108 -24s54.5 -39.167 73.5 -69.5s32.833 -67.5 41.5 -111.5s13 -94.333 13 -151zM434 341c0 47.333 -2.5 88.5 -7.5 123.5s-13.167 64.167 -24.5 87.5s-26.666 40.833 -45.999 52.5s-43.333 17.5 -72 17.5
s-52.667 -5.83301 -72 -17.5s-34.666 -29.167 -45.999 -52.5s-19.5 -52.5 -24.5 -87.5s-7.5 -76.167 -7.5 -123.5s2.5 -88.5 7.5 -123.5s13.167 -64.167 24.5 -87.5s26.666 -40.666 45.999 -51.999s43.333 -17 72 -17s52.667 5.66699 72 17s34.666 28.666 45.999 51.999
s19.5 52.5 24.5 87.5s7.5 76.167 7.5 123.5z" />
    <glyph glyph-name="one" unicode="1" horiz-adv-x="379" 
d="M349 67l-0.00195312 -67h-303v67h120v554h-118v60c10 0.666992 21.833 1.66699 35.5 3s27.334 2.33301 41.001 3s26.334 1.33398 38.001 2.00098s20.5 1 26.5 1c22.667 0 38.167 -3.83301 46.5 -11.5s12.5 -21.834 12.5 -42.501v-569h101z" />
    <glyph glyph-name="two" unicode="2" horiz-adv-x="488" 
d="M371 70c0.666992 13.333 2.66797 29.5 6.00098 48.5s7 34.5 11 46.5h54v-151c0 -5.33301 -1.83301 -9 -5.5 -11s-11.167 -3 -22.5 -3h-381c-1.33301 3.33301 -2.16602 7.5 -2.49902 12.5s-0.5 9.16699 -0.5 12.5c0 14.667 3 28.834 9 42.501s17 30.167 33 49.5l153 184
c22 26 40.333 49.167 55 69.5s26.5 39.166 35.5 56.499s15.5 33.833 19.5 49.5s6 31.5 6 47.5c0 31.333 -8.66699 55 -26 71c-12 11.333 -28 18.833 -48 22.5s-46 5.5 -78 5.5h-133v59c25.333 4.66699 52.666 8.33398 81.999 11.001s55.666 4 78.999 4
c38 0 70.667 -4.16699 98 -12.5s50 -21.5 68 -39.5c28.667 -28.667 43 -69.667 43 -123c0 -22 -2.83301 -42.833 -8.5 -62.5s-14.5 -39.834 -26.5 -60.501s-27.5 -43 -46.5 -67s-41.833 -51.333 -68.5 -82l-156 -180h251z" />
    <glyph glyph-name="three" unicode="3" horiz-adv-x="503" 
d="M42 536l0.00195312 133.005c0 5.33301 1.83301 9.16602 5.5 11.499s11.167 3.5 22.5 3.5h367c1.33301 -2.66699 2.16602 -6 2.49902 -10s0.5 -7.66699 0.5 -11c0 -9.33301 -0.666992 -17.833 -2 -25.5s-3.5 -15 -6.5 -22s-6.83301 -14.167 -11.5 -21.5
s-10.334 -15.333 -17.001 -24l-149 -186c30 -2.66699 57.5 -8.33398 82.5 -17.001s46.667 -20.834 65 -36.501s32.5 -34.834 42.5 -57.501s15 -49 15 -79c0 -34 -5.33301 -63.333 -16 -88s-25 -45.667 -43 -63c-21.333 -20 -48.333 -34.5 -81 -43.5s-68 -13.5 -106 -13.5
c-10 0 -21.5 0.166992 -34.5 0.5s-26.5 1 -40.5 2s-27.833 2.33301 -41.5 4s-25.834 3.5 -36.501 5.5v62h106c42 0 77.333 2.5 106 7.5s50.667 14.5 66 28.5c12.667 11.333 21.834 25.333 27.501 42s8.5 34.667 8.5 54c0 37.333 -11.333 67 -34 89
c-14.667 14 -34.167 24.167 -58.5 30.5s-55.5 9.5 -93.5 9.5h-33c-0.666992 3.33301 -1.16699 6.5 -1.5 9.5s-0.5 5.83301 -0.5 8.5c0 11.333 2.33301 22 7 32s12.667 22 24 36l167 209h-239c0 -10.667 -1.33301 -22.834 -4 -36.501s-6.66699 -28.167 -12 -43.5h-54z" />
    <glyph glyph-name="four" unicode="4" horiz-adv-x="546" 
d="M45 176c-2 6.66699 -2.99902 15.002 -2.99902 25.002c0 9.33301 1.16699 18.666 3.5 27.999s6.16602 21.666 11.499 36.999l138 402c2.66699 7.33301 5.5 11.833 8.5 13.5s8.16699 2.5 15.5 2.5h60l-149 -442h224v183h81v-183h77v-66h-77v-176h-81v176h-309z" />
    <glyph glyph-name="five" unicode="5" horiz-adv-x="506" 
d="M148 616l-1.99707 -213.001h60c46 0 85.333 -4.33301 118 -13s59 -22.667 79 -42c36.667 -34.667 55 -86 55 -154c0 -30 -4.83301 -57.333 -14.5 -82s-23.167 -45.667 -40.5 -63c-21.333 -22 -48 -38 -80 -48s-68.667 -15 -110 -15c-23.333 0 -48.833 1.33301 -76.5 4
s-52.5 5.66699 -74.5 9v61h126c39.333 0 71.166 3.16699 95.499 9.5s43.166 16.166 56.499 29.499c22 21.333 33 54 33 98c0 46 -11 79.667 -33 101c-14 13.333 -32.833 22.833 -56.5 28.5s-53.5 8.5 -89.5 8.5h-101c-8.66699 0 -14.334 1 -17.001 3s-4 6 -4 12l4 334h314
c11.333 0 18.833 -1.16699 22.5 -3.5s5.5 -6.16602 5.5 -11.499v-133h-54c-3.33301 10.667 -6.83301 23.834 -10.5 39.501s-5.5 29.167 -5.5 40.5h-200z" />
    <glyph glyph-name="six" unicode="6" horiz-adv-x="544" 
d="M143 406c25.333 8.66699 52.6709 15.833 82.0039 21.5s56.666 8.5 81.999 8.5c34 0 63 -5 87 -15s43.667 -24.167 59 -42.5s26.5 -40.5 33.5 -66.5s10.5 -55 10.5 -87c0 -36 -4.83301 -68.667 -14.5 -98s-23.834 -54.5 -42.501 -75.5s-41.167 -37.167 -67.5 -48.5
s-56.5 -17 -90.5 -17c-40.667 0 -75.334 7.33301 -104.001 22s-52 36 -70 64s-31 62 -39 102s-12 85 -12 135v27c0 64.667 6.16699 121.167 18.5 169.5s32.166 87.833 59.499 118.5c43.333 48.667 108.666 73 195.999 73c17.333 0 36.5 -1.16699 57.5 -3.5
s38.833 -5.16602 53.5 -8.49902v-62h-88c-40 0 -72.333 -3.83301 -97 -11.5s-44.667 -19.834 -60 -36.501c-17.333 -18 -30.166 -40.667 -38.499 -68s-13.5 -61 -15.5 -101zM141.005 295.999c0 -36 2.16602 -68.833 6.49902 -98.5s12 -55 23 -76s25.833 -37.167 44.5 -48.5
s42.334 -17 71.001 -17c41.333 0 73.5 14.833 96.5 44.5s34.5 69.167 34.5 118.5c0 51.333 -10.5 88.833 -31.5 112.5s-55.5 35.5 -103.5 35.5c-21.333 0 -44.833 -2 -70.5 -6s-49.167 -8.66699 -70.5 -14v-51z" />
    <glyph glyph-name="seven" unicode="7" horiz-adv-x="540" 
d="M127 616c-0.666992 -13.333 -2.66797 -29.667 -6.00098 -49s-7 -35 -11 -47h-54v150c0 5.33301 1.83301 9 5.5 11s11.167 3 22.5 3h414c2.66699 -6.66699 4 -15 4 -25c0 -9.33301 -1.16699 -18.833 -3.5 -28.5s-6.16602 -21.167 -11.499 -34.5l-211 -576
c-3.33301 -7.33301 -6.83301 -12.5 -10.5 -15.5s-10.167 -4.5 -19.5 -4.5h-69l241 616h-291z" />
    <glyph glyph-name="eight" unicode="8" horiz-adv-x="541" 
d="M78 526c0 25.333 4.82812 48.501 14.4951 69.501s23 39 40 54s37.333 26.667 61 35s49.5 12.5 77.5 12.5c30 0 56.833 -4 80.5 -12s43.5 -19.333 59.5 -34s28.333 -31.834 37 -51.501s13 -41.167 13 -64.5c0 -38 -10.333 -71.167 -31 -99.5s-47 -53.166 -79 -74.499
c18.667 -10 36.834 -21 54.501 -33s33.334 -25.167 47.001 -39.5s24.5 -30.5 32.5 -48.5s12 -38.333 12 -61c0 -29.333 -5.5 -55.833 -16.5 -79.5s-26.5 -43.834 -46.5 -60.501s-44 -29.667 -72 -39s-59 -14 -93 -14c-32 0 -61.667 4.33301 -89 13
s-51.166 21.334 -71.499 38.001s-36.166 36.5 -47.499 59.5s-17 49.167 -17 78.5c0 42.667 12.333 80 37 112s57.334 59.333 98.001 82c-28.667 18.667 -52.667 40.167 -72 64.5s-29 55.166 -29 92.499zM125.995 178.001c0 -36 12.5 -65.001 37.5 -87.001
s61.5 -33 109.5 -33c42 0 76.167 10.833 102.5 32.5s39.5 50.834 39.5 87.501c0 19.333 -5.16699 36.333 -15.5 51s-24 28 -41 40s-36 23.5 -57 34.5l-64.5 33.5c-36 -21.333 -63.5 -44.833 -82.5 -70.5s-28.5 -55.167 -28.5 -88.5zM383.995 533c0 30 -9.5 53.333 -28.5 70
s-46.5 25 -82.5 25c-34 0 -61.5 -8 -82.5 -24s-31.5 -40.667 -31.5 -74c0 -16 3.66699 -30.667 11 -44s17.333 -25.5 30 -36.5s27.167 -21.333 43.5 -31s33.5 -19.167 51.5 -28.5c28 22 49.833 45 65.5 69s23.5 48.667 23.5 74z" />
    <glyph glyph-name="nine" unicode="9" horiz-adv-x="544" 
d="M401 277c-25.333 -8.66699 -52.6709 -15.833 -82.0039 -21.5s-56.666 -8.5 -81.999 -8.5c-34 0 -63 5 -87 15s-43.667 24.167 -59 42.5s-26.5 40.5 -33.5 66.5s-10.5 55 -10.5 87c0 36 4.83301 68.667 14.5 98s23.834 54.5 42.501 75.5s41.167 37.167 67.5 48.5
s56.5 17 90.5 17c40.667 0 75.334 -7.33301 104.001 -22s52 -36 70 -64s31 -62 39 -102s12 -85 12 -135v-27c0 -64.667 -6.16699 -121.167 -18.5 -169.5s-32.166 -87.833 -59.499 -118.5c-43.333 -48.667 -108.666 -73 -195.999 -73c-17.333 0 -36.5 1.16699 -57.5 3.5
s-38.833 5.16602 -53.5 8.49902v62h88c40 0 72.333 3.83301 97 11.5s44.667 19.834 60 36.501c17.333 18 30.166 40.667 38.499 68s13.5 61 15.5 101zM402.995 387.001c0 36 -2.16602 68.667 -6.49902 98s-12 54.5 -23 75.5s-25.833 37.333 -44.5 49
s-42.334 17.5 -71.001 17.5c-41.333 0 -73.5 -14.833 -96.5 -44.5s-34.5 -69.167 -34.5 -118.5c0 -51.333 10.5 -88.833 31.5 -112.5s55.5 -35.5 103.5 -35.5c21.333 0 44.833 2 70.5 6s49.167 8.66699 70.5 14v51z" />
    <glyph glyph-name="colon" unicode=":" horiz-adv-x="227" 
d="M110 -14c-15.333 0 -27.5 4.16699 -36.5 12.5s-13.5 22.166 -13.5 41.499v4c0 19.333 4.5 33.166 13.5 41.499s21.167 12.5 36.5 12.5h7c15.333 0 27.5 -4.16699 36.5 -12.5s13.5 -22.166 13.5 -41.499v-4c0 -19.333 -4.5 -33.166 -13.5 -41.499
s-21.167 -12.5 -36.5 -12.5h-7zM110 296c-15.333 0 -27.5 4.16699 -36.5 12.5s-13.5 22.166 -13.5 41.499v4c0 19.333 4.5 33.166 13.5 41.499s21.167 12.5 36.5 12.5h7c15.333 0 27.5 -4.16699 36.5 -12.5s13.5 -22.166 13.5 -41.499v-4
c0 -19.333 -4.5 -33.166 -13.5 -41.499s-21.167 -12.5 -36.5 -12.5h-7z" />
    <glyph glyph-name="semicolon" unicode=";" horiz-adv-x="227" 
d="M110 296c-15.333 0 -27.5 4.16699 -36.5 12.5s-13.5 22.166 -13.5 41.499v4c0 19.333 4.5 33.166 13.5 41.499s21.167 12.5 36.5 12.5h7c15.333 0 27.5 -4.16699 36.5 -12.5s13.5 -22.166 13.5 -41.499v-4c0 -19.333 -4.5 -33.166 -13.5 -41.499
s-21.167 -12.5 -36.5 -12.5h-7zM106 -141l0.00195312 124.996c-14.667 3.33301 -26.167 9.33301 -34.5 18s-12.5 21.667 -12.5 39v3c0 20 4.66699 34 14 42s21.666 12 36.999 12h1c19.333 0 33.666 -5.16699 42.999 -15.5s14 -28.166 14 -53.499
c0 -10.667 -0.666992 -23 -2 -37s-3 -28.167 -5 -42.5s-4.16699 -28.166 -6.5 -41.499s-4.83301 -24.666 -7.5 -33.999c-1.33301 -5.33301 -3.33301 -9.16602 -6 -11.499s-7.66699 -3.5 -15 -3.5h-20z" />
    <glyph glyph-name="less" unicode="&#x3c;" horiz-adv-x="508" 
d="M92 356l324 165v-75l-249 -123l249 -122v-75l-324 165v65z" />
    <glyph glyph-name="equal" unicode="=" horiz-adv-x="508" 
d="M92 381v65h324v-65h-324zM92 201v65h324v-65h-324z" />
    <glyph glyph-name="greater" unicode="&#x3e;" horiz-adv-x="508" 
d="M416 291l-324 -165v75l249 122l-249 123v75l324 -165v-65z" />
    <glyph glyph-name="question" unicode="?" horiz-adv-x="414" 
d="M44 682c9.33301 2 20.002 4.00293 32.002 6.00293s24.5 3.66699 37.5 5s26 2.33301 39 3s25.167 1 36.5 1c34.667 0 64.5 -4.16699 89.5 -12.5s44.833 -19.5 59.5 -33.5c14 -13.333 25 -29.333 33 -48s12 -40 12 -64c0 -18 -1.5 -34.5 -4.5 -49.5
s-8.16699 -29.833 -15.5 -44.5s-17 -30 -29 -46s-27 -33.667 -45 -53c-18 -20 -32.333 -37.167 -43 -51.5s-19 -27.333 -25 -39s-10 -22.834 -12 -33.501s-3.33301 -22.334 -4 -35.001h-57c-1.33301 4.66699 -2.5 10 -3.5 16s-1.5 11.667 -1.5 17
c0 12 1.16699 23.167 3.5 33.5s6 20.666 11 30.999s11.5 21.333 19.5 33s17.667 24.834 29 39.501l10 13c15.333 20 28.166 37.333 38.499 52s18.666 28.167 24.999 40.5s10.833 24.166 13.5 35.499s4 23 4 35c0 30 -9 52.333 -27 67c-12 10 -27.5 16.667 -46.5 20
s-41.167 5 -66.5 5h-113v57zM175.002 -13.9971c-15.333 0 -27.5 4.16699 -36.5 12.5s-13.5 22.166 -13.5 41.499v4c0 19.333 4.5 33.166 13.5 41.499s21.167 12.5 36.5 12.5h7c15.333 0 27.5 -4.16699 36.5 -12.5s13.5 -22.166 13.5 -41.499v-4
c0 -19.333 -4.5 -33.166 -13.5 -41.499s-21.167 -12.5 -36.5 -12.5h-7z" />
    <glyph glyph-name="at" unicode="@" horiz-adv-x="778" 
d="M555 159c-21.333 0 -39.6719 2.66797 -55.0049 8.00098s-27.333 11.666 -36 18.999c-16.667 -9.33301 -34.334 -16.666 -53.001 -21.999s-37.667 -8 -57 -8c-41.333 0 -72.5 10.667 -93.5 32s-31.5 49 -31.5 83c0 17.333 2.5 32.333 7.5 45s12.167 23.667 21.5 33
c24.667 24 67.667 36 129 36h70v3c0 15.333 -1.16699 28 -3.5 38s-6.5 18 -12.5 24c-7.33301 7.33301 -16.666 12.166 -27.999 14.499s-27.333 3.5 -48 3.5h-97v46c14.667 4 32.334 7.33301 53.001 10s38.667 4 54 4c26.667 0 49.5 -2.5 68.5 -7.5s34.5 -13.833 46.5 -26.5
c9.33301 -9.33301 16.833 -20.833 22.5 -34.5s8.5 -31.167 8.5 -52.5v-191c10 -2 19.667 -3 29 -3c17.333 0 32.5 2.66699 45.5 8s23.833 14.666 32.5 27.999c18 28 27 66 27 114c0 32.667 -4.83301 65 -14.5 97s-25.167 60.833 -46.5 86.5s-49.166 46.5 -83.499 62.5
s-75.833 24 -124.5 24c-88.667 0 -157.334 -25.667 -206.001 -77s-73 -124 -73 -218s27 -165.333 81 -214c28.667 -26 64.334 -45.333 107.001 -58s94.334 -19 155.001 -19h156v-44c-12 -2 -25.667 -4.16699 -41 -6.5s-31.166 -4.16602 -47.499 -5.49902
s-32.333 -2.5 -48 -3.5s-29.5 -1.5 -41.5 -1.5c-62 0 -118.167 7.66699 -168.5 23s-93.166 40 -128.499 74c-30 28.667 -53.167 64 -69.5 106s-24.5 92.333 -24.5 151c0 54.667 8.5 104 25.5 148s40.667 81.5 71 112.5s66.833 54.833 109.5 71.5s90 25 142 25
c54 0 101.833 -8.33301 143.5 -25s77 -39.5 106 -68.5s51 -63.167 66 -102.5s22.5 -81.333 22.5 -126c0 -38.667 -4.33301 -72 -13 -100s-20.667 -51 -36 -69c-13.333 -15.333 -29.5 -27 -48.5 -35s-42.5 -12 -70.5 -12zM369.994 211.001
c12.667 0 26.501 1.66797 41.501 5.00098s30.167 7.66602 45.5 12.999v105h-71c-17.333 0 -32.333 -1.33301 -45 -4s-22.667 -7.66699 -30 -15c-10.667 -10.667 -16 -25 -16 -43c0 -22 6.16699 -37.667 18.5 -47s31.166 -14 56.499 -14z" />
    <glyph glyph-name="A" unicode="A" horiz-adv-x="641" 
d="M443 205h-263l-44 -139h55v-66h-191v66h57l203 618h75c9.33301 0 15.5 -1.5 18.5 -4.5s6.16699 -8.5 9.5 -16.5l218 -597h56v-66h-207v66h61zM202 274h217l-114 320z" />
    <glyph glyph-name="B" unicode="B" horiz-adv-x="623" 
d="M62 66l69.002 0.000976562v552h-69v66h254c42 0 76.167 -4.16699 102.5 -12.5s48.166 -20.5 65.499 -36.5c30 -28 45 -68.333 45 -121c0 -34.667 -8.33301 -65.334 -25 -92.001s-41.334 -45.667 -74.001 -57c43.333 -8 78 -26 104 -54s39 -65.333 39 -112
c0 -29.333 -3.5 -54.833 -10.5 -76.5s-17.167 -40.167 -30.5 -55.5c-20.667 -24 -48 -41.167 -82 -51.5s-75 -15.5 -123 -15.5h-265v66zM218.002 66.001h93.001c30.667 0 57 2.33301 79 7s40.333 12.667 55 24c12.667 10 22.5 22.833 29.5 38.5s10.5 36.167 10.5 61.5
c0 40.667 -12 71.667 -36 93c-14 12 -31.833 20.333 -53.5 25s-48.834 7 -81.501 7h-96v-256zM218.003 389.001h98.999c46 0 78.667 10.667 98 32c18.667 20 28 49 28 87c0 36 -9 63 -27 81c-11.333 11.333 -25.666 19 -42.999 23s-40 6 -68 6h-87v-229z" />
    <glyph glyph-name="C" unicode="C" horiz-adv-x="579" 
d="M461 525c-1.33301 2.66699 -2.83203 7.83398 -4.49902 15.501s-3.33398 16.167 -5.00098 25.5s-3 18.666 -4 27.999s-1.5 17 -1.5 23c-9.33301 1.33301 -20.666 2.5 -33.999 3.5s-27 1.5 -41 1.5c-75.333 0 -131.833 -22 -169.5 -66s-56.5 -115.333 -56.5 -214
c0 -103.333 20.667 -177 62 -221c21.333 -23.333 49.166 -39.333 83.499 -48s75.833 -13 124.5 -13h106v-61c-22.667 -4 -47 -7.16699 -73 -9.5s-47.667 -3.5 -65 -3.5c-112.667 0 -193.667 27.667 -243 83c-28 31.333 -49 70 -63 116s-21 98 -21 156
c0 59.333 7.33301 111.166 22 155.499s35.667 81.333 63 111s60 52 98 67s80.667 22.5 128 22.5c25.333 0 51 -1.66699 77 -5s47.667 -7.66602 65 -12.999c10.667 -2.66699 16 -9.66699 16 -21v-133h-64v0z" />
    <glyph glyph-name="D" unicode="D" horiz-adv-x="684" 
d="M62 0v66h69v552h-69v66h234c63.333 0 115 -6.33301 155 -19s73 -32.334 99 -59.001c52 -54 78 -140.667 78 -260c0 -126 -26 -216.333 -78 -271c-24.667 -25.333 -55.5 -44.166 -92.5 -56.499s-84.5 -18.5 -142.5 -18.5h-253zM218 68h98.001c40 0 73.667 4.5 101 13.5
s49.666 22.833 66.999 41.5c21.333 23.333 36 53.333 44 90s12 81 12 133c0 49.333 -4.66699 92 -14 128s-25 65 -47 87c-18.667 18.667 -42.167 32.5 -70.5 41.5s-65.5 13.5 -111.5 13.5h-79v-548z" />
    <glyph glyph-name="E" unicode="E" horiz-adv-x="603" 
d="M62 0v66h69v552h-69v66h461c10 0 16.333 -1 19 -3s4 -5.33301 4 -10v-147h-59c-4.66699 12 -8.5 26.833 -11.5 44.5s-4.5 34.167 -4.5 49.5h-253v-234h192c6.66699 0 11 -0.5 13 -1.5s3 -3.5 3 -7.5v-62h-208v-247h258c0 15.333 1.5 32 4.5 50s6.83301 33 11.5 45h59
v-148c0 -4.66699 -1.33301 -8 -4 -10s-9 -3 -19 -3h-466z" />
    <glyph glyph-name="F" unicode="F" horiz-adv-x="562" 
d="M218 618v-234h194c6.66699 0 11 -0.5 13 -1.5s3 -3.5 3 -7.5v-62h-210v-247h81v-66h-237v66h69v552h-69v66h460c10 0 16.333 -1 19 -3s4 -5.33301 4 -10v-147h-59c-4.66699 12 -8.5 26.833 -11.5 44.5s-4.5 34.167 -4.5 49.5h-252z" />
    <glyph glyph-name="G" unicode="G" horiz-adv-x="656" 
d="M491 527c-1.33301 2 -2.66504 6.66309 -3.99805 13.9961l-4.5 24.5c-1.66699 9 -3 18.333 -4 28s-1.83301 18.167 -2.5 25.5c-12 1.33301 -27.167 2.5 -45.5 3.5s-35.5 1.5 -51.5 1.5c-40.667 0 -74.667 -4.66699 -102 -14s-50.666 -24.666 -69.999 -45.999
c-42 -47.333 -63 -121.666 -63 -222.999c0 -95.333 15.5 -166 46.5 -212s80.5 -69 148.5 -69c22.667 0 47.667 2.33301 75 7s51.666 10.667 72.999 18v181h-106v66h191v-332h-61c-6.66699 8 -11.667 18.333 -15 31c-22.667 -13.333 -49.834 -24.166 -81.501 -32.499
s-62.167 -12.5 -91.5 -12.5c-45.333 0 -84.833 8 -118.5 24s-61.5 39.167 -83.5 69.5s-38.333 67.5 -49 111.5s-16 93.667 -16 149c0 62.667 7.66699 116.834 23 162.501s37.666 83.5 66.999 113.5c52.667 54 128 81 226 81c14 0 28.667 -0.5 44 -1.5s30.5 -2.33301 45.5 -4
s29.167 -3.66699 42.5 -6s25 -4.5 35 -6.5c10.667 -2.66699 16 -10 16 -22v-130h-64z" />
    <glyph glyph-name="H" unicode="H" horiz-adv-x="738" 
d="M451 618v66h225v-66h-69v-552h69v-66h-225v66h69v247h-302v-247h69v-66h-225v66h69v552h-69v66h225v-66h-69v-234h302v234h-69z" />
    <glyph glyph-name="I" unicode="I" horiz-adv-x="353" 
d="M133 618h-69v66h225v-66h-69v-552h69v-66h-225v66h69v552z" />
    <glyph glyph-name="J" unicode="J" horiz-adv-x="449" 
d="M137 58c25.333 0 46.167 1.83398 62.5 5.50098s29.833 10.167 40.5 19.5c17.333 16 26 45 26 87v448h-170v66h257v-506c0 -36 -4.16699 -66.5 -12.5 -91.5s-20.833 -45.167 -37.5 -60.5c-28.667 -26.667 -71.667 -40 -129 -40c-18 0 -37.333 0.666992 -58 2
s-40.667 3.66602 -60 6.99902v63h81z" />
    <glyph glyph-name="K" unicode="K" horiz-adv-x="665" 
d="M131 618l-69.001 0.000976562v66h225v-66h-69v-276l269 309c11.333 13.333 21.833 22.166 31.5 26.499s22.5 6.5 38.5 6.5h82v-66h-76l-197 -214l201 -338h80v-64c-15.333 -1.33301 -32.333 -2.5 -51 -3.5s-33 -1.5 -43 -1.5c-19.333 0 -33.166 3 -41.499 9
s-16.833 16.333 -25.5 31l-178 304l-90 -98v-177h69v-66h-225v66h69v552z" />
    <glyph glyph-name="L" unicode="L" horiz-adv-x="573" 
d="M468 66c0 15.333 1.5 32 4.5 50s6.83301 33 11.5 45h59v-148c0 -4.66699 -1.33301 -8 -4 -10s-9 -3 -19 -3h-458v66h69v552h-69v66h225v-66h-69v-552h250z" />
    <glyph glyph-name="M" unicode="M" horiz-adv-x="882" 
d="M820 684v-66h-69v-552h69v-66h-219v66h69v431l-198 -345h-48c-9.33301 0 -16.5 1.33301 -21.5 4s-9.83301 8 -14.5 16l-181 329v-435h69v-66h-214v66h69v552h-69v66h92c17.333 0 29.5 -1.83301 36.5 -5.5s13.833 -11.5 20.5 -23.5l229 -422l234 420
c6.66699 11.333 13.5 19.333 20.5 24s18.167 7 33.5 7h92z" />
    <glyph glyph-name="N" unicode="N" horiz-adv-x="763" 
d="M154 684c15.333 0 26.5 -1.33301 33.5 -4s14.833 -10 23.5 -22l360 -510v470h-69v66h213v-66h-69v-618h-64l-376 537v-471h69v-66h-213v66h69v552h-69v66h92v0z" />
    <glyph glyph-name="O" unicode="O" horiz-adv-x="662" 
d="M331 65c34.667 0 63.834 6.33301 87.501 19s42.834 31 57.501 55s25.167 53 31.5 87s9.5 72.333 9.5 115s-3.16699 81 -9.5 115s-16.833 63 -31.5 87s-33.834 42.5 -57.501 55.5s-52.834 19.5 -87.501 19.5s-63.834 -6.5 -87.501 -19.5s-42.834 -31.5 -57.501 -55.5
s-25.167 -53 -31.5 -87s-9.5 -72.333 -9.5 -115s3.16699 -81 9.5 -115s16.833 -63 31.5 -87s33.834 -42.333 57.501 -55s52.834 -19 87.501 -19zM331 -14c-88.667 0 -156.667 29.667 -204 89s-71 148 -71 266s23.667 206.833 71 266.5s115.333 89.5 204 89.5
s156.667 -29.833 204 -89.5s71 -148.5 71 -266.5s-23.667 -206.667 -71 -266s-115.333 -89 -204 -89z" />
    <glyph glyph-name="P" unicode="P" horiz-adv-x="601" 
d="M287 66l-0.000976562 -66h-225v66h69v552h-69v66h274c46 0 82.833 -3.5 110.5 -10.5s50.167 -18.833 67.5 -35.5c35.333 -33.333 53 -84.333 53 -153c0 -142.667 -69 -214 -207 -214c-25.333 0 -50.666 1.16699 -75.999 3.5s-47.333 4.83301 -66 7.5v-216h69z
M217.999 340l107.002 0.00390625c30.667 0 55.5 2.66699 74.5 8s34.167 13.666 45.5 24.999s19.666 26.666 24.999 45.999s8 41.666 8 66.999c0 47.333 -11.667 81.666 -35 102.999c-11.333 10 -25.833 17.333 -43.5 22s-40.834 7 -69.501 7h-112v-278z" />
    <glyph glyph-name="Q" unicode="Q" horiz-adv-x="662" 
d="M606 341c0 -78.667 -12 -144.501 -36 -197.501s-56 -92.833 -96 -119.5c14 -2 28.667 -5 44 -9s30.833 -8.5 46.5 -13.5s30.5 -10.833 44.5 -17.5s26.333 -14 37 -22c-2.66699 -9.33301 -8.33398 -21.166 -17.001 -35.499s-16 -25.5 -22 -33.5l-118 59
c-15.333 7.33301 -28.5 13.333 -39.5 18s-22 8.16699 -33 10.5s-23.167 3.83301 -36.5 4.5s-29.666 1 -48.999 1c-88.667 0 -156.667 29.667 -204 89s-71 148 -71 266s23.667 206.833 71 266.5s115.333 89.5 204 89.5s156.667 -29.833 204 -89.5s71 -148.5 71 -266.5z
M331 64.999c34.667 0 63.834 6.33301 87.501 19s42.834 31 57.501 55s25.167 53 31.5 87s9.5 72.333 9.5 115s-3.16699 81 -9.5 115s-16.833 63 -31.5 87s-33.834 42.5 -57.501 55.5s-52.834 19.5 -87.501 19.5s-63.834 -6.5 -87.501 -19.5s-42.834 -31.5 -57.501 -55.5
s-25.167 -53 -31.5 -87s-9.5 -72.333 -9.5 -115s3.16699 -81 9.5 -115s16.833 -63 31.5 -87s33.834 -42.333 57.501 -55s52.834 -19 87.501 -19z" />
    <glyph glyph-name="R" unicode="R" horiz-adv-x="656" 
d="M287 66v-66h-225v66h69v552h-69v66h277c46 0 82.833 -3.66699 110.5 -11s50.167 -19.333 67.5 -36s30.5 -37 39.5 -61s13.5 -53.333 13.5 -88c0 -112 -44.333 -179.667 -133 -203l113 -219h76v-64c-15.333 -1.33301 -30.5 -2.5 -45.5 -3.5s-28.167 -1.5 -39.5 -1.5
c-19.333 0 -34 3 -44 9s-18.667 16.333 -26 31l-120 240h-133v-211h69zM218 346l110.002 0.000976562c30.667 0 55.5 2.66699 74.5 8s34.167 13.666 45.5 24.999s19.666 26.5 24.999 45.5s8 40.5 8 64.5c0 22 -2.83301 41.5 -8.5 58.5s-14.167 30.833 -25.5 41.5
c-11.333 10 -25.833 17.333 -43.5 22s-40.834 7 -69.501 7h-116v-272z" />
    <glyph glyph-name="S" unicode="S" horiz-adv-x="567" 
d="M155 68c12 -2.66699 28.001 -4.99609 48.001 -6.99609s40.667 -3 62 -3c60.667 0 104.334 12 131.001 36c22.667 20.667 34 49 34 85c0 15.333 -1.83301 29.166 -5.5 41.499s-9.83398 23.166 -18.501 32.499s-20.667 17.666 -36 24.999s-37 15.333 -65 24l-52 16
c-33.333 10 -60.666 20.833 -81.999 32.5s-38.333 23.5 -51 35.5c-17.333 16.667 -29.833 35.167 -37.5 55.5s-11.5 43.166 -11.5 68.499c0 28.667 4.5 54 13.5 76s22.167 41 39.5 57c21.333 20 46.833 34.5 76.5 43.5s65.5 13.5 107.5 13.5
c28.667 0 57.5 -2.16699 86.5 -6.5s52.167 -9.16602 69.5 -14.499c5.33301 -1.33301 9.33301 -3.33301 12 -6s4 -7.33398 4 -14.001v-119h-64c-1.33301 2.66699 -2.66602 7.16699 -3.99902 13.5s-2.66602 13.333 -3.99902 21s-2.5 15.5 -3.5 23.5s-1.5 15 -1.5 21
c-13.333 2 -29.833 3.66699 -49.5 5s-35.834 2 -48.501 2c-28 0 -52.333 -2.66699 -73 -8s-37.667 -14.666 -51 -27.999c-18 -18 -27 -41.667 -27 -71c0 -14.667 2 -28.167 6 -40.5s11.333 -23.833 22 -34.5c9.33301 -8.66699 21.5 -17.167 36.5 -25.5
s35.833 -16.5 62.5 -24.5l55 -17c34.667 -11.333 63.167 -22.833 85.5 -34.5s40.5 -25.834 54.5 -42.501c24.667 -28.667 37 -68.334 37 -119.001c0 -30 -4.5 -56.167 -13.5 -78.5s-21.833 -41.5 -38.5 -57.5c-41.333 -40 -106 -60 -194 -60c-35.333 0 -68.333 2 -99 6
s-55.334 8.66699 -74.001 14c-6 2 -10.167 4.33301 -12.5 7s-3.5 7.33398 -3.5 14.001v122h64c1.33301 -2.66699 2.66602 -7.16699 3.99902 -13.5s2.66602 -13.5 3.99902 -21.5s2.5 -16 3.5 -24s1.5 -15 1.5 -21z" />
    <glyph glyph-name="T" unicode="T" horiz-adv-x="619" 
d="M564 684c10 0 16.333 -1 19 -3s4 -5.33301 4 -10v-147h-59c-4.66699 12 -8.5 26.833 -11.5 44.5s-4.5 34.167 -4.5 49.5h-159v-552h69v-66h-225v66h69v552h-159c0 -15.333 -1.5 -31.833 -4.5 -49.5s-6.83301 -32.5 -11.5 -44.5h-59v147c0 4.66699 1.33301 8 4 10
s9 3 19 3h509z" />
    <glyph glyph-name="U" unicode="U" horiz-adv-x="715" 
d="M461 618l-0.00292969 65.998h212v-66h-69v-386c0 -43.333 -5.5 -80.166 -16.5 -110.499s-27.167 -55.5 -48.5 -75.5s-47.166 -35 -77.499 -45s-63.833 -15 -100.5 -15c-42.667 0 -80.167 5.5 -112.5 16.5s-59.166 28.167 -80.499 51.5
c-19.333 20.667 -33.666 45.834 -42.999 75.501s-14 66.5 -14 110.5v378h-69v66h225v-66h-69v-375c0 -31.333 3 -57.833 9 -79.5s15.667 -39.5 29 -53.5c14 -15.333 31.667 -26.833 53 -34.5s47 -11.5 77 -11.5c54 0 95 14 123 42c13.333 14 23.5 31.333 30.5 52
s10.5 47 10.5 79v381h-69z" />
    <glyph glyph-name="V" unicode="V" horiz-adv-x="623" 
d="M561 618l-189.998 -617.999h-78c-10.667 0 -17.834 1.5 -21.501 4.5s-7.16699 8.83301 -10.5 17.5l-193 596h-64v66h83c11.333 0 20.333 -0.333008 27 -1s12.167 -2.33398 16.5 -5.00098s7.66602 -6.16699 9.99902 -10.5s4.5 -9.83301 6.5 -16.5l178 -565l161 532h-60v66
h193v-66h-58z" />
    <glyph glyph-name="W" unicode="W" horiz-adv-x="925" 
d="M863 618l-154.001 -617.999h-81c-10.667 0 -18.167 1.66699 -22.5 5s-7.5 9 -9.5 17l-126 548l-119 -570h-84c-10.667 0 -18 1.66699 -22 5s-7.33301 9 -10 17l-167 596h-64v66h83c11.333 0 20.5 -0.333008 27.5 -1s12.667 -2.33398 17 -5.00098s7.5 -6.16699 9.5 -10.5
s4 -9.83301 6 -16.5l151 -565l116 569c2.66699 11.333 6.33398 19 11.001 23s13.667 6 27 6h69l138 -603l129 537h-60v66h193v-66h-58z" />
    <glyph glyph-name="X" unicode="X" horiz-adv-x="598" 
d="M289 270l-135.001 -255c-3.33301 -6.66699 -6.66602 -10.834 -9.99902 -12.501s-8.33301 -2.5 -15 -2.5h-68c-6.66699 0 -8.33398 3 -5.00098 9l195 328l-159 281h-68v66h86c15.333 0 26.5 -1.33301 33.5 -4s13.5 -9.66699 19.5 -21l141 -250l137 260
c3.33301 6.66699 6.66602 10.834 9.99902 12.501s8.33301 2.5 15 2.5h68c6 0 7.66699 -3 5 -9l-197 -332l157 -277h75v-64c-13.333 -1.33301 -28.166 -2.33301 -44.499 -3s-29.166 -1 -38.499 -1c-18 0 -31.833 2.5 -41.5 7.5s-19.167 15.5 -28.5 31.5z" />
    <glyph glyph-name="Y" unicode="Y" horiz-adv-x="588" 
d="M4 618l-0.000976562 66h74c19.333 0 32.833 -2.33301 40.5 -7s14.834 -13 21.501 -25l161 -308l146 274h-53v66h190v-66h-55l-192 -342v-210h69v-66h-225v66h69v209l-186 343h-60z" />
    <glyph glyph-name="Z" unicode="Z" horiz-adv-x="580" 
d="M60 0c-2 6.66699 -3 15.668 -3 27.001c0 12.667 1.5 23.667 4.5 33s9.16699 21 18.5 35l344 523h-295c0 -15.333 -1.5 -31.833 -4.5 -49.5s-6.83301 -32.5 -11.5 -44.5h-58v147c0 4.66699 1.33301 8 4 10s9 3 19 3h443c2 -7.33301 3 -16 3 -26c0 -12 -1.5 -23 -4.5 -33
s-9.16699 -22 -18.5 -36l-344 -523h293c0 15.333 1.5 32.166 4.5 50.499s6.83301 33.5 11.5 45.5h58v-149c0 -4.66699 -1.33301 -8 -4 -10s-9 -3 -19 -3h-441z" />
    <glyph glyph-name="bracketleft" unicode="[" horiz-adv-x="352" 
d="M122 -207v931h196v-66h-111v-799h111v-66h-196z" />
    <glyph glyph-name="backslash" unicode="\" horiz-adv-x="457" 
d="M44 697h76l293 -711h-76z" />
    <glyph glyph-name="bracketright" unicode="]" horiz-adv-x="352" 
d="M34 -207v66h111v799h-111v66h196v-931h-196z" />
    <glyph glyph-name="asciicircum" unicode="^" horiz-adv-x="508" 
d="M452 401h-74l-124 211l-124 -211h-74l172 283h52z" />
    <glyph glyph-name="underscore" unicode="_" horiz-adv-x="423" 
d="M24 -108v63h375v-63h-375z" />
    <glyph glyph-name="grave" unicode="`" 
d="M287 579l-182 132l32 44c6 8.66699 11.833 12.667 17.5 12s12.5 -4.66699 20.5 -12l143 -137z" />
    <glyph glyph-name="a" unicode="a" horiz-adv-x="529" 
d="M358 232l-99.999 -0.000976562c-47.333 0 -80.666 -7.33301 -99.999 -22c-19.333 -14 -29 -36 -29 -66c0 -25.333 7.66699 -46.166 23 -62.499s41.666 -24.5 78.999 -24.5c20.667 0 42.167 1.83301 64.5 5.5s43.166 9.16699 62.499 16.5v153zM360.001 28.999
c-21.333 -12.667 -45 -22.998 -71 -30.998s-52.333 -12 -79 -12c-22.667 0 -43.834 3.16699 -63.501 9.5s-37 15.833 -52 28.5s-26.833 28.667 -35.5 48s-13 42 -13 68c0 44.667 13 80 39 106c32.667 33.333 87.334 50 164.001 50c18 0 36.167 -0.333008 54.5 -1
s36.5 -1.66699 54.5 -3v43c0 20 -1.83301 35.5 -5.5 46.5s-9.16699 20.167 -16.5 27.5c-8.66699 8 -20.334 13.5 -35.001 16.5s-33.667 4.5 -57 4.5h-152v52c26 7.33301 55.167 12.833 87.5 16.5s62.166 5.5 89.499 5.5c61.333 0 106.333 -15 135 -45
c12 -12.667 20.833 -27.834 26.5 -45.501s8.5 -39.834 8.5 -66.501v-286h66v-60c-17.333 -2 -33.666 -3.66699 -48.999 -5s-29.666 -2 -42.999 -2c-16.667 0 -29 3.16699 -37 9.5s-13.333 14.833 -16 25.5z" />
    <glyph glyph-name="b" unicode="b" horiz-adv-x="540" 
d="M166 469c22 10.667 45.5 19.1621 70.5 25.4951s49.167 9.5 72.5 9.5c31.333 0 57.833 -5.66699 79.5 -17s39.834 -26.666 54.501 -45.999c34 -47.333 51 -111.666 51 -192.999c0 -82.667 -15.167 -147 -45.5 -193s-76.5 -69 -138.5 -69c-25.333 0 -51.5 4.33301 -78.5 13
s-52.5 20.334 -76.5 35.001c-0.666992 -5.33301 -2.16699 -11.5 -4.5 -18.5s-4.5 -12.167 -6.5 -15.5h-59v658h-68v60c5.33301 0.666992 12.166 1.33398 20.499 2.00098l25.5 2c8.66699 0.666992 17.167 1.16699 25.5 1.5s15.5 0.5 21.5 0.5
c20.667 0 35.667 -4.66699 45 -14c7.33301 -7.33301 11 -20.666 11 -39.999v-201zM286 429.995c-21.333 0 -42.166 -1.83008 -62.499 -5.49707s-39.5 -8.16699 -57.5 -13.5v-326c17.333 -7.33301 37 -13.333 59 -18s42.667 -7 62 -7c20.667 0 38.667 3.16699 54 9.5
s28.166 16.666 38.499 30.999s18 33.666 23 57.999s7.5 54.5 7.5 90.5c0 30 -2.5 56 -7.5 78s-11.5 40.333 -19.5 55c-10 17.333 -22.833 29.666 -38.5 36.999s-35.167 11 -58.5 11z" />
    <glyph glyph-name="c" unicode="c" horiz-adv-x="465" 
d="M425 6c-19.333 -5.33301 -41.832 -10.001 -67.499 -14.001s-48.834 -6 -69.501 -6c-79.333 0 -140 23 -182 69c-20 22 -35.5 49.167 -46.5 81.5s-16.5 68.833 -16.5 109.5c0 42.667 6.16699 80.334 18.5 113.001s29.166 59.667 50.499 81
c20.667 21.333 46.5 37.333 77.5 48s64.5 16 100.5 16c23.333 0 45.333 -1.5 66 -4.5s38.667 -6.16699 54 -9.5c6.66699 -1.33301 11 -3.5 13 -6.5s3 -7.83301 3 -14.5v-111h-62c-1.33301 2.66699 -2.66602 7.16699 -3.99902 13.5s-2.83301 13 -4.5 20s-3 14.167 -4 21.5
s-1.5 14 -1.5 20c-16 2 -32.333 3 -49 3c-28 0 -52.667 -3.16699 -74 -9.5s-39 -16.833 -53 -31.5c-14.667 -15.333 -26.167 -35.333 -34.5 -60s-12.5 -54 -12.5 -88c0 -26.667 3 -53 9 -79s17.333 -47.667 34 -65c16 -16.667 36.333 -28.5 61 -35.5s55 -10.5 91 -10.5h103
v-51z" />
    <glyph glyph-name="d" unicode="d" horiz-adv-x="551" 
d="M380 30c-23.333 -13.333 -47.668 -24.001 -73.001 -32.001s-50 -12 -74 -12c-62 0 -108.667 23 -140 69s-47 110.333 -47 193c0 79.333 17 141.833 51 187.5s81.333 68.5 142 68.5c22 0 45 -3.33301 69 -10s46.667 -15.334 68 -26.001v190h-68v60
c5.33301 0.666992 12.166 1.33398 20.499 2.00098l25.5 2c8.66699 0.666992 17.167 1.16699 25.5 1.5s15.5 0.5 21.5 0.5c20.667 0 35.667 -4.66699 45 -14c7.33301 -7.33301 11 -20.666 11 -39.999v-609h66v-60c-17.333 -2 -33.666 -3.66699 -48.999 -5
s-29.666 -2 -42.999 -2c-16.667 0 -28.667 3.16699 -36 9.5s-12.333 14.833 -15 25.5v1zM254.998 59.999c18 0 38.333 1.99902 61 5.99902s42.667 9.66699 60 17v329c-20 5.33301 -40.333 9.66602 -61 12.999s-39 5 -55 5c-45.333 0 -78.333 -15 -99 -45
s-31 -75.333 -31 -136c0 -36 2.66699 -66.167 8 -90.5s13.166 -43.666 23.499 -57.999s23.333 -24.666 39 -30.999s33.834 -9.5 54.501 -9.5z" />
    <glyph glyph-name="e" unicode="e" horiz-adv-x="506" 
d="M127 220c1.33301 -26.667 4.83301 -49.835 10.5 -69.502s15.167 -36.167 28.5 -49.5c14 -15.333 32.667 -26.5 56 -33.5s55 -10.5 95 -10.5h124v-50c-21.333 -6 -46 -11 -74 -15s-54.667 -6 -80 -6c-42 0 -78 5.5 -108 16.5s-54.333 26.5 -73 46.5
c-21.333 23.333 -37.166 51.666 -47.499 84.999s-15.5 70.666 -15.5 111.999c0 38 4.66699 72.833 14 104.5s23.166 58.834 41.499 81.501s40.833 40.334 67.5 53.001s57 19 91 19c32.667 0 61.667 -5.66699 87 -17s46.5 -27.666 63.5 -48.999s30 -47.166 39 -77.499
s13.5 -64.5 13.5 -102.5v-29c0 -6 -3.66699 -9 -11 -9h-322zM383 283.999c-3.33301 48 -14.999 85.333 -34.999 112s-50.333 40 -91 40c-22 0 -40.833 -4 -56.5 -12s-28.834 -19 -39.501 -33s-18.667 -30.167 -24 -48.5s-8.33301 -37.833 -9 -58.5h255z" />
    <glyph glyph-name="f" unicode="f" horiz-adv-x="316" 
d="M316 490l-0.00195312 -62h-133v-428h-81v428h-85v48l85 15v66c0 30 3.5 55.5 10.5 76.5s17.167 38.167 30.5 51.5c14 14 30.833 24.5 50.5 31.5s44.167 10.5 73.5 10.5c17.333 0 35 -1.33301 53 -4s32.333 -5.66699 43 -9v-56h-63c-25.333 0 -45.166 -1.33301 -59.499 -4
s-26.166 -8 -35.499 -16c-8.66699 -7.33301 -14.5 -18 -17.5 -32s-4.5 -32 -4.5 -54v-62h133z" />
    <glyph glyph-name="g" unicode="g" horiz-adv-x="513" 
d="M459 320c0 -56.667 -16.833 -101.502 -50.5 -134.502s-83.5 -49.5 -149.5 -49.5c-31.333 0 -59 4 -83 12l-18 -75h152c68 0 116 -13 144 -39c26.667 -24.667 40 -60.667 40 -108c0 -29.333 -5.5 -54.333 -16.5 -75s-26.667 -37.667 -47 -51
s-44.666 -23.166 -72.999 -29.499s-59.5 -9.5 -93.5 -9.5h-11c-66.667 0 -118.667 13.833 -156 41.5s-56 65.167 -56 112.5c0 36.667 14.667 71.667 44 105c-5.33301 6 -8 15 -8 27c0 28.667 18.667 68.667 56 120c-24.667 16 -43.167 37 -55.5 63s-18.5 56 -18.5 90
c0 56.667 16.833 101.5 50.5 134.5s83.5 49.5 149.5 49.5c8 0 15.667 -0.333008 23 -1s14.666 -1.66699 21.999 -3l48 129c11.333 -3.33301 23.833 -7.66602 37.5 -12.999s25.167 -11 34.5 -17l-63 -114c32 -14.667 56.333 -36 73 -64s25 -61.667 25 -101zM381 319.998
c0 36 -8.83301 64.5 -26.5 85.5s-49.5 31.5 -95.5 31.5s-77.833 -10.5 -95.5 -31.5s-26.5 -49.5 -26.5 -85.5s8.83301 -64.5 26.5 -85.5s49.5 -31.5 95.5 -31.5s77.833 10.5 95.5 31.5s26.5 49.5 26.5 85.5zM146 -2.00195c-7.33301 0 -12.666 0.333984 -15.999 1.00098v-2
c-2.66699 -12 -4.83398 -23.333 -6.50098 -34s-2.5 -21 -2.5 -31c0 -32 10.833 -56.667 32.5 -74s58.167 -26 109.5 -26h2c51.333 0 89.166 7.16699 113.499 21.5s36.5 36.833 36.5 67.5c0 11.333 -1.66699 22.166 -5 32.499s-8.66602 18.5 -15.999 24.5
c-8.66699 7.33301 -20 12.5 -34 15.5s-32.333 4.5 -55 4.5h-159z" />
    <glyph glyph-name="h" unicode="h" horiz-adv-x="576" 
d="M166 463c24.667 12 50.668 21.832 78.001 29.499s55 11.5 83 11.5s52.333 -3.83301 73 -11.5s37.334 -18.167 50.001 -31.5s21.667 -29.166 27 -47.499s8 -41.5 8 -69.5v-283h65v-60c-5.33301 -0.666992 -12 -1.33398 -20 -2.00098l-24.5 -2
c-8.33301 -0.666992 -16.5 -1.16699 -24.5 -1.5s-15 -0.5 -21 -0.5c-20.667 0 -35.667 4.66699 -45 14c-7.33301 7.33301 -11 20.666 -11 39.999v276c0 20.667 -1.66699 37.5 -5 50.5s-9 23.5 -17 31.5s-18.833 13.667 -32.5 17s-29.834 5 -48.501 5
s-39.5 -1.66699 -62.5 -5s-47.167 -8 -72.5 -14v-410h-81v658h-68v60c5.33301 0.666992 12.166 1.33398 20.499 2.00098l25.5 2c8.66699 0.666992 17.167 1.16699 25.5 1.5s15.5 0.5 21.5 0.5c20.667 0 35.667 -4.66699 45 -14c7.33301 -7.33301 11 -20.666 11 -39.999v-207
z" />
    <glyph glyph-name="i" unicode="i" horiz-adv-x="256" 
d="M132 591c-15.333 0 -27.333 4 -36 12s-13 21.667 -13 41v3c0 19.333 4.33301 33 13 41s20.667 12 36 12h6c15.333 0 27.333 -4 36 -12s13 -21.667 13 -41v-3c0 -19.333 -4.33301 -33 -13 -41s-20.667 -12 -36 -12h-6zM180 0l-81 -0.00195312v428h-70v60
c5.33301 0.666992 12.333 1.33398 21 2.00098l26.5 2c9 0.666992 17.667 1.16699 26 1.5s15.5 0.5 21.5 0.5c20.667 0 35.667 -4.66699 45 -14c7.33301 -7.33301 11 -20.666 11 -39.999v-440z" />
    <glyph glyph-name="j" unicode="j" horiz-adv-x="256" 
d="M132 591c-15.333 0 -27.333 4 -36 12s-13 21.667 -13 41v3c0 19.333 4.33301 33 13 41s20.667 12 36 12h6c15.333 0 27.333 -4 36 -12s13 -21.667 13 -41v-3c0 -19.333 -4.33301 -33 -13 -41s-20.667 -12 -36 -12h-6zM180 -64c0 -30 -2.5 -55.002 -7.5 -75.002
s-13.167 -36.667 -24.5 -50c-22 -26.667 -56.667 -40 -104 -40c-11.333 0 -23.833 0.666992 -37.5 2s-25.167 3 -34.5 5v61h41c18 0 32 1.33301 42 4s18.333 7.66699 25 15c12.667 13.333 19 40.333 19 81v489h-70v60c5.33301 0.666992 12.333 1.33398 21 2.00098l26.5 2
c9 0.666992 17.667 1.16699 26 1.5s15.5 0.5 21.5 0.5c20.667 0 35.667 -4.66699 45 -14c7.33301 -7.33301 11 -20.666 11 -39.999v-504z" />
    <glyph glyph-name="k" unicode="k" horiz-adv-x="534" 
d="M166 256l180.001 199.999c13.333 15.333 25 24.833 35 28.5s24 5.5 42 5.5h65v-62h-69l-117 -121l155 -246h62v-58c-4.66699 -0.666992 -10.5 -1.33398 -17.5 -2.00098l-22 -2c-7.66699 -0.666992 -14.667 -1.16699 -21 -1.5s-11.5 -0.5 -15.5 -0.5
c-15.333 0 -27 2 -35 6s-16 12.667 -24 26l-137 221l-81 -80v-170h-81v658h-68v60c5.33301 0.666992 12.166 1.33398 20.499 2.00098l25.5 2c8.66699 0.666992 17.167 1.16699 25.5 1.5s15.5 0.5 21.5 0.5c20.667 0 35.667 -4.66699 45 -14
c7.33301 -7.33301 11 -20.666 11 -39.999v-414z" />
    <glyph glyph-name="l" unicode="l" horiz-adv-x="242" 
d="M166 0l-80.999 -0.00195312v658h-68v60c5.33301 0.666992 12.166 1.33398 20.499 2.00098l25.5 2c8.66699 0.666992 17.167 1.16699 25.5 1.5s15.5 0.5 21.5 0.5c20.667 0 35.667 -4.66699 45 -14c7.33301 -7.33301 11 -20.666 11 -39.999v-670z" />
    <glyph glyph-name="m" unicode="m" horiz-adv-x="874" 
d="M702 325c0 20.667 -1.66895 37.502 -5.00195 50.502s-9 23.5 -17 31.5s-18.833 13.667 -32.5 17s-28.167 5 -43.5 5c-17.333 0 -36.666 -1.5 -57.999 -4.5s-45.666 -8.5 -72.999 -16.5c3.33301 -9.33301 5.5 -19.5 6.5 -30.5s1.5 -23.167 1.5 -36.5v-341h-81v325
c0 20.667 -1.66699 37.5 -5 50.5s-9 23.5 -17 31.5s-18.833 13.667 -32.5 17s-28.167 5 -43.5 5c-39.333 0 -81 -6.33301 -125 -19v-410h-81v428h-68v59c17.333 2 34 3.66699 50 5s30.667 2 44 2c16.667 0 29 -2.5 37 -7.5s13.667 -13.167 17 -24.5
c20 11.333 43.5 21.166 70.5 29.499s53.833 12.5 80.5 12.5c25.333 0 48.666 -3.83301 69.999 -11.5s39.333 -20.5 54 -38.5c66 33.333 125.333 50 178 50c25.333 0 48.333 -3.83301 69 -11.5s37.334 -18.167 50.001 -31.5s21.667 -29.166 27 -47.499s8 -41.5 8 -69.5v-283
h65v-60c-5.33301 -0.666992 -12 -1.33398 -20 -2.00098l-24.5 -2c-8.33301 -0.666992 -16.5 -1.16699 -24.5 -1.5s-15 -0.5 -21 -0.5c-20.667 0 -35.667 4.66699 -45 14c-7.33301 7.33301 -11 20.666 -11 39.999v276z" />
    <glyph glyph-name="n" unicode="n" horiz-adv-x="587" 
d="M561 61l-0.000976562 -59.999c-5.33301 -0.666992 -12 -1.33398 -20 -2.00098l-24.5 -2c-8.33301 -0.666992 -16.5 -1.16699 -24.5 -1.5s-15 -0.5 -21 -0.5c-20.667 0 -35.667 4.66699 -45 14c-7.33301 7.33301 -11 20.666 -11 39.999v276
c0 20.667 -1.66699 37.5 -5 50.5s-9 23.5 -17 31.5s-18.833 13.667 -32.5 17s-29.834 5 -48.501 5s-39.5 -1.66699 -62.5 -5s-47.167 -8 -72.5 -14v-410h-81v428h-68v59c17.333 2 34 3.66699 50 5s30.667 2 44 2c16.667 0 29 -2.33301 37 -7s13.667 -12.667 17 -24
c24.667 12 50.834 21.833 78.501 29.5s55.5 11.5 83.5 11.5s52.333 -3.83301 73 -11.5s37.334 -18.167 50.001 -31.5s21.667 -29.166 27 -47.499s8 -41.5 8 -69.5v-283h65z" />
    <glyph glyph-name="o" unicode="o" horiz-adv-x="534" 
d="M491 245c0 -80.667 -19 -144 -57 -190s-93.667 -69 -167 -69s-129 23 -167 69s-57 109.333 -57 190s19 144 57 190s93.667 69 167 69s129 -23 167 -69s57 -109.333 57 -190zM407 245c0 60.667 -10.667 107 -32 139s-57.333 48 -108 48s-86.667 -16 -108 -48
s-32 -78.333 -32 -139s10.667 -107 32 -139s57.333 -48 108 -48s86.667 16 108 48s32 78.333 32 139z" />
    <glyph glyph-name="p" unicode="p" horiz-adv-x="550" 
d="M316 -14c-23.333 0 -46.999 3.33105 -70.999 9.99805s-46.667 16.334 -68 29.001v-250h-81v653h-68v59c17.333 2 34 3.66699 50 5s30.667 2 44 2c16.667 0 29 -2.16699 37 -6.5s13.667 -12.166 17 -23.499c22 12 44.667 21.667 68 29s47.666 11 72.999 11
c60.667 0 107 -22.833 139 -68.5s48 -108.167 48 -187.5c0 -82.667 -15.833 -147 -47.5 -193s-78.5 -69 -140.5 -69zM295.001 429.998c-17.333 0 -36.3311 -2.16602 -56.998 -6.49902s-41 -9.16602 -61 -14.499v-326c17.333 -7.33301 37 -13 59 -17s42 -6 60 -6
c20.667 0 38.667 3.16699 54 9.5s28.166 16.666 38.499 30.999s18.166 33.666 23.499 57.999s8 54.5 8 90.5c0 65.333 -10.833 111.833 -32.5 139.5s-52.5 41.5 -92.5 41.5z" />
    <glyph glyph-name="q" unicode="q" horiz-adv-x="539" 
d="M377 26c-23.333 -12.667 -47.501 -22.498 -72.501 -29.498s-49.167 -10.5 -72.5 -10.5c-62 0 -108.5 23 -139.5 69s-46.5 110.333 -46.5 193c0 80.667 17.833 143.5 53.5 188.5s86.5 67.5 152.5 67.5c43.333 0 88.333 -14.667 135 -44l10 30h61v-659h68v-60
c-5.33301 -0.666992 -12.166 -1.33398 -20.499 -2.00098l-25.5 -2c-8.66699 -0.666992 -17.167 -1.16699 -25.5 -1.5s-15.5 -0.5 -21.5 -0.5c-20.667 0 -35.667 4.66699 -45 14c-7.33301 7.33301 -11 20.666 -11 39.999v207zM255.999 59.002
c17.333 0 37.499 2.33301 60.499 7s43.167 10.667 60.5 18v324c-21.333 7.33301 -42.166 12.833 -62.499 16.5s-38.833 5.5 -55.5 5.5c-24 0 -44.167 -4.33301 -60.5 -13s-29.5 -21 -39.5 -37s-17.333 -35.167 -22 -57.5s-7 -46.833 -7 -73.5
c0 -64.667 9.5 -112.5 28.5 -143.5s51.5 -46.5 97.5 -46.5z" />
    <glyph glyph-name="r" unicode="r" horiz-adv-x="351" 
d="M177 0h-81v428h-68v59c17.333 2 34 3.66699 50 5s30.667 2 44 2c16.667 0 29.334 -2.5 38.001 -7.5s14 -15.5 16 -31.5c10 6 21.167 12 33.5 18s24.833 11.167 37.5 15.5s25.167 8 37.5 11s23.166 4.5 32.499 4.5c8 0 14 -1.5 18 -4.5s6 -8.5 6 -16.5v-61h-26
c-29.333 0 -54.333 -1 -75 -3s-41.667 -5.33301 -63 -10v-409z" />
    <glyph glyph-name="s" unicode="s" horiz-adv-x="473" 
d="M124 129c2 -6 4.33105 -15.9932 6.99805 -29.9932s4.66699 -26.333 6 -37c10.667 -3.33301 25.667 -6 45 -8s37 -3 53 -3c46 0 78.333 8 97 24c7.33301 6 12.666 13.667 15.999 23s5 19.333 5 30c0 22.667 -7.5 39.667 -22.5 51s-38.5 20.666 -70.5 27.999l-58 15
c-26 6.66699 -47.667 13.667 -65 21s-31.666 16.666 -42.999 27.999c-12 12 -20.833 25.667 -26.5 41s-8.5 31.666 -8.5 48.999c0 21.333 3.66699 40.666 11 57.999s18.333 32 33 44c17.333 15.333 38 26 62 32s51.333 9 82 9c20 0 43.167 -1.16699 69.5 -3.5
s48.833 -5.83301 67.5 -10.5c8 -2 13.167 -4.83301 15.5 -8.5s3.5 -8.5 3.5 -14.5v-97h-60c-2.66699 6 -5.16699 15.667 -7.5 29s-4.16602 25 -5.49902 35c-12 1.33301 -25.333 2.5 -40 3.5s-28.667 1.5 -42 1.5c-76.667 0 -115 -24 -115 -72
c0 -20.667 7.5 -36.334 22.5 -47.001s38.5 -20 70.5 -28l60 -15c28 -7.33301 50 -14.833 66 -22.5s29.667 -17.167 41 -28.5c23.333 -23.333 35 -54.333 35 -93c0 -44.667 -14 -79.334 -42 -104.001c-32.667 -28.667 -82.667 -43 -150 -43c-26 0 -53.167 1.66699 -81.5 5
s-52.5 7.66602 -72.5 12.999c-7.33301 2 -12.166 4.83301 -14.499 8.5s-3.5 8.5 -3.5 14.5v102h60z" />
    <glyph glyph-name="t" unicode="t" horiz-adv-x="365" 
d="M98 604c11.333 3.33301 24.498 6.33008 39.498 8.99707s28.833 4.33398 41.5 5.00098v-128h133v-62h-133v-276c0 -18.667 0.833008 -33.834 2.5 -45.501s5.5 -21.167 11.5 -28.5c5.33301 -7.33301 13.166 -12.666 23.499 -15.999s24.5 -5 42.5 -5h91v-53
c-13.333 -5.33301 -30.666 -9.66602 -51.999 -12.999s-40.666 -5 -57.999 -5c-25.333 0 -46.5 2.83301 -63.5 8.5s-31.167 13.834 -42.5 24.501c-13.333 12.667 -22.666 28.667 -27.999 48s-8 45 -8 77v284h-85v48l85 15v113z" />
    <glyph glyph-name="u" unicode="u" horiz-adv-x="583" 
d="M172 165c0 -40 7.33398 -67.332 22.001 -81.999c8 -8 18.833 -13.667 32.5 -17s29.834 -5 48.501 -5s39 1.5 61 4.5s45.333 7.83301 70 14.5v348h-65v62h146v-429h68v-58c-17.333 -2 -34 -3.66699 -50 -5s-30.667 -2 -44 -2c-16.667 0 -29 3 -37 9s-13.333 13.333 -16 22
c-24.667 -12 -50.334 -21.833 -77.001 -29.5s-54 -11.5 -82 -11.5s-52.333 3.83301 -73 11.5s-37.334 18.167 -50.001 31.5s-21.667 29.166 -27 47.499s-8 41.5 -8 69.5v282h-65v60c11.333 1.33301 26.333 2.66602 45 3.99902s33.667 2 45 2
c20.667 0 35.667 -4.66699 45 -14c7.33301 -7.33301 11 -20.666 11 -39.999v-275z" />
    <glyph glyph-name="v" unicode="v" horiz-adv-x="525" 
d="M347 487l172 -0.000976562v-59h-47l-157 -428h-56c-15.333 0 -25.5 2.16699 -30.5 6.5s-9.83301 12.833 -14.5 25.5l-144 396h-64v59l39.5 4c13 1.33301 24.5 2 34.5 2c19.333 0 33.5 -2.16699 42.5 -6.5s16.5 -15.166 22.5 -32.499l131 -376l119 350h-48v59z" />
    <glyph glyph-name="w" unicode="w" horiz-adv-x="759" 
d="M437 487l106 -410.999l93 352h-47v59h164v-59h-45l-120 -428h-58c-15.333 0 -26.333 2.16699 -33 6.5s-11.667 12.833 -15 25.5l-96 369l-90 -401h-62c-14.667 0 -25.334 2.33301 -32.001 7s-11.667 13 -15 25l-121 396h-60v59l39 4c12.667 1.33301 23.334 2 32.001 2
c20 0 34.667 -2.33301 44 -7s16.333 -15.334 21 -32.001l106 -375l81 379c2.66699 11.333 6.5 19 11.5 23s13.167 6 24.5 6h72z" />
    <glyph glyph-name="x" unicode="x" horiz-adv-x="505" 
d="M243 190l-102.004 -175c-4 -6.66699 -7.66699 -10.834 -11 -12.501s-8.33301 -2.5 -15 -2.5h-61c-6 0 -7.33301 3 -4 9l157 236l-118 183h-61v59c11.333 1.33301 23.833 2.5 37.5 3.5s24.834 1.5 33.501 1.5s15.834 -0.5 21.501 -1.5s10.5 -2.83301 14.5 -5.5
s7.83301 -6.16699 11.5 -10.5s7.83398 -9.83301 12.501 -16.5l102 -157l103 174c4 6.66699 7.66699 10.834 11 12.501s8.33301 2.5 15 2.5h61c6 0 7.33301 -3 4 -9l-158 -235l121 -185h59v-60c-11.333 -1.33301 -23.5 -2.33301 -36.5 -3s-23.833 -1 -32.5 -1
c-16.667 0 -28.667 2.5 -36 7.5s-15.666 14.167 -24.999 27.5z" />
    <glyph glyph-name="y" unicode="y" horiz-adv-x="564" 
d="M173 165c0 -40 7.33301 -67.3311 22 -81.998c8 -8 18.833 -13.667 32.5 -17s29.834 -5 48.501 -5s39 1.5 61 4.5s45.333 7.83301 70 14.5v348h-65v62h146v-524c0 -38 -4.16699 -69.5 -12.5 -94.5s-20.5 -45.833 -36.5 -62.5c-31.333 -32 -81 -48 -149 -48
c-18 0 -38 1.16699 -60 3.5s-41.667 5.16602 -59 8.49902v56h94c54.667 0 92 10 112 30c11.333 11.333 19.166 25.833 23.499 43.5s6.5 41.5 6.5 71.5v52c-24.667 -12 -50.167 -21.667 -76.5 -29s-53.166 -11 -80.499 -11c-28 0 -52.333 3.83301 -73 11.5
s-37.334 18.167 -50.001 31.5s-21.667 29.166 -27 47.499s-8 41.5 -8 69.5v282h-65v60c11.333 1.33301 26.333 2.66602 45 3.99902s33.667 2 45 2c20.667 0 35.667 -4.66699 45 -14c7.33301 -7.33301 11 -20.666 11 -39.999v-275z" />
    <glyph glyph-name="z" unicode="z" horiz-adv-x="488" 
d="M60 0c-1.33301 3.33301 -2.16699 7.33203 -2.5 11.999s-0.5 9.66699 -0.5 15c0 12.667 2 23.5 6 32.5s10.667 19.5 20 31.5l260 337h-211c-1.33301 -10 -3.16602 -22.333 -5.49902 -37s-4.83301 -25.667 -7.5 -33h-61v116c0 10.667 5.66699 16 17 16h361
c1.33301 -3.33301 2.16602 -7.33301 2.49902 -12s0.5 -9.66699 0.5 -15c0 -11.333 -2 -21.666 -6 -30.999s-10.667 -20.333 -20 -33l-260 -338h215c0 4.66699 0.5 10.5 1.5 17.5l3 20.5c1 6.66699 2.33301 13 4 19s3.16699 11 4.5 15h61v-117
c0 -10.667 -5.66699 -16 -17 -16h-365z" />
    <glyph glyph-name="braceleft" unicode="{" horiz-adv-x="366" 
d="M56 291c18 4 33.5 8.83301 46.5 14.5s23.667 13.5 32 23.5s14.5 22.667 18.5 38s6 34.666 6 57.999v178c0 42 9.5 72.667 28.5 92s51.167 29 96.5 29h42v-66h-25c-23.333 0 -39 -3.5 -47 -10.5s-12 -22.833 -12 -47.5v-176c0 -26 -2.16699 -48 -6.5 -66
s-10.666 -33.333 -18.999 -46s-18.5 -23.167 -30.5 -31.5s-25.667 -15.833 -41 -22.5c15.333 -7.33301 29 -15 41 -23s22.167 -18.333 30.5 -31s14.666 -28 18.999 -46s6.5 -40 6.5 -66v-175c0 -24.667 4 -40.5 12 -47.5s23.667 -10.5 47 -10.5h25v-66h-42
c-45.333 0 -77.5 9.66699 -96.5 29s-28.5 50 -28.5 92v177c0 22.667 -2 41.834 -6 57.501s-10.167 28.5 -18.5 38.5s-19 17.833 -32 23.5s-28.5 10.5 -46.5 14.5v66z" />
    <glyph glyph-name="bar" unicode="|" horiz-adv-x="239" 
d="M85 -253v1009h69v-1009h-69z" />
    <glyph glyph-name="braceright" unicode="}" horiz-adv-x="366" 
d="M310 226c-18 -4 -33.5 -8.83301 -46.5 -14.5s-23.667 -13.5 -32 -23.5s-14.5 -22.833 -18.5 -38.5s-6 -34.834 -6 -57.501v-178c0 -42 -9.5 -72.667 -28.5 -92s-51.167 -29 -96.5 -29h-42v66h25c23.333 0 39 3.5 47 10.5s12 22.833 12 47.5v176c0 26 2.16699 48 6.5 66
s10.666 33.333 18.999 46s18.5 23 30.5 31s25.667 15.667 41 23c-15.333 6.66699 -29 14.167 -41 22.5s-22.167 18.833 -30.5 31.5s-14.666 28 -18.999 46s-6.5 40 -6.5 66v175c0 24.667 -4 40.5 -12 47.5s-23.667 10.5 -47 10.5h-25v66h42c45.333 0 77.5 -9.66699 96.5 -29
s28.5 -50 28.5 -92v-177c0 -23.333 2 -42.666 6 -57.999s10.167 -28 18.5 -38s19 -17.833 32 -23.5s28.5 -10.5 46.5 -14.5v-66z" />
    <glyph glyph-name="asciitilde" unicode="~" horiz-adv-x="508" 
d="M438 418c-1.33301 -27.333 -9.33301 -50.5 -24 -69.5s-37 -28.5 -67 -28.5c-13.333 0 -27.833 1.66699 -43.5 5l-48 10.5l-47.5 10.5c-15.333 3.33301 -29 5 -41 5c-15.333 0 -26.5 -2.33301 -33.5 -7s-12.167 -13.667 -15.5 -27l-49 5
c1.33301 27.333 9.33301 50.333 24 69s37 28 67 28c12.667 0 27.167 -1.66699 43.5 -5l49.5 -10.5l47.5 -10.5c15 -3.33301 28.167 -5 39.5 -5c15.333 0 26.5 2.5 33.5 7.5s12.167 14.167 15.5 27.5z" />
    <glyph glyph-name="nonbreakingspace" unicode="&#xa0;" horiz-adv-x="190" 
 />
    <glyph glyph-name="exclamdown" unicode="&#xa1;" horiz-adv-x="275" 
d="M107.01 294.012c0 6.66699 3.33301 10 10 10h50.9971l13.999 -497.97h-89.9951zM141.008 503.999c15.333 0 27.499 -4.16602 36.498 -12.499s13.499 -22.166 13.499 -41.499v-3.99902c0 -19.332 -4.5 -33.165 -13.499 -41.498s-21.165 -12.499 -36.498 -12.499h-6.99902
c-15.333 0 -27.499 4.16602 -36.498 12.499s-13.499 22.166 -13.499 41.498v3.99902c0 19.333 4.5 33.166 13.499 41.499s21.165 12.499 36.498 12.499h6.99902z" />
    <glyph glyph-name="cent" unicode="&#xa2;" horiz-adv-x="534" 
d="M270 -128l-0.000976562 116.998c-66 8.66699 -115.5 36 -148.5 82s-49.5 104.333 -49.5 175c0 42 6 79 18 111s28 58.667 48 80c16.667 18 36.334 32.167 59.001 42.5s47 17.5 73 21.5v116h65v-114c20.667 -1.33301 40.667 -3.5 60 -6.5s36 -6.16699 50 -9.5
c6 -1.33301 10 -3.5 12 -6.5s3 -7.16699 3 -12.5v-114h-57c-1.33301 3.33301 -2.66602 8.16602 -3.99902 14.499s-2.5 13.333 -3.5 21l-3 22c-1 7 -1.83301 13.167 -2.5 18.5c-9.33301 1.33301 -21.833 2.5 -37.5 3.5s-29.5 1.5 -41.5 1.5c-49.333 0 -87.5 -15 -114.5 -45
s-40.5 -76.667 -40.5 -140c0 -33.333 3.66699 -62.333 11 -87s19 -45 35 -61c15.333 -15.333 34.666 -26.666 57.999 -33.999s53 -11 89 -11h107v-51c-17.333 -5.33301 -36.333 -9.66602 -57 -12.999s-42 -5.66602 -64 -6.99902v-114h-65z" />
    <glyph glyph-name="sterling" unicode="&#xa3;" horiz-adv-x="579" 
d="M153 388c-3.33301 17.333 -5.83105 34.666 -7.49805 51.999s-2.5 34.666 -2.5 51.999c0 66 18.333 116.333 55 151c38 36 95.667 54 173 54c19.333 0 41.666 -1.5 66.999 -4.5s46.666 -6.83301 63.999 -11.5v-58h-108c-34 0 -61.667 -2.83301 -83 -8.5
s-38.333 -14.5 -51 -26.5c-20.667 -20 -31 -52.333 -31 -97c0 -16.667 0.833008 -33.5 2.5 -50.5s4.16699 -34.167 7.5 -51.5h178v-59h-169c2 -13.333 3.66699 -26.5 5 -39.5s2 -25.833 2 -38.5c0 -32 -8.33301 -62.5 -25 -91.5s-41 -60.167 -73 -93.5h301
c0 6.66699 0.666992 14.334 2 23.001l4 26.5c1.33301 9 3 17.667 5 26s4 15.5 6 21.5h54v-150c0 -5.33301 -1.83301 -9 -5.5 -11s-11.167 -3 -22.5 -3h-425c-1.33301 4.66699 -2.33301 9.5 -3 14.5s-1 9.83301 -1 14.5c0 7.33301 0.5 14 1.5 20s3 12 6 18s7 12.667 12 20
s11.5 16.333 19.5 27c10 12.667 18.5 24.334 25.5 35.001s13 21 18 31s8.66699 20.333 11 31s3.5 22.667 3.5 36s-0.666992 27 -2 41s-3 28 -5 42h-110v46z" />
    <glyph glyph-name="currency" unicode="&#xa4;" horiz-adv-x="568" 
d="M456 349c0 -40.667 -9.33496 -76 -28.002 -106l75 -75l-44 -44l-73 72c-13.333 -9.33301 -28.666 -16.666 -45.999 -21.999s-36 -8 -56 -8c-20.667 0 -39.667 2.66699 -57 8s-32.666 12.666 -45.999 21.999l-72 -72l-44 44l75 75c-18.667 30 -28 65.333 -28 106
c0 39.333 9.33301 74.666 28 105.999l-75 75l44 44l72 -73c28 20.667 62.333 31 103 31c40 0 74 -10.333 102 -31l73 73l44 -44l-75 -75c18.667 -31.333 28 -66.666 28 -105.999zM181.998 349c0 -34.667 7.66699 -63.167 23 -85.5s41.666 -33.5 78.999 -33.5
s63.666 11.167 78.999 33.5s23 50.833 23 85.5s-7.66699 63.167 -23 85.5s-41.666 33.5 -78.999 33.5s-63.666 -11.167 -78.999 -33.5s-23 -50.833 -23 -85.5z" />
    <glyph glyph-name="yen" unicode="&#xa5;" horiz-adv-x="608" 
d="M32 618v66h76c18.667 0 31.667 -2 39 -6s14.333 -12.667 21 -26l143 -308l128 274h-53v66h190v-66h-55l-149 -292h113v-59h-138v-59h138v-59h-138v-83h69v-66h-225v66h69v83h-135v59h135v59h-135v59h109l-142 292h-60z" />
    <glyph glyph-name="brokenbar" unicode="&#xa6;" horiz-adv-x="239" 
d="M85 -253v389h69v-389h-69zM85 367v389h69v-389h-69z" />
    <glyph glyph-name="section" unicode="&#xa7;" horiz-adv-x="512" 
d="M70 365c0 18 3.33203 34.0039 9.99902 48.0039s15.667 26.333 27 37c-24.667 22 -37 54.667 -37 98c0 49.333 15.333 86.5 46 111.5s78.334 37.5 143.001 37.5c32 0 61.167 -2.16699 87.5 -6.5s50.166 -9.5 71.499 -15.5c6 -2 10 -4.33301 12 -7s3 -6.66699 3 -12v-100
h-63c-2.66699 6.66699 -5.16699 16.667 -7.5 30s-4.16602 25 -5.49902 35c-5.33301 1.33301 -12 2.5 -20 3.5l-25 3c-8.66699 1 -17.167 1.83301 -25.5 2.5s-15.5 1 -21.5 1c-45.333 0 -76.666 -6.83301 -93.999 -20.5s-26 -31.834 -26 -54.501c0 -21.333 6 -37.5 18 -48.5
s32.333 -19.833 61 -26.5l76 -17c50.667 -12 87 -29 109 -51s33 -53.667 33 -95c0 -18.667 -3.5 -34.834 -10.5 -48.501s-16.167 -25.834 -27.5 -36.501c12.667 -11.333 22.167 -25 28.5 -41s9.5 -35 9.5 -57c0 -49.333 -15.333 -86.5 -46 -111.5
s-78.334 -37.5 -143.001 -37.5c-32 0 -61.167 2.16699 -87.5 6.5s-50.166 9.5 -71.499 15.5c-6 2 -10 4.33301 -12 7s-3 6.66699 -3 12v100h63c2.66699 -6.66699 5.16699 -16.667 7.5 -30s4.16602 -25 5.49902 -35c5.33301 -1.33301 12 -2.5 20 -3.5l25 -3
c8.66699 -1 17.167 -1.83301 25.5 -2.5s15.5 -1 21.5 -1c45.333 0 76.666 6.66699 93.999 20s26 31.666 26 54.999c0 21.333 -6 37.5 -18 48.5s-32.333 19.833 -61 26.5l-76 17c-25.333 6 -47 13.167 -65 21.5s-32.667 18.166 -44 29.499s-19.666 24.833 -24.999 40.5
s-8 33.834 -8 54.501zM348.999 264.004c5.33301 7.33301 9.66699 15.167 13 23.5s5 18.166 5 29.499c0 19.333 -6.66699 34.666 -20 45.999s-35.666 20.666 -66.999 27.999l-76 17c-7.33301 1.33301 -14.5 2.83301 -21.5 4.5s-13.5 3.83398 -19.5 6.50098
c-12 -15.333 -18 -33 -18 -53c0 -19.333 6.66699 -34.666 20 -45.999s35.666 -20.666 66.999 -27.999l76 -17z" />
    <glyph glyph-name="dieresis" unicode="&#xa8;" 
d="M109 607c-15.333 0 -27.833 4.16699 -37.5 12.5s-14.5 22.833 -14.5 43.5v2c0 20.667 4.83301 35.167 14.5 43.5s22.167 12.5 37.5 12.5h6c15.333 0 27.833 -4.16699 37.5 -12.5s14.5 -22.833 14.5 -43.5v-2c0 -20.667 -4.83301 -35.167 -14.5 -43.5
s-22.167 -12.5 -37.5 -12.5h-6zM309 607c-15.333 0 -27.833 4.16699 -37.5 12.5s-14.5 22.833 -14.5 43.5v2c0 20.667 4.83301 35.167 14.5 43.5s22.167 12.5 37.5 12.5h6c15.333 0 27.833 -4.16699 37.5 -12.5s14.5 -22.833 14.5 -43.5v-2
c0 -20.667 -4.83301 -35.167 -14.5 -43.5s-22.167 -12.5 -37.5 -12.5h-6z" />
    <glyph glyph-name="copyright" unicode="&#xa9;" horiz-adv-x="768" 
d="M728 342c0 -48.667 -7.66699 -94.667 -23 -138s-37.5 -81.166 -66.5 -113.499s-65 -57.833 -108 -76.5s-91.833 -28 -146.5 -28c-55.333 0 -104.333 9.33301 -147 28s-78.5 44.167 -107.5 76.5s-51.167 70.166 -66.5 113.499s-23 89.333 -23 138s7.66699 94.5 23 137.5
s37.5 80.667 66.5 113s64.833 57.833 107.5 76.5s91.667 28 147 28c54.667 0 103.5 -9.33301 146.5 -28s79 -44.167 108 -76.5s51.167 -70 66.5 -113s23 -88.833 23 -137.5zM658 342c0 45.333 -6.33301 86.166 -19 122.499s-30.834 67 -54.501 92s-52.5 44.167 -86.5 57.5
s-72 20 -114 20s-80 -6.66699 -114 -20s-62.833 -32.5 -86.5 -57.5s-41.834 -55.667 -54.501 -92s-19 -77.166 -19 -122.499s6.33301 -86.166 19 -122.499s30.834 -67.166 54.501 -92.499s52.5 -44.666 86.5 -57.999s72 -20 114 -20s80 6.66699 114 20
s62.833 32.666 86.5 57.999s41.834 56.166 54.501 92.499s19 77.166 19 122.499zM430 413c-2.66699 4.66699 -5 12.168 -7 22.501s-3.33301 18.5 -4 24.5c-3.33301 0.666992 -7.16602 1 -11.499 1h-11.5c-32.667 0 -55.667 -9.5 -69 -28.5s-20 -48.167 -20 -87.5
c0 -23.333 2.16699 -42.5 6.5 -57.5s11.166 -26.833 20.499 -35.5s21.166 -14.667 35.499 -18s31.833 -5 52.5 -5h50v-44c-8 -2 -19.167 -4.16699 -33.5 -6.5s-28.166 -3.5 -41.499 -3.5c-54.667 0 -93.667 15.333 -117 46s-35 71.667 -35 123
c0 55.333 12.667 97.666 38 126.999s62 44 110 44c11.333 0 24 -1 38 -3s24.667 -4.33301 32 -7c6.66699 -2.66699 10.5 -5.5 11.5 -8.5s1.5 -7.16699 1.5 -12.5v-71h-46z" />
    <glyph glyph-name="ordfeminine" unicode="&#xaa;" horiz-adv-x="440" 
d="M268 499l-67.999 0.000976562c-22 0 -39.833 -3.83301 -53.5 -11.5s-20.5 -21.167 -20.5 -40.5c0 -16.667 5.16699 -29.667 15.5 -39s26.166 -14 47.499 -14c12 0 25.833 1.66699 41.5 5s28.167 7.66602 37.5 12.999v87zM380.001 394.001v-49.001
c-7.33301 -1.33301 -17.5 -2.16602 -30.5 -2.49902s-24.5 -0.5 -34.5 -0.5c-13.333 0 -24 2 -32 6s-12.667 10.667 -14 20c-14 -8.66699 -29.833 -15.667 -47.5 -21s-34.834 -8 -51.501 -8c-34 0 -61 9.5 -81 28.5s-30 44.167 -30 75.5c0 38 12.5 65.333 37.5 82
s57.5 25 97.5 25h74v35c0 21.333 -6 36.166 -18 44.499s-33 12.5 -63 12.5h-91v46c16 2.66699 34.333 4.83398 55 6.50098s40.334 2.5 59.001 2.5c83.333 0 125 -37.667 125 -113v-190h45z" />
    <glyph glyph-name="guillemotleft" unicode="&#xab;" horiz-adv-x="560" 
d="M275 80l-37 -26.998l-130 149c-12.667 14.667 -21.5 26.167 -26.5 34.5s-7.5 17.166 -7.5 26.499s2.5 18.166 7.5 26.499s13.833 19.833 26.5 34.5l130 149l37 -27l-123 -183zM500 80.002l-37 -26.998l-130 149c-12.667 14.667 -21.5 26.167 -26.5 34.5
s-7.5 17.166 -7.5 26.499s2.5 18.166 7.5 26.499s13.833 19.833 26.5 34.5l130 149l37 -27l-123 -183z" />
    <glyph glyph-name="logicalnot" unicode="&#xac;" horiz-adv-x="508" 
d="M416 201h-65v180h-259v65h324v-245z" />
    <glyph glyph-name="uni00AD" unicode="&#xad;" horiz-adv-x="317" 
d="M66 226v71h185v-71h-185z" />
    <glyph glyph-name="registered" unicode="&#xae;" horiz-adv-x="768" 
d="M372 231v-48.002h-119v48h30v230h-30v49h128c23.333 0 42.5 -2.16699 57.5 -6.5s27.5 -11.166 37.5 -20.499c15.333 -14.667 23 -38 23 -70c0 -24.667 -4.83301 -45.5 -14.5 -62.5s-23.5 -28.833 -41.5 -35.5l47 -84h37v-46c-6 -1.33301 -14.5 -2.33301 -25.5 -3
s-19.833 -1 -26.5 -1c-9.33301 0 -16.5 1.83301 -21.5 5.5s-9.5 9.83398 -13.5 18.501l-54 103h-44v-77h30zM342 356.998h35.999c24.667 0 41.334 4.33301 50.001 13c8.66699 8 13 22.333 13 43c0 16.667 -4.33301 29 -13 37c-8 7.33301 -24.667 11 -50 11h-36v-104z
M727.999 341.998c0 -48.667 -7.66699 -94.667 -23 -138s-37.5 -81.166 -66.5 -113.499s-65 -57.833 -108 -76.5s-91.833 -28 -146.5 -28c-55.333 0 -104.333 9.33301 -147 28s-78.5 44.167 -107.5 76.5s-51.167 70.166 -66.5 113.499s-23 89.333 -23 138
s7.66699 94.5 23 137.5s37.5 80.667 66.5 113s64.833 57.833 107.5 76.5s91.667 28 147 28c54.667 0 103.5 -9.33301 146.5 -28s79 -44.167 108 -76.5s51.167 -70 66.5 -113s23 -88.833 23 -137.5zM657.999 341.998c0 45.333 -6.33301 86.166 -19 122.499
s-30.834 67 -54.501 92s-52.5 44.167 -86.5 57.5s-72 20 -114 20s-80 -6.66699 -114 -20s-62.833 -32.5 -86.5 -57.5s-41.834 -55.667 -54.501 -92s-19 -77.166 -19 -122.499s6.33301 -86.166 19 -122.499s30.834 -67.166 54.501 -92.499s52.5 -44.666 86.5 -57.999
s72 -20 114 -20s80 6.66699 114 20s62.833 32.666 86.5 57.999s41.834 56.166 54.501 92.499s19 77.166 19 122.499z" />
    <glyph glyph-name="macron" unicode="&#xaf;" 
d="M77 618v70h270v-70h-270z" />
    <glyph glyph-name="degree" unicode="&#xb0;" horiz-adv-x="452" 
d="M135 517c0 -34 6.83301 -61.667 20.5 -83s37.167 -32 70.5 -32s56.833 10.667 70.5 32s20.5 49 20.5 83s-6.83301 61.667 -20.5 83s-37.167 32 -70.5 32s-56.833 -10.667 -70.5 -32s-20.5 -49 -20.5 -83zM392 517c0 -26.667 -3.66699 -51 -11 -73
s-18.166 -41 -32.499 -57s-31.833 -28.333 -52.5 -37s-44 -13 -70 -13s-49.333 4.33301 -70 13s-38.167 21 -52.5 37s-25.166 35 -32.499 57s-11 46.333 -11 73s3.66699 51 11 73s18.166 41 32.499 57s31.833 28.333 52.5 37s44 13 70 13s49.333 -4.33301 70 -13
s38.167 -21 52.5 -37s25.166 -35 32.499 -57s11 -46.333 11 -73z" />
    <glyph glyph-name="plusminus" unicode="&#xb1;" horiz-adv-x="508" 
d="M286 356h130v-65h-130v-130h-65v130h-129v65h129v129h65v-129zM92 0v65h324v-65h-324z" />
    <glyph glyph-name="twosuperior" unicode="&#xb2;" horiz-adv-x="500" 
d="M189 407h130c1.33301 22 4 39.333 8 52h49v-101c0 -6.66699 -2 -10 -6 -10h-252c-0.666992 3.33301 -1.16699 7.33301 -1.5 12s-0.5 8.66699 -0.5 12c0 14 2.5 26.333 7.5 37s15.833 25 32.5 43l77 87c19.333 22 33.833 40.5 43.5 55.5s14.5 31.5 14.5 49.5
c0 15.333 -4.66699 27 -14 35c-12 10 -33.667 15 -65 15h-83v51c15.333 2.66699 32.833 4.83398 52.5 6.50098s38.167 2.5 55.5 2.5c40 0 71.333 -9 94 -27s34 -42.333 34 -73c0 -13.333 -1.16699 -25.166 -3.5 -35.499s-7 -21.333 -14 -33s-16.667 -24.834 -29 -39.501
s-28.5 -32.334 -48.5 -53.001z" />
    <glyph glyph-name="threesuperior" unicode="&#xb3;" horiz-adv-x="500" 
d="M161 687c-0.666992 -4 -1.83203 -10.0029 -3.49902 -18.0029s-3.16699 -14.667 -4.5 -20h-47v86c0 6.66699 2 10 6 10h251c1.33301 -6.66699 2 -13 2 -19c0 -11.333 -1.66699 -21.166 -5 -29.499s-10 -19.166 -20 -32.499l-65 -85
c32 -5.33301 56.833 -17.166 74.5 -35.499s26.5 -43.5 26.5 -75.5c0 -36.667 -11 -66.667 -33 -90c-26.667 -26.667 -66.334 -40 -119.001 -40c-6.66699 0 -14.667 0.333008 -24 1s-19 1.5 -29 2.5l-29 3c-9.33301 1 -17.333 2.16699 -24 3.5v50h89c39.333 0 66.333 7 81 21
c11.333 11.333 17 27.333 17 48c0 24.667 -7.66699 42 -23 52s-41.333 15 -78 15c-1.33301 5.33301 -2 11 -2 17c0 7.33301 1.5 14 4.5 20s8.16699 14 15.5 24l67 92h-128z" />
    <glyph glyph-name="acute" unicode="&#xb4;" 
d="M105 618l143 137c8 7.33301 14.833 11.333 20.5 12s11.5 -3.33301 17.5 -12l32 -44l-182 -132z" />
    <glyph glyph-name="mu" unicode="&#xb5;" horiz-adv-x="588" 
d="M177 156c0 -34.667 7.33398 -59 22.001 -73c8 -8 18.833 -13.667 32.5 -17s29.834 -5 48.501 -5s39 1.5 61 4.5s45.333 7.83301 70 14.5v348h-65v62h146v-429h67v-58c-17.333 -2 -33.833 -3.66699 -49.5 -5s-30.167 -2 -43.5 -2c-16.667 0 -29 3 -37 9
s-13.333 13.333 -16 22c-24.667 -12 -50.334 -21.833 -77.001 -29.5s-54 -11.5 -82 -11.5c-28.667 0 -54.334 4.33301 -77.001 13v-224h-81v653h-66v60c11.333 1.33301 26.5 2.66602 45.5 3.99902s34.167 2 45.5 2c20.667 0 35.667 -4.66699 45 -14
c7.33301 -7.33301 11 -20.666 11 -39.999v-284z" />
    <glyph glyph-name="paragraph" unicode="&#xb6;" horiz-adv-x="602" 
d="M541 684v-66h-70v-821h-72v821h-79v-821h-72v529c-58 0 -104.167 15.333 -138.5 46s-51.5 75 -51.5 133c0 50.667 14 91.667 42 123c17.333 18.667 39.5 32.667 66.5 42s58.167 14 93.5 14h281z" />
    <glyph glyph-name="periodcentered" unicode="&#xb7;" horiz-adv-x="227" 
d="M110 293c-15.333 0 -27.5 4.16699 -36.5 12.5s-13.5 22.166 -13.5 41.499v4c0 19.333 4.5 33.166 13.5 41.499s21.167 12.5 36.5 12.5h7c15.333 0 27.5 -4.16699 36.5 -12.5s13.5 -22.166 13.5 -41.499v-4c0 -19.333 -4.5 -33.166 -13.5 -41.499
s-21.167 -12.5 -36.5 -12.5h-7z" />
    <glyph glyph-name="cedilla" unicode="&#xb8;" 
d="M190 12c-1.33301 -3.33301 -2.83398 -7.83203 -4.50098 -13.499s-2.5 -11.5 -2.5 -17.5c0 -8.66699 3 -15.667 9 -21s20.667 -12.333 44 -21c23.333 -9.33301 41.333 -19.833 54 -31.5s19 -29.167 19 -52.5c0 -15.333 -2.5 -28.5 -7.5 -39.5s-11.5 -20.5 -19.5 -28.5
c-10.667 -10 -23.5 -17.167 -38.5 -21.5s-30.833 -6.5 -47.5 -6.5c-14 0 -28.667 1.16699 -44 3.5s-27.666 5.5 -36.999 9.5v43h69c36.667 0 55 10.333 55 31c0 9.33301 -3.66699 16.666 -11 21.999s-21.333 12.333 -42 21c-24.667 10 -41.167 19.5 -49.5 28.5
s-12.5 21.5 -12.5 37.5c0 9.33301 2.5 19 7.5 29s11.5 19.333 19.5 28h39z" />
    <glyph glyph-name="onesuperior" unicode="&#xb9;" horiz-adv-x="500" 
d="M364 407v-59.001h-228v59h85v279h-81v58c16.667 1.33301 35 2.33301 55 3s37.333 1 52 1c16 0 27.5 -2.66699 34.5 -8s10.5 -14.666 10.5 -27.999v-305h72z" />
    <glyph glyph-name="ordmasculine" unicode="&#xba;" horiz-adv-x="440" 
d="M378 520c0 -24 -3 -46.833 -9 -68.5s-15.5 -40.667 -28.5 -57s-29.5 -29.333 -49.5 -39s-43.667 -14.5 -71 -14.5s-51 4.83301 -71 14.5s-36.5 22.667 -49.5 39s-22.5 35.333 -28.5 57s-9 44.5 -9 68.5s3 46.833 9 68.5s15.5 40.667 28.5 57s29.5 29.333 49.5 39
s43.667 14.5 71 14.5s51 -4.83301 71 -14.5s36.5 -22.667 49.5 -39s22.5 -35.333 28.5 -57s9 -44.5 9 -68.5zM306 520c0 40 -7 69.5 -21 88.5s-35.667 28.5 -65 28.5s-51 -9.5 -65 -28.5s-21 -48.5 -21 -88.5s7 -69.5 21 -88.5s35.667 -28.5 65 -28.5s51 9.5 65 28.5
s21 48.5 21 88.5z" />
    <glyph glyph-name="guillemotright" unicode="&#xbb;" horiz-adv-x="560" 
d="M183 263l-123 182.998l37 27l130 -149c12.667 -14.667 21.5 -26.167 26.5 -34.5s7.5 -17.166 7.5 -26.499s-2.5 -18.166 -7.5 -26.499s-13.833 -19.833 -26.5 -34.5l-130 -149l-37 27zM408 262.998l-123 182.998l37 27l130 -149c12.667 -14.667 21.5 -26.167 26.5 -34.5
s7.5 -17.166 7.5 -26.499s-2.5 -18.166 -7.5 -26.499s-13.833 -19.833 -26.5 -34.5l-130 -149l-37 27z" />
    <glyph glyph-name="onequarter" unicode="&#xbc;" horiz-adv-x="980" 
d="M584 96c-2 6 -2.99902 12.6699 -2.99902 20.0029s0.666992 14.166 2 20.499s3.66602 14.166 6.99902 23.499l79 222c2 5.33301 4.16699 9.16602 6.5 11.499s6.5 3.5 12.5 3.5h53l-86 -246h106v106h68v-106h55v-55h-55v-96h-68v96h-177zM346.001 -13.9971h-76l353 711h76z
M334.001 348.003v-59.001h-228v59h85v279h-81v58c16.667 1.33301 35 2.33301 55 3s37.333 1 52 1c16 0 27.5 -2.66699 34.5 -8s10.5 -14.666 10.5 -27.999v-305h72z" />
    <glyph glyph-name="onehalf" unicode="&#xbd;" horiz-adv-x="980" 
d="M342 -14h-76l353 711h76zM331 349v-59.001h-228v59h85v279h-81v58c16.667 1.33301 35 2.33301 55 3s37.333 1 52 1c16 0 27.5 -2.66699 34.5 -8s10.5 -14.666 10.5 -27.999v-305h72zM684 59.999h130c1.33301 22 4 39.333 8 52h49v-101c0 -6.66699 -2 -10 -6 -10h-252
c-0.666992 3.33301 -1.16699 7.33301 -1.5 12s-0.5 8.66699 -0.5 12c0 14 2.5 26.333 7.5 37s15.833 25 32.5 43l77 87c19.333 22 33.833 40.5 43.5 55.5s14.5 31.5 14.5 49.5c0 15.333 -4.66699 27 -14 35c-12 10 -33.667 15 -65 15h-83v51
c15.333 2.66699 32.833 4.83398 52.5 6.50098s38.167 2.5 55.5 2.5c40 0 71.333 -9 94 -27s34 -42.333 34 -73c0 -13.333 -1.16699 -25.166 -3.5 -35.499s-7 -21.333 -14 -33s-16.667 -24.834 -29 -39.501s-28.5 -32.334 -48.5 -53.001z" />
    <glyph glyph-name="threequarters" unicode="&#xbe;" horiz-adv-x="980" 
d="M595 96c-2 6 -2.99902 12.6699 -2.99902 20.0029s0.666992 14.166 2 20.499s3.66602 14.166 6.99902 23.499l79 222c2 5.33301 4.16699 9.16602 6.5 11.499s6.5 3.5 12.5 3.5h53l-86 -246h106v106h68v-106h55v-55h-55v-96h-68v96h-177zM357.001 -13.9971h-76l353 711h76z
M159.001 626.003c-0.666992 -4 -1.83203 -10.0029 -3.49902 -18.0029s-3.16699 -14.667 -4.5 -20h-47v86c0 6.66699 2 10 6 10h251c1.33301 -6.66699 2 -13 2 -19c0 -11.333 -1.66699 -21.166 -5 -29.499s-10 -19.166 -20 -32.499l-65 -85
c32 -5.33301 56.833 -17.166 74.5 -35.499s26.5 -43.5 26.5 -75.5c0 -36.667 -11 -66.667 -33 -90c-26.667 -26.667 -66.334 -40 -119.001 -40c-6.66699 0 -14.667 0.333008 -24 1s-19 1.5 -29 2.5l-29 3c-9.33301 1 -17.333 2.16699 -24 3.5v50h89c39.333 0 66.333 7 81 21
c11.333 11.333 17 27.333 17 48c0 24.667 -7.66699 42 -23 52s-41.333 15 -78 15c-1.33301 5.33301 -2 11 -2 17c0 7.33301 1.5 14 4.5 20s8.16699 14 15.5 24l67 92h-128z" />
    <glyph glyph-name="questiondown" unicode="&#xbf;" horiz-adv-x="414" 
d="M370.003 -191.958c-9.33301 -2 -19.998 -3.99805 -31.9971 -5.99805s-24.498 -3.66699 -37.4971 -5s-25.998 -2.33301 -38.9971 -2.99902c-12.999 -0.666992 -25.165 -1 -36.498 -1c-34.665 0 -64.4971 4.16602 -89.4961 12.499
c-24.998 8.33301 -44.8301 19.499 -59.4961 33.498c-13.999 13.332 -24.998 29.3311 -32.9971 47.9971c-7.99902 18.665 -11.999 39.9971 -11.999 63.9961c0 17.999 1.5 34.498 4.5 49.4971c2.99902 14.999 8.16504 29.8311 15.498 44.4971
c7.33301 14.665 16.999 29.9971 28.998 45.9961s26.998 33.665 44.9971 52.998c17.999 19.999 32.3311 37.1641 42.9971 51.4961c10.666 14.333 18.999 27.332 24.999 38.998c5.99902 11.666 9.99902 22.832 11.999 33.498s3.33301 22.332 4 34.998h56.9961
c1.33301 -4.66699 2.5 -10 3.5 -15.999c1 -6 1.5 -11.666 1.5 -16.999c0 -11.999 -1.16699 -23.165 -3.5 -33.498s-5.99902 -20.666 -10.998 -30.999c-5 -10.333 -11.5 -21.332 -19.499 -32.998s-17.665 -24.832 -28.998 -39.498l-9.99902 -12.999
c-15.333 -19.999 -28.166 -37.3311 -38.499 -51.9971c-10.333 -14.665 -18.666 -28.1641 -24.999 -40.4971s-10.833 -24.166 -13.5 -35.499c-2.66602 -11.333 -3.99902 -22.999 -3.99902 -34.998c0 -29.998 8.99902 -52.3301 26.998 -66.9951
c11.999 -10 27.498 -16.666 46.4971 -19.999s41.1641 -5 66.4961 -5h112.993v-56.9961zM239.012 504.001c15.333 0 27.499 -4.16602 36.498 -12.499s13.499 -22.166 13.499 -41.499v-3.99902c0 -19.332 -4.5 -33.165 -13.499 -41.498s-21.165 -12.499 -36.498 -12.499h-7
c-15.332 0 -27.498 4.16602 -36.4971 12.499c-9 8.33301 -13.5 22.166 -13.5 41.498v3.99902c0 19.333 4.5 33.166 13.5 41.499c8.99902 8.33301 21.165 12.499 36.4971 12.499h7z" />
    <glyph glyph-name="Agrave" unicode="&#xc0;" horiz-adv-x="641" 
d="M443 205h-263l-44 -139h55v-66h-191v66h57l203 618h75c9.33301 0 15.5 -1.5 18.5 -4.5s6.16699 -8.5 9.5 -16.5l218 -597h56v-66h-207v66h61zM202 274h217l-114 320zM376 749l-182 132l32 44c6 8.66699 11.833 12.667 17.5 12s12.5 -4.66699 20.5 -12l143 -137z" />
    <glyph glyph-name="Aacute" unicode="&#xc1;" horiz-adv-x="641" 
d="M443 205h-263l-44 -139h55v-66h-191v66h57l203 618h75c9.33301 0 15.5 -1.5 18.5 -4.5s6.16699 -8.5 9.5 -16.5l218 -597h56v-66h-207v66h61zM202 274h217l-114 320zM214 788l143 137c8 7.33301 14.833 11.333 20.5 12s11.5 -3.33301 17.5 -12l32 -44l-182 -132z" />
    <glyph glyph-name="Acircumflex" unicode="&#xc2;" horiz-adv-x="641" 
d="M443 205h-263l-44 -139h55v-66h-191v66h57l203 618h75c9.33301 0 15.5 -1.5 18.5 -4.5s6.16699 -8.5 9.5 -16.5l218 -597h56v-66h-207v66h61zM202 274h217l-114 320zM313 923c12.667 0 22.332 -1.83301 28.999 -5.5s14.667 -11.5 24 -23.5l91 -111l-33 -28l-119 103
l-119 -103l-33 28l91 111c9.33301 12 17.333 19.833 24 23.5s16.334 5.5 29.001 5.5h16z" />
    <glyph glyph-name="Atilde" unicode="&#xc3;" horiz-adv-x="641" 
d="M443 205h-263l-44 -139h55v-66h-191v66h57l203 618h75c9.33301 0 15.5 -1.5 18.5 -4.5s6.16699 -8.5 9.5 -16.5l218 -597h56v-66h-207v66h61zM202 274h217l-114 320zM446 882c-1.33301 -32.667 -9.00293 -58.167 -23.0029 -76.5s-31.667 -27.5 -53 -27.5
c-13.333 0 -25.666 2 -36.999 6s-22.333 8.5 -33 13.5s-21.167 9.66699 -31.5 14s-20.833 6.5 -31.5 6.5c-10 0 -17.5 -2.66699 -22.5 -8s-9.16699 -15 -12.5 -29l-47 5c1.33301 32.667 9 58.167 23 76.5s31.667 27.5 53 27.5c12.667 0 24.834 -2.16699 36.501 -6.5
s22.834 -9 33.501 -14s21.167 -9.5 31.5 -13.5s20.833 -6 31.5 -6c10 0 17.5 2.66699 22.5 8s9.16699 15 12.5 29z" />
    <glyph glyph-name="Adieresis" unicode="&#xc4;" horiz-adv-x="641" 
d="M443 205h-263l-44 -139h55v-66h-191v66h57l203 618h75c9.33301 0 15.5 -1.5 18.5 -4.5s6.16699 -8.5 9.5 -16.5l218 -597h56v-66h-207v66h61zM202 274h217l-114 320zM201 777c-15.333 0 -27.833 4.16699 -37.5 12.5s-14.5 22.833 -14.5 43.5v2
c0 20.667 4.83301 35.167 14.5 43.5s22.167 12.5 37.5 12.5h6c15.333 0 27.833 -4.16699 37.5 -12.5s14.5 -22.833 14.5 -43.5v-2c0 -20.667 -4.83301 -35.167 -14.5 -43.5s-22.167 -12.5 -37.5 -12.5h-6zM401 777c-15.333 0 -27.833 4.16699 -37.5 12.5
s-14.5 22.833 -14.5 43.5v2c0 20.667 4.83301 35.167 14.5 43.5s22.167 12.5 37.5 12.5h6c15.333 0 27.833 -4.16699 37.5 -12.5s14.5 -22.833 14.5 -43.5v-2c0 -20.667 -4.83301 -35.167 -14.5 -43.5s-22.167 -12.5 -37.5 -12.5h-6z" />
    <glyph glyph-name="Aring" unicode="&#xc5;" horiz-adv-x="641" 
d="M443 205h-263l-44 -139h55v-66h-191v66h57l203 618h75c9.33301 0 15.5 -1.5 18.5 -4.5s6.16699 -8.5 9.5 -16.5l218 -597h56v-66h-207v66h61zM202 274h217l-114 320zM248 862c0 -22 3.5 -37.5 10.5 -46.5s21.833 -13.5 44.5 -13.5h3c22.667 0 37.5 4.5 44.5 13.5
s10.5 24.5 10.5 46.5s-3.5 37.5 -10.5 46.5s-21.833 13.5 -44.5 13.5h-3c-22.667 0 -37.5 -4.5 -44.5 -13.5s-10.5 -24.5 -10.5 -46.5zM189 864c0 38.667 9.66699 67.167 29 85.5s47.666 27.5 84.999 27.5h3c37.333 0 65.666 -9.16699 84.999 -27.5s29 -46.833 29 -85.5v-4
c0 -38.667 -9.66699 -67.167 -29 -85.5s-47.666 -27.5 -84.999 -27.5h-3c-37.333 0 -65.666 9.16699 -84.999 27.5s-29 46.833 -29 85.5v4z" />
    <glyph glyph-name="AE" unicode="&#xc6;" horiz-adv-x="925" 
d="M453 274v336l-191 -336h191zM540 618v-233.999h192c6.66699 0 11 -0.5 13 -1.5s3 -3.5 3 -7.5v-62h-208v-247h258c0 15.333 1.5 32 4.5 50s6.83301 33 11.5 45h59v-148c0 -4.66699 -1.33301 -8 -4 -10s-9 -3 -19 -3h-466v66h69v139h-230l-78 -139h55v-66h-196v66h57
l338 586c4 7.33301 7.66699 13.166 11 17.499s6.5 7.5 9.5 9.5s6.33301 3.33301 10 4s8.5 1 14.5 1h401c10 0 16.333 -1 19 -3s4 -5.33301 4 -10v-147h-59c-4.66699 12 -8.5 26.833 -11.5 44.5s-4.5 34.167 -4.5 49.5h-253z" />
    <glyph glyph-name="Ccedilla" unicode="&#xc7;" horiz-adv-x="579" 
d="M461 525c-1.33301 2.66699 -2.83301 7.83496 -4.5 15.502s-3.33398 16.167 -5.00098 25.5s-3 18.666 -4 27.999s-1.5 17 -1.5 23c-9.33301 1.33301 -20.666 2.5 -33.999 3.5s-27 1.5 -41 1.5c-75.333 0 -131.833 -22 -169.5 -66s-56.5 -115.333 -56.5 -214
c0 -103.333 20.667 -177 62 -221c21.333 -23.333 49.166 -39.333 83.499 -48s75.833 -13 124.5 -13h106v-61c-22.667 -4 -47 -7.16699 -73 -9.5s-47.667 -3.5 -65 -3.5c-6 0 -11.833 0.166992 -17.5 0.5s-11.167 0.5 -16.5 0.5v-6c0 -8.66699 3 -15.667 9 -21
s20.667 -12.333 44 -21c23.333 -9.33301 41.333 -19.833 54 -31.5s19 -29.167 19 -52.5c0 -15.333 -2.5 -28.5 -7.5 -39.5s-11.5 -20.5 -19.5 -28.5c-10.667 -10 -23.5 -17.167 -38.5 -21.5s-30.833 -6.5 -47.5 -6.5c-14 0 -28.667 1.16699 -44 3.5s-27.666 5.5 -36.999 9.5
v43h69c36.667 0 55 10.333 55 31c0 9.33301 -3.66699 16.666 -11 21.999s-21.333 12.333 -42 21c-24.667 10 -41.167 19.5 -49.5 28.5s-12.5 21.5 -12.5 37.5c0 12 3.66699 24.333 11 37c-72 11.333 -125.667 37 -161 77c-28 31.333 -49 70 -63 116s-21 98 -21 156
c0 59.333 7.33301 111.166 22 155.499s35.667 81.333 63 111s60 52 98 67s80.667 22.5 128 22.5c25.333 0 51 -1.66699 77 -5s47.667 -7.66602 65 -12.999c10.667 -2.66699 16 -9.66699 16 -21v-133h-64v0z" />
    <glyph glyph-name="Egrave" unicode="&#xc8;" horiz-adv-x="607" 
d="M62 0v66h69v552h-69v66h461c10 0 16.333 -1 19 -3s4 -5.33301 4 -10v-147h-59c-4.66699 12 -8.5 26.833 -11.5 44.5s-4.5 34.167 -4.5 49.5h-253v-234h192c6.66699 0 11 -0.5 13 -1.5s3 -3.5 3 -7.5v-62h-208v-247h258c0 15.333 1.5 32 4.5 50s6.83301 33 11.5 45h59
v-148c0 -4.66699 -1.33301 -8 -4 -10s-9 -3 -19 -3h-466zM379 749l-182 132l32 44c6 8.66699 11.833 12.667 17.5 12s12.5 -4.66699 20.5 -12l143 -137z" />
    <glyph glyph-name="Eacute" unicode="&#xc9;" horiz-adv-x="607" 
d="M62 0v66h69v552h-69v66h461c10 0 16.333 -1 19 -3s4 -5.33301 4 -10v-147h-59c-4.66699 12 -8.5 26.833 -11.5 44.5s-4.5 34.167 -4.5 49.5h-253v-234h192c6.66699 0 11 -0.5 13 -1.5s3 -3.5 3 -7.5v-62h-208v-247h258c0 15.333 1.5 32 4.5 50s6.83301 33 11.5 45h59
v-148c0 -4.66699 -1.33301 -8 -4 -10s-9 -3 -19 -3h-466zM217 788l143 137c8 7.33301 14.833 11.333 20.5 12s11.5 -3.33301 17.5 -12l32 -44l-182 -132z" />
    <glyph glyph-name="Ecircumflex" unicode="&#xca;" horiz-adv-x="607" 
d="M62 0v66h69v552h-69v66h461c10 0 16.333 -1 19 -3s4 -5.33301 4 -10v-147h-59c-4.66699 12 -8.5 26.833 -11.5 44.5s-4.5 34.167 -4.5 49.5h-253v-234h192c6.66699 0 11 -0.5 13 -1.5s3 -3.5 3 -7.5v-62h-208v-247h258c0 15.333 1.5 32 4.5 50s6.83301 33 11.5 45h59
v-148c0 -4.66699 -1.33301 -8 -4 -10s-9 -3 -19 -3h-466zM319 923c12.667 0 22.332 -1.83301 28.999 -5.5s14.667 -11.5 24 -23.5l91 -111l-33 -28l-119 103l-119 -103l-33 28l91 111c9.33301 12 17.333 19.833 24 23.5s16.334 5.5 29.001 5.5h16z" />
    <glyph glyph-name="Edieresis" unicode="&#xcb;" horiz-adv-x="607" 
d="M62 0v66h69v552h-69v66h461c10 0 16.333 -1 19 -3s4 -5.33301 4 -10v-147h-59c-4.66699 12 -8.5 26.833 -11.5 44.5s-4.5 34.167 -4.5 49.5h-253v-234h192c6.66699 0 11 -0.5 13 -1.5s3 -3.5 3 -7.5v-62h-208v-247h258c0 15.333 1.5 32 4.5 50s6.83301 33 11.5 45h59
v-148c0 -4.66699 -1.33301 -8 -4 -10s-9 -3 -19 -3h-466zM208 777c-15.333 0 -27.833 4.16699 -37.5 12.5s-14.5 22.833 -14.5 43.5v2c0 20.667 4.83301 35.167 14.5 43.5s22.167 12.5 37.5 12.5h6c15.333 0 27.833 -4.16699 37.5 -12.5s14.5 -22.833 14.5 -43.5v-2
c0 -20.667 -4.83301 -35.167 -14.5 -43.5s-22.167 -12.5 -37.5 -12.5h-6zM408 777c-15.333 0 -27.833 4.16699 -37.5 12.5s-14.5 22.833 -14.5 43.5v2c0 20.667 4.83301 35.167 14.5 43.5s22.167 12.5 37.5 12.5h6c15.333 0 27.833 -4.16699 37.5 -12.5
s14.5 -22.833 14.5 -43.5v-2c0 -20.667 -4.83301 -35.167 -14.5 -43.5s-22.167 -12.5 -37.5 -12.5h-6z" />
    <glyph glyph-name="Igrave" unicode="&#xcc;" horiz-adv-x="353" 
d="M133 618h-69v66h225v-66h-69v-552h69v-66h-225v66h69v552zM253 749l-182 132l32 44c6 8.66699 11.833 12.667 17.5 12s12.5 -4.66699 20.5 -12l143 -137z" />
    <glyph glyph-name="Iacute" unicode="&#xcd;" horiz-adv-x="353" 
d="M133 618h-69v66h225v-66h-69v-552h69v-66h-225v66h69v552zM71 788l143 137c8 7.33301 14.833 11.333 20.5 12s11.5 -3.33301 17.5 -12l32 -44l-182 -132z" />
    <glyph glyph-name="Icircumflex" unicode="&#xce;" horiz-adv-x="353" 
d="M133 618h-69v66h225v-66h-69v-552h69v-66h-225v66h69v552zM186 923c12.667 0 22.332 -1.83301 28.999 -5.5s14.667 -11.5 24 -23.5l91 -111l-33 -28l-119 103l-119 -103l-33 28l91 111c9.33301 12 17.333 19.833 24 23.5s16.334 5.5 29.001 5.5h16z" />
    <glyph glyph-name="Idieresis" unicode="&#xcf;" horiz-adv-x="353" 
d="M133 618h-69v66h225v-66h-69v-552h69v-66h-225v66h69v552zM75 777c-15.333 0 -27.833 4.16699 -37.5 12.5s-14.5 22.833 -14.5 43.5v2c0 20.667 4.83301 35.167 14.5 43.5s22.167 12.5 37.5 12.5h6c15.333 0 27.833 -4.16699 37.5 -12.5s14.5 -22.833 14.5 -43.5v-2
c0 -20.667 -4.83301 -35.167 -14.5 -43.5s-22.167 -12.5 -37.5 -12.5h-6zM275 777c-15.333 0 -27.833 4.16699 -37.5 12.5s-14.5 22.833 -14.5 43.5v2c0 20.667 4.83301 35.167 14.5 43.5s22.167 12.5 37.5 12.5h6c15.333 0 27.833 -4.16699 37.5 -12.5
s14.5 -22.833 14.5 -43.5v-2c0 -20.667 -4.83301 -35.167 -14.5 -43.5s-22.167 -12.5 -37.5 -12.5h-6z" />
    <glyph glyph-name="Eth" unicode="&#xd0;" horiz-adv-x="691" 
d="M50 370l88 11v237h-69v66h234c63.333 0 115 -6.33301 155 -19s73 -32.334 99 -59.001c52 -54 78 -140.667 78 -260c0 -126 -26 -216.333 -78 -271c-24.667 -25.333 -55.5 -44.166 -92.5 -56.499s-84.5 -18.5 -142.5 -18.5h-253v66h69v248h-88v56zM225 383h139.001v-69
h-139v-246h98c40 0 73.667 4.5 101 13.5s49.666 22.833 66.999 41.5c21.333 23.333 36 53.333 44 90s12 81 12 133c0 49.333 -4.66699 92 -14 128s-25 65 -47 87c-18.667 18.667 -42.167 32.5 -70.5 41.5s-65.5 13.5 -111.5 13.5h-79v-233z" />
    <glyph glyph-name="Ntilde" unicode="&#xd1;" horiz-adv-x="763" 
d="M154 684c15.333 0 26.5 -1.33301 33.5 -4s14.833 -10 23.5 -22l360 -510v470h-69v66h213v-66h-69v-618h-64l-376 537v-471h69v-66h-213v66h69v552h-69v66h92v0zM527 882c-1.33301 -32.667 -9.00293 -58.167 -23.0029 -76.5s-31.667 -27.5 -53 -27.5
c-13.333 0 -25.666 2 -36.999 6s-22.333 8.5 -33 13.5s-21.167 9.66699 -31.5 14s-20.833 6.5 -31.5 6.5c-10 0 -17.5 -2.66699 -22.5 -8s-9.16699 -15 -12.5 -29l-47 5c1.33301 32.667 9 58.167 23 76.5s31.667 27.5 53 27.5c12.667 0 24.834 -2.16699 36.501 -6.5
s22.834 -9 33.501 -14s21.167 -9.5 31.5 -13.5s20.833 -6 31.5 -6c10 0 17.5 2.66699 22.5 8s9.16699 15 12.5 29z" />
    <glyph glyph-name="Ograve" unicode="&#xd2;" horiz-adv-x="662" 
d="M331 65c34.667 0 63.834 6.33301 87.501 19s42.834 31 57.501 55s25.167 53 31.5 87s9.5 72.333 9.5 115s-3.16699 81 -9.5 115s-16.833 63 -31.5 87s-33.834 42.5 -57.501 55.5s-52.834 19.5 -87.501 19.5s-63.834 -6.5 -87.501 -19.5s-42.834 -31.5 -57.501 -55.5
s-25.167 -53 -31.5 -87s-9.5 -72.333 -9.5 -115s3.16699 -81 9.5 -115s16.833 -63 31.5 -87s33.834 -42.333 57.501 -55s52.834 -19 87.501 -19zM331 -14c-88.667 0 -156.667 29.667 -204 89s-71 148 -71 266s23.667 206.833 71 266.5s115.333 89.5 204 89.5
s156.667 -29.833 204 -89.5s71 -148.5 71 -266.5s-23.667 -206.667 -71 -266s-115.333 -89 -204 -89zM406 749l-182 132l32 44c6 8.66699 11.833 12.667 17.5 12s12.5 -4.66699 20.5 -12l143 -137z" />
    <glyph glyph-name="Oacute" unicode="&#xd3;" horiz-adv-x="662" 
d="M331 65c34.667 0 63.834 6.33301 87.501 19s42.834 31 57.501 55s25.167 53 31.5 87s9.5 72.333 9.5 115s-3.16699 81 -9.5 115s-16.833 63 -31.5 87s-33.834 42.5 -57.501 55.5s-52.834 19.5 -87.501 19.5s-63.834 -6.5 -87.501 -19.5s-42.834 -31.5 -57.501 -55.5
s-25.167 -53 -31.5 -87s-9.5 -72.333 -9.5 -115s3.16699 -81 9.5 -115s16.833 -63 31.5 -87s33.834 -42.333 57.501 -55s52.834 -19 87.501 -19zM331 -14c-88.667 0 -156.667 29.667 -204 89s-71 148 -71 266s23.667 206.833 71 266.5s115.333 89.5 204 89.5
s156.667 -29.833 204 -89.5s71 -148.5 71 -266.5s-23.667 -206.667 -71 -266s-115.333 -89 -204 -89zM224 788l143 137c8 7.33301 14.833 11.333 20.5 12s11.5 -3.33301 17.5 -12l32 -44l-182 -132z" />
    <glyph glyph-name="Ocircumflex" unicode="&#xd4;" horiz-adv-x="662" 
d="M331 65c34.667 0 63.834 6.33301 87.501 19s42.834 31 57.501 55s25.167 53 31.5 87s9.5 72.333 9.5 115s-3.16699 81 -9.5 115s-16.833 63 -31.5 87s-33.834 42.5 -57.501 55.5s-52.834 19.5 -87.501 19.5s-63.834 -6.5 -87.501 -19.5s-42.834 -31.5 -57.501 -55.5
s-25.167 -53 -31.5 -87s-9.5 -72.333 -9.5 -115s3.16699 -81 9.5 -115s16.833 -63 31.5 -87s33.834 -42.333 57.501 -55s52.834 -19 87.501 -19zM331 -14c-88.667 0 -156.667 29.667 -204 89s-71 148 -71 266s23.667 206.833 71 266.5s115.333 89.5 204 89.5
s156.667 -29.833 204 -89.5s71 -148.5 71 -266.5s-23.667 -206.667 -71 -266s-115.333 -89 -204 -89zM339 923c12.667 0 22.332 -1.83301 28.999 -5.5s14.667 -11.5 24 -23.5l91 -111l-33 -28l-119 103l-119 -103l-33 28l91 111c9.33301 12 17.333 19.833 24 23.5
s16.334 5.5 29.001 5.5h16z" />
    <glyph glyph-name="Otilde" unicode="&#xd5;" horiz-adv-x="662" 
d="M331 65c34.667 0 63.834 6.33301 87.501 19s42.834 31 57.501 55s25.167 53 31.5 87s9.5 72.333 9.5 115s-3.16699 81 -9.5 115s-16.833 63 -31.5 87s-33.834 42.5 -57.501 55.5s-52.834 19.5 -87.501 19.5s-63.834 -6.5 -87.501 -19.5s-42.834 -31.5 -57.501 -55.5
s-25.167 -53 -31.5 -87s-9.5 -72.333 -9.5 -115s3.16699 -81 9.5 -115s16.833 -63 31.5 -87s33.834 -42.333 57.501 -55s52.834 -19 87.501 -19zM331 -14c-88.667 0 -156.667 29.667 -204 89s-71 148 -71 266s23.667 206.833 71 266.5s115.333 89.5 204 89.5
s156.667 -29.833 204 -89.5s71 -148.5 71 -266.5s-23.667 -206.667 -71 -266s-115.333 -89 -204 -89zM476 882c-1.33301 -32.667 -9.00293 -58.167 -23.0029 -76.5s-31.667 -27.5 -53 -27.5c-13.333 0 -25.666 2 -36.999 6s-22.333 8.5 -33 13.5s-21.167 9.66699 -31.5 14
s-20.833 6.5 -31.5 6.5c-10 0 -17.5 -2.66699 -22.5 -8s-9.16699 -15 -12.5 -29l-47 5c1.33301 32.667 9 58.167 23 76.5s31.667 27.5 53 27.5c12.667 0 24.834 -2.16699 36.501 -6.5s22.834 -9 33.501 -14s21.167 -9.5 31.5 -13.5s20.833 -6 31.5 -6
c10 0 17.5 2.66699 22.5 8s9.16699 15 12.5 29z" />
    <glyph glyph-name="Odieresis" unicode="&#xd6;" horiz-adv-x="662" 
d="M331 65c34.667 0 63.834 6.33301 87.501 19s42.834 31 57.501 55s25.167 53 31.5 87s9.5 72.333 9.5 115s-3.16699 81 -9.5 115s-16.833 63 -31.5 87s-33.834 42.5 -57.501 55.5s-52.834 19.5 -87.501 19.5s-63.834 -6.5 -87.501 -19.5s-42.834 -31.5 -57.501 -55.5
s-25.167 -53 -31.5 -87s-9.5 -72.333 -9.5 -115s3.16699 -81 9.5 -115s16.833 -63 31.5 -87s33.834 -42.333 57.501 -55s52.834 -19 87.501 -19zM331 -14c-88.667 0 -156.667 29.667 -204 89s-71 148 -71 266s23.667 206.833 71 266.5s115.333 89.5 204 89.5
s156.667 -29.833 204 -89.5s71 -148.5 71 -266.5s-23.667 -206.667 -71 -266s-115.333 -89 -204 -89zM228 777c-15.333 0 -27.833 4.16699 -37.5 12.5s-14.5 22.833 -14.5 43.5v2c0 20.667 4.83301 35.167 14.5 43.5s22.167 12.5 37.5 12.5h6
c15.333 0 27.833 -4.16699 37.5 -12.5s14.5 -22.833 14.5 -43.5v-2c0 -20.667 -4.83301 -35.167 -14.5 -43.5s-22.167 -12.5 -37.5 -12.5h-6zM428 777c-15.333 0 -27.833 4.16699 -37.5 12.5s-14.5 22.833 -14.5 43.5v2c0 20.667 4.83301 35.167 14.5 43.5
s22.167 12.5 37.5 12.5h6c15.333 0 27.833 -4.16699 37.5 -12.5s14.5 -22.833 14.5 -43.5v-2c0 -20.667 -4.83301 -35.167 -14.5 -43.5s-22.167 -12.5 -37.5 -12.5h-6z" />
    <glyph glyph-name="multiply" unicode="&#xd7;" horiz-adv-x="508" 
d="M253 369l92 92l46 -46l-92 -92l92 -92l-46 -46l-92 92l-91 -91l-46 46l91 91l-91 91l46 46z" />
    <glyph glyph-name="Oslash" unicode="&#xd8;" horiz-adv-x="662" 
d="M331 -14c-32.667 0 -63.667 4.66699 -93 14l-26 -78h-62l35 101c-42 26 -74 65.5 -96 118.5s-33 119.5 -33 199.5c0 118 23.667 206.833 71 266.5s115.333 89.5 204 89.5c28.667 0 56 -3.66699 82 -11l27 77h61l-34 -98c45.333 -25.333 79.833 -64.833 103.5 -118.5
s35.5 -122.167 35.5 -205.5c0 -118 -23.667 -206.667 -71 -266s-115.333 -89 -204 -89zM331 65c34.667 0 63.833 6.33301 87.5 19s42.834 31 57.501 55s25.167 53 31.5 87s9.5 72.333 9.5 115c0 57.333 -5.83301 106.833 -17.5 148.5s-31.5 73.5 -59.5 95.5l-176 -510
c19.333 -6.66699 41.666 -10 66.999 -10zM144.999 341c0 -54 5.16895 -101 15.502 -141s27.833 -71.667 52.5 -95l174 506c-8.66699 2 -17.5 3.66699 -26.5 5s-18.833 2 -29.5 2c-34.667 0 -63.834 -6.5 -87.501 -19.5s-42.834 -31.5 -57.501 -55.5s-25.167 -53 -31.5 -87
s-9.5 -72.333 -9.5 -115z" />
    <glyph glyph-name="Ugrave" unicode="&#xd9;" horiz-adv-x="715" 
d="M461 618l-0.00292969 65.998h212v-66h-69v-386c0 -43.333 -5.5 -80.166 -16.5 -110.499s-27.167 -55.5 -48.5 -75.5s-47.166 -35 -77.499 -45s-63.833 -15 -100.5 -15c-42.667 0 -80.167 5.5 -112.5 16.5s-59.166 28.167 -80.499 51.5
c-19.333 20.667 -33.666 45.834 -42.999 75.501s-14 66.5 -14 110.5v378h-69v66h225v-66h-69v-375c0 -31.333 3 -57.833 9 -79.5s15.667 -39.5 29 -53.5c14 -15.333 31.667 -26.833 53 -34.5s47 -11.5 77 -11.5c54 0 95 14 123 42c13.333 14 23.5 31.333 30.5 52
s10.5 47 10.5 79v381h-69zM440.997 748.998l-182 132l32 44c6 8.66699 11.833 12.667 17.5 12s12.5 -4.66699 20.5 -12l143 -137z" />
    <glyph glyph-name="Uacute" unicode="&#xda;" horiz-adv-x="715" 
d="M461 618l-0.00292969 65.998h212v-66h-69v-386c0 -43.333 -5.5 -80.166 -16.5 -110.499s-27.167 -55.5 -48.5 -75.5s-47.166 -35 -77.499 -45s-63.833 -15 -100.5 -15c-42.667 0 -80.167 5.5 -112.5 16.5s-59.166 28.167 -80.499 51.5
c-19.333 20.667 -33.666 45.834 -42.999 75.501s-14 66.5 -14 110.5v378h-69v66h225v-66h-69v-375c0 -31.333 3 -57.833 9 -79.5s15.667 -39.5 29 -53.5c14 -15.333 31.667 -26.833 53 -34.5s47 -11.5 77 -11.5c54 0 95 14 123 42c13.333 14 23.5 31.333 30.5 52
s10.5 47 10.5 79v381h-69zM257.997 787.998l143 137c8 7.33301 14.833 11.333 20.5 12s11.5 -3.33301 17.5 -12l32 -44l-182 -132z" />
    <glyph glyph-name="Ucircumflex" unicode="&#xdb;" horiz-adv-x="715" 
d="M461 618l-0.00292969 65.998h212v-66h-69v-386c0 -43.333 -5.5 -80.166 -16.5 -110.499s-27.167 -55.5 -48.5 -75.5s-47.166 -35 -77.499 -45s-63.833 -15 -100.5 -15c-42.667 0 -80.167 5.5 -112.5 16.5s-59.166 28.167 -80.499 51.5
c-19.333 20.667 -33.666 45.834 -42.999 75.501s-14 66.5 -14 110.5v378h-69v66h225v-66h-69v-375c0 -31.333 3 -57.833 9 -79.5s15.667 -39.5 29 -53.5c14 -15.333 31.667 -26.833 53 -34.5s47 -11.5 77 -11.5c54 0 95 14 123 42c13.333 14 23.5 31.333 30.5 52
s10.5 47 10.5 79v381h-69zM372.997 922.998c12.667 0 22.332 -1.83301 28.999 -5.5s14.667 -11.5 24 -23.5l91 -111l-33 -28l-119 103l-119 -103l-33 28l91 111c9.33301 12 17.333 19.833 24 23.5s16.334 5.5 29.001 5.5h16z" />
    <glyph glyph-name="Udieresis" unicode="&#xdc;" horiz-adv-x="715" 
d="M461 618l-0.00292969 65.998h212v-66h-69v-386c0 -43.333 -5.5 -80.166 -16.5 -110.499s-27.167 -55.5 -48.5 -75.5s-47.166 -35 -77.499 -45s-63.833 -15 -100.5 -15c-42.667 0 -80.167 5.5 -112.5 16.5s-59.166 28.167 -80.499 51.5
c-19.333 20.667 -33.666 45.834 -42.999 75.501s-14 66.5 -14 110.5v378h-69v66h225v-66h-69v-375c0 -31.333 3 -57.833 9 -79.5s15.667 -39.5 29 -53.5c14 -15.333 31.667 -26.833 53 -34.5s47 -11.5 77 -11.5c54 0 95 14 123 42c13.333 14 23.5 31.333 30.5 52
s10.5 47 10.5 79v381h-69zM260.997 776.998c-15.333 0 -27.833 4.16699 -37.5 12.5s-14.5 22.833 -14.5 43.5v2c0 20.667 4.83301 35.167 14.5 43.5s22.167 12.5 37.5 12.5h6c15.333 0 27.833 -4.16699 37.5 -12.5s14.5 -22.833 14.5 -43.5v-2
c0 -20.667 -4.83301 -35.167 -14.5 -43.5s-22.167 -12.5 -37.5 -12.5h-6zM460.997 776.998c-15.333 0 -27.833 4.16699 -37.5 12.5s-14.5 22.833 -14.5 43.5v2c0 20.667 4.83301 35.167 14.5 43.5s22.167 12.5 37.5 12.5h6c15.333 0 27.833 -4.16699 37.5 -12.5
s14.5 -22.833 14.5 -43.5v-2c0 -20.667 -4.83301 -35.167 -14.5 -43.5s-22.167 -12.5 -37.5 -12.5h-6z" />
    <glyph glyph-name="Yacute" unicode="&#xdd;" horiz-adv-x="588" 
d="M4 618l-0.000976562 66h74c19.333 0 32.833 -2.33301 40.5 -7s14.834 -13 21.501 -25l161 -308l146 274h-53v66h190v-66h-55l-192 -342v-210h69v-66h-225v66h69v209l-186 343h-60zM204.999 788l143 137c8 7.33301 14.833 11.333 20.5 12s11.5 -3.33301 17.5 -12l32 -44
l-182 -132z" />
    <glyph glyph-name="Thorn" unicode="&#xde;" horiz-adv-x="604" 
d="M133 618h-69v66h225v-66h-69v-66h117c46 0 82.833 -3.5 110.5 -10.5s50.167 -18.833 67.5 -35.5c35.333 -33.333 53 -84.333 53 -153c0 -142.667 -69 -214 -207 -214c-25.333 0 -50.5 1.16699 -75.5 3.5s-46.833 4.83301 -65.5 7.5v-84h69v-66h-225v66h69v552zM220 486
l0.00195312 -277.996h106c30.667 0 55.5 2.66699 74.5 8s34.167 13.666 45.5 24.999s19.666 26.666 24.999 45.999s8 41.666 8 66.999c0 47.333 -11.667 81.666 -35 102.999c-11.333 10 -25.833 17.333 -43.5 22s-40.834 7 -69.501 7h-111z" />
    <glyph glyph-name="germandbls" unicode="&#xdf;" horiz-adv-x="629" 
d="M325 60c11.333 -2.66699 24.334 -4.82715 39.001 -6.49414s28.667 -2.5 42 -2.5c45.333 0 77 7.66699 95 23c17.333 14 26 32 26 54c0 12 -2 22.5 -6 31.5s-10.5 17.167 -19.5 24.5s-20.833 14.5 -35.5 21.5s-33 14.167 -55 21.5c-30 10 -54.833 20 -74.5 30
s-35.5 20.333 -47.5 31s-20.5 21.834 -25.5 33.501s-7.5 24.5 -7.5 38.5c0 23.333 7 44.333 21 63s37 39.334 69 62.001c28 19.333 47.5 36.166 58.5 50.499s16.5 31.166 16.5 50.499c0 24 -9.16699 42.833 -27.5 56.5s-41.5 20.5 -69.5 20.5c-41.333 0 -74 -11.333 -98 -34
c-28.667 -28 -43 -72.667 -43 -134v-495h-81v428h-85v48l85 15v17c0 36.667 5.66699 68.667 17 96s27.166 50.166 47.499 68.499s44.333 32 72 41s57.834 13.5 90.501 13.5c53.333 0 94.5 -12.833 123.5 -38.5s43.5 -57.834 43.5 -96.501c0 -22 -4 -41.167 -12 -57.5
s-18.167 -30.833 -30.5 -43.5s-25.666 -23.834 -39.999 -33.501s-27.666 -19.167 -39.999 -28.5s-22.5 -18.5 -30.5 -27.5s-12 -19.167 -12 -30.5c0 -8.66699 2 -16.167 6 -22.5s10.667 -12.5 20 -18.5s21.666 -12.167 36.999 -18.5s34.666 -13.833 57.999 -22.5
c24.667 -9.33301 46.5 -19 65.5 -29s34.833 -21.167 47.5 -33.5s22.167 -26.333 28.5 -42s9.5 -33.834 9.5 -54.501c0 -40.667 -15 -74 -45 -100c-33.333 -29.333 -83 -44 -149 -44c-25.333 0 -50.5 1.83301 -75.5 5.5s-46.5 8.16699 -64.5 13.5
c-10.667 3.33301 -16 10.666 -16 21.999v99h59c2.66699 -6.66699 5.16699 -16.834 7.5 -30.501s4.16602 -25.5 5.49902 -35.5z" />
    <glyph glyph-name="agrave" unicode="&#xe0;" horiz-adv-x="529" 
d="M358 232l-99.999 -0.000976562c-47.333 0 -80.666 -7.33301 -99.999 -22c-19.333 -14 -29 -36 -29 -66c0 -25.333 7.66699 -46.166 23 -62.499s41.666 -24.5 78.999 -24.5c20.667 0 42.167 1.83301 64.5 5.5s43.166 9.16699 62.499 16.5v153zM360.001 28.999
c-21.333 -12.667 -45 -22.998 -71 -30.998s-52.333 -12 -79 -12c-22.667 0 -43.834 3.16699 -63.501 9.5s-37 15.833 -52 28.5s-26.833 28.667 -35.5 48s-13 42 -13 68c0 44.667 13 80 39 106c32.667 33.333 87.334 50 164.001 50c18 0 36.167 -0.333008 54.5 -1
s36.5 -1.66699 54.5 -3v43c0 20 -1.83301 35.5 -5.5 46.5s-9.16699 20.167 -16.5 27.5c-8.66699 8 -20.334 13.5 -35.001 16.5s-33.667 4.5 -57 4.5h-152v52c26 7.33301 55.167 12.833 87.5 16.5s62.166 5.5 89.499 5.5c61.333 0 106.333 -15 135 -45
c12 -12.667 20.833 -27.834 26.5 -45.501s8.5 -39.834 8.5 -66.501v-286h66v-60c-17.333 -2 -33.666 -3.66699 -48.999 -5s-29.666 -2 -42.999 -2c-16.667 0 -29 3.16699 -37 9.5s-13.333 14.833 -16 25.5zM346.001 579.001l-182 132l32 44c6 8.66699 11.833 12.667 17.5 12
s12.5 -4.66699 20.5 -12l143 -137z" />
    <glyph glyph-name="aacute" unicode="&#xe1;" horiz-adv-x="529" 
d="M358 232l-99.999 -0.000976562c-47.333 0 -80.666 -7.33301 -99.999 -22c-19.333 -14 -29 -36 -29 -66c0 -25.333 7.66699 -46.166 23 -62.499s41.666 -24.5 78.999 -24.5c20.667 0 42.167 1.83301 64.5 5.5s43.166 9.16699 62.499 16.5v153zM360.001 28.999
c-21.333 -12.667 -45 -22.998 -71 -30.998s-52.333 -12 -79 -12c-22.667 0 -43.834 3.16699 -63.501 9.5s-37 15.833 -52 28.5s-26.833 28.667 -35.5 48s-13 42 -13 68c0 44.667 13 80 39 106c32.667 33.333 87.334 50 164.001 50c18 0 36.167 -0.333008 54.5 -1
s36.5 -1.66699 54.5 -3v43c0 20 -1.83301 35.5 -5.5 46.5s-9.16699 20.167 -16.5 27.5c-8.66699 8 -20.334 13.5 -35.001 16.5s-33.667 4.5 -57 4.5h-152v52c26 7.33301 55.167 12.833 87.5 16.5s62.166 5.5 89.499 5.5c61.333 0 106.333 -15 135 -45
c12 -12.667 20.833 -27.834 26.5 -45.501s8.5 -39.834 8.5 -66.501v-286h66v-60c-17.333 -2 -33.666 -3.66699 -48.999 -5s-29.666 -2 -42.999 -2c-16.667 0 -29 3.16699 -37 9.5s-13.333 14.833 -16 25.5zM173.001 618.001l143 137c8 7.33301 14.833 11.333 20.5 12
s11.5 -3.33301 17.5 -12l32 -44l-182 -132z" />
    <glyph glyph-name="acircumflex" unicode="&#xe2;" horiz-adv-x="529" 
d="M358 232l-99.999 -0.000976562c-47.333 0 -80.666 -7.33301 -99.999 -22c-19.333 -14 -29 -36 -29 -66c0 -25.333 7.66699 -46.166 23 -62.499s41.666 -24.5 78.999 -24.5c20.667 0 42.167 1.83301 64.5 5.5s43.166 9.16699 62.499 16.5v153zM360.001 28.999
c-21.333 -12.667 -45 -22.998 -71 -30.998s-52.333 -12 -79 -12c-22.667 0 -43.834 3.16699 -63.501 9.5s-37 15.833 -52 28.5s-26.833 28.667 -35.5 48s-13 42 -13 68c0 44.667 13 80 39 106c32.667 33.333 87.334 50 164.001 50c18 0 36.167 -0.333008 54.5 -1
s36.5 -1.66699 54.5 -3v43c0 20 -1.83301 35.5 -5.5 46.5s-9.16699 20.167 -16.5 27.5c-8.66699 8 -20.334 13.5 -35.001 16.5s-33.667 4.5 -57 4.5h-152v52c26 7.33301 55.167 12.833 87.5 16.5s62.166 5.5 89.499 5.5c61.333 0 106.333 -15 135 -45
c12 -12.667 20.833 -27.834 26.5 -45.501s8.5 -39.834 8.5 -66.501v-286h66v-60c-17.333 -2 -33.666 -3.66699 -48.999 -5s-29.666 -2 -42.999 -2c-16.667 0 -29 3.16699 -37 9.5s-13.333 14.833 -16 25.5zM266.001 753.001c12.667 0 22.332 -1.83301 28.999 -5.5
s14.667 -11.5 24 -23.5l91 -111l-33 -28l-119 103l-119 -103l-33 28l91 111c9.33301 12 17.333 19.833 24 23.5s16.334 5.5 29.001 5.5h16z" />
    <glyph glyph-name="atilde" unicode="&#xe3;" horiz-adv-x="529" 
d="M358 232l-99.999 -0.000976562c-47.333 0 -80.666 -7.33301 -99.999 -22c-19.333 -14 -29 -36 -29 -66c0 -25.333 7.66699 -46.166 23 -62.499s41.666 -24.5 78.999 -24.5c20.667 0 42.167 1.83301 64.5 5.5s43.166 9.16699 62.499 16.5v153zM360.001 28.999
c-21.333 -12.667 -45 -22.998 -71 -30.998s-52.333 -12 -79 -12c-22.667 0 -43.834 3.16699 -63.501 9.5s-37 15.833 -52 28.5s-26.833 28.667 -35.5 48s-13 42 -13 68c0 44.667 13 80 39 106c32.667 33.333 87.334 50 164.001 50c18 0 36.167 -0.333008 54.5 -1
s36.5 -1.66699 54.5 -3v43c0 20 -1.83301 35.5 -5.5 46.5s-9.16699 20.167 -16.5 27.5c-8.66699 8 -20.334 13.5 -35.001 16.5s-33.667 4.5 -57 4.5h-152v52c26 7.33301 55.167 12.833 87.5 16.5s62.166 5.5 89.499 5.5c61.333 0 106.333 -15 135 -45
c12 -12.667 20.833 -27.834 26.5 -45.501s8.5 -39.834 8.5 -66.501v-286h66v-60c-17.333 -2 -33.666 -3.66699 -48.999 -5s-29.666 -2 -42.999 -2c-16.667 0 -29 3.16699 -37 9.5s-13.333 14.833 -16 25.5zM400.001 712.001
c-1.33301 -32.667 -9.00293 -58.167 -23.0029 -76.5s-31.667 -27.5 -53 -27.5c-13.333 0 -25.666 2 -36.999 6s-22.333 8.5 -33 13.5s-21.167 9.66699 -31.5 14s-20.833 6.5 -31.5 6.5c-10 0 -17.5 -2.66699 -22.5 -8s-9.16699 -15 -12.5 -29l-47 5
c1.33301 32.667 9 58.167 23 76.5s31.667 27.5 53 27.5c12.667 0 24.834 -2.16699 36.501 -6.5s22.834 -9 33.501 -14s21.167 -9.5 31.5 -13.5s20.833 -6 31.5 -6c10 0 17.5 2.66699 22.5 8s9.16699 15 12.5 29z" />
    <glyph glyph-name="adieresis" unicode="&#xe4;" horiz-adv-x="529" 
d="M358 232l-99.999 -0.000976562c-47.333 0 -80.666 -7.33301 -99.999 -22c-19.333 -14 -29 -36 -29 -66c0 -25.333 7.66699 -46.166 23 -62.499s41.666 -24.5 78.999 -24.5c20.667 0 42.167 1.83301 64.5 5.5s43.166 9.16699 62.499 16.5v153zM360.001 28.999
c-21.333 -12.667 -45 -22.998 -71 -30.998s-52.333 -12 -79 -12c-22.667 0 -43.834 3.16699 -63.501 9.5s-37 15.833 -52 28.5s-26.833 28.667 -35.5 48s-13 42 -13 68c0 44.667 13 80 39 106c32.667 33.333 87.334 50 164.001 50c18 0 36.167 -0.333008 54.5 -1
s36.5 -1.66699 54.5 -3v43c0 20 -1.83301 35.5 -5.5 46.5s-9.16699 20.167 -16.5 27.5c-8.66699 8 -20.334 13.5 -35.001 16.5s-33.667 4.5 -57 4.5h-152v52c26 7.33301 55.167 12.833 87.5 16.5s62.166 5.5 89.499 5.5c61.333 0 106.333 -15 135 -45
c12 -12.667 20.833 -27.834 26.5 -45.501s8.5 -39.834 8.5 -66.501v-286h66v-60c-17.333 -2 -33.666 -3.66699 -48.999 -5s-29.666 -2 -42.999 -2c-16.667 0 -29 3.16699 -37 9.5s-13.333 14.833 -16 25.5zM158.001 607.001c-15.333 0 -27.833 4.16699 -37.5 12.5
s-14.5 22.833 -14.5 43.5v2c0 20.667 4.83301 35.167 14.5 43.5s22.167 12.5 37.5 12.5h6c15.333 0 27.833 -4.16699 37.5 -12.5s14.5 -22.833 14.5 -43.5v-2c0 -20.667 -4.83301 -35.167 -14.5 -43.5s-22.167 -12.5 -37.5 -12.5h-6zM358.001 607.001
c-15.333 0 -27.833 4.16699 -37.5 12.5s-14.5 22.833 -14.5 43.5v2c0 20.667 4.83301 35.167 14.5 43.5s22.167 12.5 37.5 12.5h6c15.333 0 27.833 -4.16699 37.5 -12.5s14.5 -22.833 14.5 -43.5v-2c0 -20.667 -4.83301 -35.167 -14.5 -43.5s-22.167 -12.5 -37.5 -12.5h-6z
" />
    <glyph glyph-name="aring" unicode="&#xe5;" horiz-adv-x="529" 
d="M358 232l-99.999 -0.000976562c-47.333 0 -80.666 -7.33301 -99.999 -22c-19.333 -14 -29 -36 -29 -66c0 -25.333 7.66699 -46.166 23 -62.499s41.666 -24.5 78.999 -24.5c20.667 0 42.167 1.83301 64.5 5.5s43.166 9.16699 62.499 16.5v153zM360.001 28.999
c-21.333 -12.667 -45 -22.998 -71 -30.998s-52.333 -12 -79 -12c-22.667 0 -43.834 3.16699 -63.501 9.5s-37 15.833 -52 28.5s-26.833 28.667 -35.5 48s-13 42 -13 68c0 44.667 13 80 39 106c32.667 33.333 87.334 50 164.001 50c18 0 36.167 -0.333008 54.5 -1
s36.5 -1.66699 54.5 -3v43c0 20 -1.83301 35.5 -5.5 46.5s-9.16699 20.167 -16.5 27.5c-8.66699 8 -20.334 13.5 -35.001 16.5s-33.667 4.5 -57 4.5h-152v52c26 7.33301 55.167 12.833 87.5 16.5s62.166 5.5 89.499 5.5c61.333 0 106.333 -15 135 -45
c12 -12.667 20.833 -27.834 26.5 -45.501s8.5 -39.834 8.5 -66.501v-286h66v-60c-17.333 -2 -33.666 -3.66699 -48.999 -5s-29.666 -2 -42.999 -2c-16.667 0 -29 3.16699 -37 9.5s-13.333 14.833 -16 25.5zM206.001 692.001c0 -22 3.5 -37.5 10.5 -46.5
s21.833 -13.5 44.5 -13.5h3c22.667 0 37.5 4.5 44.5 13.5s10.5 24.5 10.5 46.5s-3.5 37.5 -10.5 46.5s-21.833 13.5 -44.5 13.5h-3c-22.667 0 -37.5 -4.5 -44.5 -13.5s-10.5 -24.5 -10.5 -46.5zM147.001 694.001c0 38.667 9.66699 67.167 29 85.5s47.666 27.5 84.999 27.5h3
c37.333 0 65.666 -9.16699 84.999 -27.5s29 -46.833 29 -85.5v-4c0 -38.667 -9.66699 -67.167 -29 -85.5s-47.666 -27.5 -84.999 -27.5h-3c-37.333 0 -65.666 9.16699 -84.999 27.5s-29 46.833 -29 85.5v4z" />
    <glyph glyph-name="ae" unicode="&#xe6;" horiz-adv-x="816" 
d="M437 220c1.33301 -26.667 4.83398 -49.8359 10.501 -69.5029s15.167 -36.167 28.5 -49.5c14 -15.333 32.667 -26.5 56 -33.5s55 -10.5 95 -10.5h124v-50c-21.333 -6 -46 -11 -74 -15s-54.667 -6 -80 -6c-40.667 0 -76 5.16699 -106 15.5s-54.333 25.166 -73 44.499
c-30 -19.333 -61.333 -34.166 -94 -44.499s-68.334 -15.5 -107.001 -15.5c-55.333 0 -97.666 13.5 -126.999 40.5s-44 64.833 -44 113.5c0 44.667 13 80 39 106c32.667 33.333 87.334 50 164.001 50c18 0 36.167 -0.333008 54.5 -1s36.5 -1.66699 54.5 -3v43
c0 20 -1.83301 35.5 -5.5 46.5s-9.16699 20.167 -16.5 27.5c-8.66699 8 -20.334 13.5 -35.001 16.5s-33.667 4.5 -57 4.5h-152v52c26 7.33301 55.167 12.833 87.5 16.5s62.166 5.5 89.499 5.5c34 0 63.5 -4.66699 88.5 -14s45.167 -25.666 60.5 -48.999
c17.333 20 38.5 35.5 63.5 46.5s53.5 16.5 85.5 16.5c32.667 0 61.667 -5.66699 87 -17s46.5 -27.666 63.5 -48.999s30 -47.166 39 -77.499s13.5 -64.5 13.5 -102.5v-29c0 -6 -3.66699 -9 -11 -9h-322zM242.001 56.998c24.667 0 49.6641 3.50293 74.9971 10.5029
s48.333 15.5 69 25.5c-9.33301 19.333 -16.166 40.666 -20.499 63.999s-6.83301 48.333 -7.5 75h-100c-47.333 0 -80.666 -7.33301 -99.999 -22c-19.333 -14 -29 -36 -29 -66c0 -12.667 1.66699 -24.334 5 -35.001s9.33301 -19.834 18 -27.501s20.334 -13.667 35.001 -18
s33 -6.5 55 -6.5zM692.998 284.001c-3.33301 48 -14.999 85.333 -34.999 112s-50.333 40 -91 40c-22 0 -40.833 -4 -56.5 -12s-28.834 -19 -39.501 -33s-18.667 -30.167 -24 -48.5s-8.33301 -37.833 -9 -58.5h255z" />
    <glyph glyph-name="ccedilla" unicode="&#xe7;" horiz-adv-x="465" 
d="M425 6c-19.333 -5.33301 -41.833 -10 -67.5 -14s-48.834 -6 -69.501 -6c-4.66699 0 -9.16699 0.166992 -13.5 0.5s-8.83301 0.5 -13.5 0.5v-6c0 -8.66699 3 -15.667 9 -21s20.667 -12.333 44 -21c23.333 -9.33301 41.333 -19.833 54 -31.5s19 -29.167 19 -52.5
c0 -15.333 -2.5 -28.5 -7.5 -39.5s-11.5 -20.5 -19.5 -28.5c-10.667 -10 -23.5 -17.167 -38.5 -21.5s-30.833 -6.5 -47.5 -6.5c-14 0 -28.667 1.16699 -44 3.5s-27.666 5.5 -36.999 9.5v43h69c36.667 0 55 10.333 55 31c0 9.33301 -3.66699 16.666 -11 21.999
s-21.333 12.333 -42 21c-24.667 10 -41.167 19.5 -49.5 28.5s-12.5 21.5 -12.5 37.5c0 14 4 27 12 39c-44.667 10 -80.667 30.333 -108 61c-20 22 -35.5 49.167 -46.5 81.5s-16.5 68.833 -16.5 109.5c0 42.667 6.16699 80.334 18.5 113.001s29.166 59.667 50.499 81
c20.667 21.333 46.5 37.333 77.5 48s64.5 16 100.5 16c23.333 0 45.333 -1.5 66 -4.5s38.667 -6.16699 54 -9.5c6.66699 -1.33301 11 -3.5 13 -6.5s3 -7.83301 3 -14.5v-111h-62c-1.33301 2.66699 -2.66602 7.16699 -3.99902 13.5s-2.83301 13 -4.5 20s-3 14.167 -4 21.5
s-1.5 14 -1.5 20c-16 2 -32.333 3 -49 3c-28 0 -52.667 -3.16699 -74 -9.5s-39 -16.833 -53 -31.5c-14.667 -15.333 -26.167 -35.333 -34.5 -60s-12.5 -54 -12.5 -88c0 -26.667 3 -53 9 -79s17.333 -47.667 34 -65c16 -16.667 36.333 -28.5 61 -35.5s55 -10.5 91 -10.5h103
v-51z" />
    <glyph glyph-name="egrave" unicode="&#xe8;" horiz-adv-x="506" 
d="M127 220c1.33301 -26.667 4.83301 -49.835 10.5 -69.502s15.167 -36.167 28.5 -49.5c14 -15.333 32.667 -26.5 56 -33.5s55 -10.5 95 -10.5h124v-50c-21.333 -6 -46 -11 -74 -15s-54.667 -6 -80 -6c-42 0 -78 5.5 -108 16.5s-54.333 26.5 -73 46.5
c-21.333 23.333 -37.166 51.666 -47.499 84.999s-15.5 70.666 -15.5 111.999c0 38 4.66699 72.833 14 104.5s23.166 58.834 41.499 81.501s40.833 40.334 67.5 53.001s57 19 91 19c32.667 0 61.667 -5.66699 87 -17s46.5 -27.666 63.5 -48.999s30 -47.166 39 -77.499
s13.5 -64.5 13.5 -102.5v-29c0 -6 -3.66699 -9 -11 -9h-322zM383 283.999c-3.33301 48 -14.999 85.333 -34.999 112s-50.333 40 -91 40c-22 0 -40.833 -4 -56.5 -12s-28.834 -19 -39.501 -33s-18.667 -30.167 -24 -48.5s-8.33301 -37.833 -9 -58.5h255zM340.001 578.999
l-182 132l32 44c6 8.66699 11.833 12.667 17.5 12s12.5 -4.66699 20.5 -12l143 -137z" />
    <glyph glyph-name="eacute" unicode="&#xe9;" horiz-adv-x="506" 
d="M127 220c1.33301 -26.667 4.83301 -49.835 10.5 -69.502s15.167 -36.167 28.5 -49.5c14 -15.333 32.667 -26.5 56 -33.5s55 -10.5 95 -10.5h124v-50c-21.333 -6 -46 -11 -74 -15s-54.667 -6 -80 -6c-42 0 -78 5.5 -108 16.5s-54.333 26.5 -73 46.5
c-21.333 23.333 -37.166 51.666 -47.499 84.999s-15.5 70.666 -15.5 111.999c0 38 4.66699 72.833 14 104.5s23.166 58.834 41.499 81.501s40.833 40.334 67.5 53.001s57 19 91 19c32.667 0 61.667 -5.66699 87 -17s46.5 -27.666 63.5 -48.999s30 -47.166 39 -77.499
s13.5 -64.5 13.5 -102.5v-29c0 -6 -3.66699 -9 -11 -9h-322zM383 283.999c-3.33301 48 -14.999 85.333 -34.999 112s-50.333 40 -91 40c-22 0 -40.833 -4 -56.5 -12s-28.834 -19 -39.501 -33s-18.667 -30.167 -24 -48.5s-8.33301 -37.833 -9 -58.5h255zM152.001 617.999
l143 137c8 7.33301 14.833 11.333 20.5 12s11.5 -3.33301 17.5 -12l32 -44l-182 -132z" />
    <glyph glyph-name="ecircumflex" unicode="&#xea;" horiz-adv-x="506" 
d="M127 220c1.33301 -26.667 4.83301 -49.835 10.5 -69.502s15.167 -36.167 28.5 -49.5c14 -15.333 32.667 -26.5 56 -33.5s55 -10.5 95 -10.5h124v-50c-21.333 -6 -46 -11 -74 -15s-54.667 -6 -80 -6c-42 0 -78 5.5 -108 16.5s-54.333 26.5 -73 46.5
c-21.333 23.333 -37.166 51.666 -47.499 84.999s-15.5 70.666 -15.5 111.999c0 38 4.66699 72.833 14 104.5s23.166 58.834 41.499 81.501s40.833 40.334 67.5 53.001s57 19 91 19c32.667 0 61.667 -5.66699 87 -17s46.5 -27.666 63.5 -48.999s30 -47.166 39 -77.499
s13.5 -64.5 13.5 -102.5v-29c0 -6 -3.66699 -9 -11 -9h-322zM383 283.999c-3.33301 48 -14.999 85.333 -34.999 112s-50.333 40 -91 40c-22 0 -40.833 -4 -56.5 -12s-28.834 -19 -39.501 -33s-18.667 -30.167 -24 -48.5s-8.33301 -37.833 -9 -58.5h255zM267.001 752.999
c12.667 0 22.332 -1.83301 28.999 -5.5s14.667 -11.5 24 -23.5l91 -111l-33 -28l-119 103l-119 -103l-33 28l91 111c9.33301 12 17.333 19.833 24 23.5s16.334 5.5 29.001 5.5h16z" />
    <glyph glyph-name="edieresis" unicode="&#xeb;" horiz-adv-x="506" 
d="M127 220c1.33301 -26.667 4.83301 -49.835 10.5 -69.502s15.167 -36.167 28.5 -49.5c14 -15.333 32.667 -26.5 56 -33.5s55 -10.5 95 -10.5h124v-50c-21.333 -6 -46 -11 -74 -15s-54.667 -6 -80 -6c-42 0 -78 5.5 -108 16.5s-54.333 26.5 -73 46.5
c-21.333 23.333 -37.166 51.666 -47.499 84.999s-15.5 70.666 -15.5 111.999c0 38 4.66699 72.833 14 104.5s23.166 58.834 41.499 81.501s40.833 40.334 67.5 53.001s57 19 91 19c32.667 0 61.667 -5.66699 87 -17s46.5 -27.666 63.5 -48.999s30 -47.166 39 -77.499
s13.5 -64.5 13.5 -102.5v-29c0 -6 -3.66699 -9 -11 -9h-322zM383 283.999c-3.33301 48 -14.999 85.333 -34.999 112s-50.333 40 -91 40c-22 0 -40.833 -4 -56.5 -12s-28.834 -19 -39.501 -33s-18.667 -30.167 -24 -48.5s-8.33301 -37.833 -9 -58.5h255zM155.001 606.999
c-15.333 0 -27.833 4.16699 -37.5 12.5s-14.5 22.833 -14.5 43.5v2c0 20.667 4.83301 35.167 14.5 43.5s22.167 12.5 37.5 12.5h6c15.333 0 27.833 -4.16699 37.5 -12.5s14.5 -22.833 14.5 -43.5v-2c0 -20.667 -4.83301 -35.167 -14.5 -43.5s-22.167 -12.5 -37.5 -12.5h-6z
M355.001 606.999c-15.333 0 -27.833 4.16699 -37.5 12.5s-14.5 22.833 -14.5 43.5v2c0 20.667 4.83301 35.167 14.5 43.5s22.167 12.5 37.5 12.5h6c15.333 0 27.833 -4.16699 37.5 -12.5s14.5 -22.833 14.5 -43.5v-2c0 -20.667 -4.83301 -35.167 -14.5 -43.5
s-22.167 -12.5 -37.5 -12.5h-6z" />
    <glyph glyph-name="igrave" unicode="&#xec;" horiz-adv-x="256" 
d="M180 0l-81 -0.00195312v428h-70v60c5.33301 0.666992 12.333 1.33398 21 2.00098l26.5 2c9 0.666992 17.667 1.16699 26 1.5s15.5 0.5 21.5 0.5c20.667 0 35.667 -4.66699 45 -14c7.33301 -7.33301 11 -20.666 11 -39.999v-440zM189 578.998l-182 132l32 44
c6 8.66699 11.833 12.667 17.5 12s12.5 -4.66699 20.5 -12l143 -137z" />
    <glyph glyph-name="iacute" unicode="&#xed;" horiz-adv-x="256" 
d="M180 0l-81 -0.00195312v428h-70v60c5.33301 0.666992 12.333 1.33398 21 2.00098l26.5 2c9 0.666992 17.667 1.16699 26 1.5s15.5 0.5 21.5 0.5c20.667 0 35.667 -4.66699 45 -14c7.33301 -7.33301 11 -20.666 11 -39.999v-440zM31 617.998l143 137
c8 7.33301 14.833 11.333 20.5 12s11.5 -3.33301 17.5 -12l32 -44l-182 -132z" />
    <glyph glyph-name="icircumflex" unicode="&#xee;" horiz-adv-x="256" 
d="M180 0l-81 -0.00195312v428h-70v60c5.33301 0.666992 12.333 1.33398 21 2.00098l26.5 2c9 0.666992 17.667 1.16699 26 1.5s15.5 0.5 21.5 0.5c20.667 0 35.667 -4.66699 45 -14c7.33301 -7.33301 11 -20.666 11 -39.999v-440zM134 752.998
c12.667 0 22.332 -1.83301 28.999 -5.5s14.667 -11.5 24 -23.5l91 -111l-33 -28l-119 103l-119 -103l-33 28l91 111c9.33301 12 17.333 19.833 24 23.5s16.334 5.5 29.001 5.5h16z" />
    <glyph glyph-name="idieresis" unicode="&#xef;" horiz-adv-x="256" 
d="M180 0l-81 -0.00195312v428h-70v60c5.33301 0.666992 12.333 1.33398 21 2.00098l26.5 2c9 0.666992 17.667 1.16699 26 1.5s15.5 0.5 21.5 0.5c20.667 0 35.667 -4.66699 45 -14c7.33301 -7.33301 11 -20.666 11 -39.999v-440zM23 606.998
c-15.333 0 -27.833 4.16699 -37.5 12.5s-14.5 22.833 -14.5 43.5v2c0 20.667 4.83301 35.167 14.5 43.5s22.167 12.5 37.5 12.5h6c15.333 0 27.833 -4.16699 37.5 -12.5s14.5 -22.833 14.5 -43.5v-2c0 -20.667 -4.83301 -35.167 -14.5 -43.5s-22.167 -12.5 -37.5 -12.5h-6z
M223 606.998c-15.333 0 -27.833 4.16699 -37.5 12.5s-14.5 22.833 -14.5 43.5v2c0 20.667 4.83301 35.167 14.5 43.5s22.167 12.5 37.5 12.5h6c15.333 0 27.833 -4.16699 37.5 -12.5s14.5 -22.833 14.5 -43.5v-2c0 -20.667 -4.83301 -35.167 -14.5 -43.5
s-22.167 -12.5 -37.5 -12.5h-6z" />
    <glyph glyph-name="eth" unicode="&#xf0;" horiz-adv-x="542" 
d="M195 613l74.0029 59c-10.667 13.333 -21.667 26.166 -33 38.499l-35 37.5l36 34l40.5 -36c13 -12 25.5 -24.333 37.5 -37l88 71l34 -42l-86 -69c48 -56.667 84.167 -117.167 108.5 -181.5s36.5 -135.833 36.5 -214.5c0 -42 -4.66699 -80.667 -14 -116
s-23.5 -65.666 -42.5 -90.999s-42.667 -45.166 -71 -59.499s-61.5 -21.5 -99.5 -21.5c-36.667 0 -68.834 6.16699 -96.501 18.5s-50.834 29.5 -69.501 51.5s-32.834 48 -42.501 78s-14.5 62.667 -14.5 98c0 38 5.16699 71.833 15.5 101.5s25 54.667 44 75
s41.333 35.666 67 45.999s54.167 15.5 85.5 15.5c20 0 41.833 -2.33301 65.5 -7s46.167 -10.667 67.5 -18c-18.667 64 -48.667 125.667 -90 185l-72 -58zM413.003 283c0 34.667 -2.99902 68.999 -8.99902 102.999c-18.667 4.66699 -38.667 8.5 -60 11.5
s-41.666 4.5 -60.999 4.5c-28 0 -51.833 -4 -71.5 -12s-35.5 -19.333 -47.5 -34s-20.833 -32.5 -26.5 -53.5s-8.5 -44.833 -8.5 -71.5c0 -24.667 3 -47.667 9 -69s14.667 -40 26 -56s25.666 -28.5 42.999 -37.5s37.666 -13.5 60.999 -13.5c50 0 86.667 19.833 110 59.5
s35 95.834 35 168.501z" />
    <glyph glyph-name="ntilde" unicode="&#xf1;" horiz-adv-x="587" 
d="M561 61l-0.000976562 -59.999c-5.33301 -0.666992 -12 -1.33398 -20 -2.00098l-24.5 -2c-8.33301 -0.666992 -16.5 -1.16699 -24.5 -1.5s-15 -0.5 -21 -0.5c-20.667 0 -35.667 4.66699 -45 14c-7.33301 7.33301 -11 20.666 -11 39.999v276
c0 20.667 -1.66699 37.5 -5 50.5s-9 23.5 -17 31.5s-18.833 13.667 -32.5 17s-29.834 5 -48.501 5s-39.5 -1.66699 -62.5 -5s-47.167 -8 -72.5 -14v-410h-81v428h-68v59c17.333 2 34 3.66699 50 5s30.667 2 44 2c16.667 0 29 -2.33301 37 -7s13.667 -12.667 17 -24
c24.667 12 50.834 21.833 78.501 29.5s55.5 11.5 83.5 11.5s52.333 -3.83301 73 -11.5s37.334 -18.167 50.001 -31.5s21.667 -29.166 27 -47.499s8 -41.5 8 -69.5v-283h65zM459.999 712.001c-1.33301 -32.667 -9.00293 -58.167 -23.0029 -76.5s-31.667 -27.5 -53 -27.5
c-13.333 0 -25.666 2 -36.999 6s-22.333 8.5 -33 13.5s-21.167 9.66699 -31.5 14s-20.833 6.5 -31.5 6.5c-10 0 -17.5 -2.66699 -22.5 -8s-9.16699 -15 -12.5 -29l-47 5c1.33301 32.667 9 58.167 23 76.5s31.667 27.5 53 27.5c12.667 0 24.834 -2.16699 36.501 -6.5
s22.834 -9 33.501 -14s21.167 -9.5 31.5 -13.5s20.833 -6 31.5 -6c10 0 17.5 2.66699 22.5 8s9.16699 15 12.5 29z" />
    <glyph glyph-name="ograve" unicode="&#xf2;" horiz-adv-x="534" 
d="M491 245c0 -80.667 -19 -144 -57 -190s-93.667 -69 -167 -69s-129 23 -167 69s-57 109.333 -57 190s19 144 57 190s93.667 69 167 69s129 -23 167 -69s57 -109.333 57 -190zM407 245c0 60.667 -10.667 107 -32 139s-57.333 48 -108 48s-86.667 -16 -108 -48
s-32 -78.333 -32 -139s10.667 -107 32 -139s57.333 -48 108 -48s86.667 16 108 48s32 78.333 32 139zM342 579l-182 132l32 44c6 8.66699 11.833 12.667 17.5 12s12.5 -4.66699 20.5 -12l143 -137z" />
    <glyph glyph-name="oacute" unicode="&#xf3;" horiz-adv-x="534" 
d="M491 245c0 -80.667 -19 -144 -57 -190s-93.667 -69 -167 -69s-129 23 -167 69s-57 109.333 -57 190s19 144 57 190s93.667 69 167 69s129 -23 167 -69s57 -109.333 57 -190zM407 245c0 60.667 -10.667 107 -32 139s-57.333 48 -108 48s-86.667 -16 -108 -48
s-32 -78.333 -32 -139s10.667 -107 32 -139s57.333 -48 108 -48s86.667 16 108 48s32 78.333 32 139zM166 618l143 137c8 7.33301 14.833 11.333 20.5 12s11.5 -3.33301 17.5 -12l32 -44l-182 -132z" />
    <glyph glyph-name="ocircumflex" unicode="&#xf4;" horiz-adv-x="534" 
d="M491 245c0 -80.667 -19 -144 -57 -190s-93.667 -69 -167 -69s-129 23 -167 69s-57 109.333 -57 190s19 144 57 190s93.667 69 167 69s129 -23 167 -69s57 -109.333 57 -190zM407 245c0 60.667 -10.667 107 -32 139s-57.333 48 -108 48s-86.667 -16 -108 -48
s-32 -78.333 -32 -139s10.667 -107 32 -139s57.333 -48 108 -48s86.667 16 108 48s32 78.333 32 139zM275 753c12.667 0 22.332 -1.83301 28.999 -5.5s14.667 -11.5 24 -23.5l91 -111l-33 -28l-119 103l-119 -103l-33 28l91 111c9.33301 12 17.333 19.833 24 23.5
s16.334 5.5 29.001 5.5h16z" />
    <glyph glyph-name="otilde" unicode="&#xf5;" horiz-adv-x="534" 
d="M491 245c0 -80.667 -19 -144 -57 -190s-93.667 -69 -167 -69s-129 23 -167 69s-57 109.333 -57 190s19 144 57 190s93.667 69 167 69s129 -23 167 -69s57 -109.333 57 -190zM407 245c0 60.667 -10.667 107 -32 139s-57.333 48 -108 48s-86.667 -16 -108 -48
s-32 -78.333 -32 -139s10.667 -107 32 -139s57.333 -48 108 -48s86.667 16 108 48s32 78.333 32 139zM412 712c-1.33301 -32.667 -9.00293 -58.167 -23.0029 -76.5s-31.667 -27.5 -53 -27.5c-13.333 0 -25.666 2 -36.999 6s-22.333 8.5 -33 13.5s-21.167 9.66699 -31.5 14
s-20.833 6.5 -31.5 6.5c-10 0 -17.5 -2.66699 -22.5 -8s-9.16699 -15 -12.5 -29l-47 5c1.33301 32.667 9 58.167 23 76.5s31.667 27.5 53 27.5c12.667 0 24.834 -2.16699 36.501 -6.5s22.834 -9 33.501 -14s21.167 -9.5 31.5 -13.5s20.833 -6 31.5 -6
c10 0 17.5 2.66699 22.5 8s9.16699 15 12.5 29z" />
    <glyph glyph-name="odieresis" unicode="&#xf6;" horiz-adv-x="534" 
d="M491 245c0 -80.667 -19 -144 -57 -190s-93.667 -69 -167 -69s-129 23 -167 69s-57 109.333 -57 190s19 144 57 190s93.667 69 167 69s129 -23 167 -69s57 -109.333 57 -190zM407 245c0 60.667 -10.667 107 -32 139s-57.333 48 -108 48s-86.667 -16 -108 -48
s-32 -78.333 -32 -139s10.667 -107 32 -139s57.333 -48 108 -48s86.667 16 108 48s32 78.333 32 139zM164 607c-15.333 0 -27.833 4.16699 -37.5 12.5s-14.5 22.833 -14.5 43.5v2c0 20.667 4.83301 35.167 14.5 43.5s22.167 12.5 37.5 12.5h6
c15.333 0 27.833 -4.16699 37.5 -12.5s14.5 -22.833 14.5 -43.5v-2c0 -20.667 -4.83301 -35.167 -14.5 -43.5s-22.167 -12.5 -37.5 -12.5h-6zM364 607c-15.333 0 -27.833 4.16699 -37.5 12.5s-14.5 22.833 -14.5 43.5v2c0 20.667 4.83301 35.167 14.5 43.5
s22.167 12.5 37.5 12.5h6c15.333 0 27.833 -4.16699 37.5 -12.5s14.5 -22.833 14.5 -43.5v-2c0 -20.667 -4.83301 -35.167 -14.5 -43.5s-22.167 -12.5 -37.5 -12.5h-6z" />
    <glyph glyph-name="divide" unicode="&#xf7;" horiz-adv-x="508" 
d="M92 291v65h324v-65h-324zM251 101c-15.333 0 -27.5 4.16699 -36.5 12.5s-13.5 22.166 -13.5 41.499v2c0 19.333 4.5 33.166 13.5 41.499s21.167 12.5 36.5 12.5h5c15.333 0 27.5 -4.16699 36.5 -12.5s13.5 -22.166 13.5 -41.499v-2c0 -19.333 -4.5 -33.166 -13.5 -41.499
s-21.167 -12.5 -36.5 -12.5h-5zM251 436c-15.333 0 -27.5 4.16699 -36.5 12.5s-13.5 22.166 -13.5 41.499v2c0 19.333 4.5 33.166 13.5 41.499s21.167 12.5 36.5 12.5h5c15.333 0 27.5 -4.16699 36.5 -12.5s13.5 -22.166 13.5 -41.499v-2
c0 -19.333 -4.5 -33.166 -13.5 -41.499s-21.167 -12.5 -36.5 -12.5h-5z" />
    <glyph glyph-name="oslash" unicode="&#xf8;" horiz-adv-x="534" 
d="M491 245c0 -80.667 -19 -143.999 -57 -189.999s-93.667 -69 -167 -69c-20.667 0 -40 2 -58 6l-26 -76h-60l33 94c-38 19.333 -66.333 49 -85 89s-28 88.667 -28 146c0 80.667 19 144 57 190s93.667 69 167 69c10.667 0 21 -0.666992 31 -2s19.667 -3 29 -5l27 77h59
l-34 -96c37.333 -19.333 65.333 -48.833 84 -88.5s28 -87.834 28 -144.501zM127 245.001c0 -38.667 4.16797 -71.667 12.501 -99s22.166 -48.333 41.499 -63l122 346c-11.333 2 -23.333 3 -36 3c-50.667 0 -86.667 -16 -108 -48s-32 -78.333 -32 -139zM407.001 245.001
c0 38 -4.16699 70.333 -12.5 97s-21.833 47.667 -40.5 63l-121 -344c10.667 -2 22 -3 34 -3c50.667 0 86.667 16 108 48s32 78.333 32 139z" />
    <glyph glyph-name="ugrave" unicode="&#xf9;" horiz-adv-x="583" 
d="M172 165c0 -40 7.33398 -67.332 22.001 -81.999c8 -8 18.833 -13.667 32.5 -17s29.834 -5 48.501 -5s39 1.5 61 4.5s45.333 7.83301 70 14.5v348h-65v62h146v-429h68v-58c-17.333 -2 -34 -3.66699 -50 -5s-30.667 -2 -44 -2c-16.667 0 -29 3 -37 9s-13.333 13.333 -16 22
c-24.667 -12 -50.334 -21.833 -77.001 -29.5s-54 -11.5 -82 -11.5s-52.333 3.83301 -73 11.5s-37.334 18.167 -50.001 31.5s-21.667 29.166 -27 47.499s-8 41.5 -8 69.5v282h-65v60c11.333 1.33301 26.333 2.66602 45 3.99902s33.667 2 45 2
c20.667 0 35.667 -4.66699 45 -14c7.33301 -7.33301 11 -20.666 11 -39.999v-275zM345.001 579.001l-182 132l32 44c6 8.66699 11.833 12.667 17.5 12s12.5 -4.66699 20.5 -12l143 -137z" />
    <glyph glyph-name="uacute" unicode="&#xfa;" horiz-adv-x="583" 
d="M172 165c0 -40 7.33398 -67.332 22.001 -81.999c8 -8 18.833 -13.667 32.5 -17s29.834 -5 48.501 -5s39 1.5 61 4.5s45.333 7.83301 70 14.5v348h-65v62h146v-429h68v-58c-17.333 -2 -34 -3.66699 -50 -5s-30.667 -2 -44 -2c-16.667 0 -29 3 -37 9s-13.333 13.333 -16 22
c-24.667 -12 -50.334 -21.833 -77.001 -29.5s-54 -11.5 -82 -11.5s-52.333 3.83301 -73 11.5s-37.334 18.167 -50.001 31.5s-21.667 29.166 -27 47.499s-8 41.5 -8 69.5v282h-65v60c11.333 1.33301 26.333 2.66602 45 3.99902s33.667 2 45 2
c20.667 0 35.667 -4.66699 45 -14c7.33301 -7.33301 11 -20.666 11 -39.999v-275zM203.001 618.001l143 137c8 7.33301 14.833 11.333 20.5 12s11.5 -3.33301 17.5 -12l32 -44l-182 -132z" />
    <glyph glyph-name="ucircumflex" unicode="&#xfb;" horiz-adv-x="583" 
d="M172 165c0 -40 7.33398 -67.332 22.001 -81.999c8 -8 18.833 -13.667 32.5 -17s29.834 -5 48.501 -5s39 1.5 61 4.5s45.333 7.83301 70 14.5v348h-65v62h146v-429h68v-58c-17.333 -2 -34 -3.66699 -50 -5s-30.667 -2 -44 -2c-16.667 0 -29 3 -37 9s-13.333 13.333 -16 22
c-24.667 -12 -50.334 -21.833 -77.001 -29.5s-54 -11.5 -82 -11.5s-52.333 3.83301 -73 11.5s-37.334 18.167 -50.001 31.5s-21.667 29.166 -27 47.499s-8 41.5 -8 69.5v282h-65v60c11.333 1.33301 26.333 2.66602 45 3.99902s33.667 2 45 2
c20.667 0 35.667 -4.66699 45 -14c7.33301 -7.33301 11 -20.666 11 -39.999v-275zM298.001 753.001c12.667 0 22.332 -1.83301 28.999 -5.5s14.667 -11.5 24 -23.5l91 -111l-33 -28l-119 103l-119 -103l-33 28l91 111c9.33301 12 17.333 19.833 24 23.5
s16.334 5.5 29.001 5.5h16z" />
    <glyph glyph-name="udieresis" unicode="&#xfc;" horiz-adv-x="583" 
d="M172 165c0 -40 7.33398 -67.332 22.001 -81.999c8 -8 18.833 -13.667 32.5 -17s29.834 -5 48.501 -5s39 1.5 61 4.5s45.333 7.83301 70 14.5v348h-65v62h146v-429h68v-58c-17.333 -2 -34 -3.66699 -50 -5s-30.667 -2 -44 -2c-16.667 0 -29 3 -37 9s-13.333 13.333 -16 22
c-24.667 -12 -50.334 -21.833 -77.001 -29.5s-54 -11.5 -82 -11.5s-52.333 3.83301 -73 11.5s-37.334 18.167 -50.001 31.5s-21.667 29.166 -27 47.499s-8 41.5 -8 69.5v282h-65v60c11.333 1.33301 26.333 2.66602 45 3.99902s33.667 2 45 2
c20.667 0 35.667 -4.66699 45 -14c7.33301 -7.33301 11 -20.666 11 -39.999v-275zM178.001 607.001c-15.333 0 -27.833 4.16699 -37.5 12.5s-14.5 22.833 -14.5 43.5v2c0 20.667 4.83301 35.167 14.5 43.5s22.167 12.5 37.5 12.5h6c15.333 0 27.833 -4.16699 37.5 -12.5
s14.5 -22.833 14.5 -43.5v-2c0 -20.667 -4.83301 -35.167 -14.5 -43.5s-22.167 -12.5 -37.5 -12.5h-6zM378.001 607.001c-15.333 0 -27.833 4.16699 -37.5 12.5s-14.5 22.833 -14.5 43.5v2c0 20.667 4.83301 35.167 14.5 43.5s22.167 12.5 37.5 12.5h6
c15.333 0 27.833 -4.16699 37.5 -12.5s14.5 -22.833 14.5 -43.5v-2c0 -20.667 -4.83301 -35.167 -14.5 -43.5s-22.167 -12.5 -37.5 -12.5h-6z" />
    <glyph glyph-name="yacute" unicode="&#xfd;" horiz-adv-x="564" 
d="M173 165c0 -40 7.33301 -67.3311 22 -81.998c8 -8 18.833 -13.667 32.5 -17s29.834 -5 48.501 -5s39 1.5 61 4.5s45.333 7.83301 70 14.5v348h-65v62h146v-524c0 -38 -4.16699 -69.5 -12.5 -94.5s-20.5 -45.833 -36.5 -62.5c-31.333 -32 -81 -48 -149 -48
c-18 0 -38 1.16699 -60 3.5s-41.667 5.16602 -59 8.49902v56h94c54.667 0 92 10 112 30c11.333 11.333 19.166 25.833 23.499 43.5s6.5 41.5 6.5 71.5v52c-24.667 -12 -50.167 -21.667 -76.5 -29s-53.166 -11 -80.499 -11c-28 0 -52.333 3.83301 -73 11.5
s-37.334 18.167 -50.001 31.5s-21.667 29.166 -27 47.499s-8 41.5 -8 69.5v282h-65v60c11.333 1.33301 26.333 2.66602 45 3.99902s33.667 2 45 2c20.667 0 35.667 -4.66699 45 -14c7.33301 -7.33301 11 -20.666 11 -39.999v-275zM190 618.002l143 137
c8 7.33301 14.833 11.333 20.5 12s11.5 -3.33301 17.5 -12l32 -44l-182 -132z" />
    <glyph glyph-name="thorn" unicode="&#xfe;" horiz-adv-x="539" 
d="M284 430c-17.333 0 -36.3311 -2.16602 -56.998 -6.49902s-41 -9.16602 -61 -14.499v-326c17.333 -7.33301 37 -13 59 -17s42 -6 60 -6c20.667 0 38.667 3.16699 54 9.5s28.166 16.666 38.499 30.999s18.166 33.666 23.499 57.999s8 54.5 8 90.5
c0 65.333 -10.833 111.833 -32.5 139.5s-52.5 41.5 -92.5 41.5zM166.002 464.001c21.333 12 43.6689 21.6641 67.002 28.9971s47.666 11 72.999 11c60.667 0 107 -22.833 139 -68.5s48 -108.167 48 -187.5c0 -82.667 -15.833 -147 -47.5 -193s-78.5 -69 -140.5 -69
c-23.333 0 -47 3.33301 -71 10s-46.667 16.334 -68 29.001v-250h-81v883h-68v60c5.33301 0.666992 12.166 1.33398 20.499 2.00098l25.5 2c8.66699 0.666992 17.167 1.16699 25.5 1.5s15.5 0.5 21.5 0.5c20.667 0 35.667 -4.66699 45 -14
c7.33301 -7.33301 11 -20.666 11 -39.999v-206z" />
    <glyph glyph-name="ydieresis" unicode="&#xff;" horiz-adv-x="564" 
d="M173 165c0 -40 7.33301 -67.3311 22 -81.998c8 -8 18.833 -13.667 32.5 -17s29.834 -5 48.501 -5s39 1.5 61 4.5s45.333 7.83301 70 14.5v348h-65v62h146v-524c0 -38 -4.16699 -69.5 -12.5 -94.5s-20.5 -45.833 -36.5 -62.5c-31.333 -32 -81 -48 -149 -48
c-18 0 -38 1.16699 -60 3.5s-41.667 5.16602 -59 8.49902v56h94c54.667 0 92 10 112 30c11.333 11.333 19.166 25.833 23.499 43.5s6.5 41.5 6.5 71.5v52c-24.667 -12 -50.167 -21.667 -76.5 -29s-53.166 -11 -80.499 -11c-28 0 -52.333 3.83301 -73 11.5
s-37.334 18.167 -50.001 31.5s-21.667 29.166 -27 47.499s-8 41.5 -8 69.5v282h-65v60c11.333 1.33301 26.333 2.66602 45 3.99902s33.667 2 45 2c20.667 0 35.667 -4.66699 45 -14c7.33301 -7.33301 11 -20.666 11 -39.999v-275zM179 607.002
c-15.333 0 -27.833 4.16699 -37.5 12.5s-14.5 22.833 -14.5 43.5v2c0 20.667 4.83301 35.167 14.5 43.5s22.167 12.5 37.5 12.5h6c15.333 0 27.833 -4.16699 37.5 -12.5s14.5 -22.833 14.5 -43.5v-2c0 -20.667 -4.83301 -35.167 -14.5 -43.5s-22.167 -12.5 -37.5 -12.5h-6z
M379 607.002c-15.333 0 -27.833 4.16699 -37.5 12.5s-14.5 22.833 -14.5 43.5v2c0 20.667 4.83301 35.167 14.5 43.5s22.167 12.5 37.5 12.5h6c15.333 0 27.833 -4.16699 37.5 -12.5s14.5 -22.833 14.5 -43.5v-2c0 -20.667 -4.83301 -35.167 -14.5 -43.5
s-22.167 -12.5 -37.5 -12.5h-6z" />
    <glyph glyph-name="Amacron" unicode="&#x100;" horiz-adv-x="641" 
d="M443 205h-263l-44 -139h55v-66h-191v66h57l203 618h75c9.33301 0 15.5 -1.5 18.5 -4.5s6.16699 -8.5 9.5 -16.5l218 -597h56v-66h-207v66h61zM202 274h217l-114 320zM170 798v70h270v-70h-270z" />
    <glyph glyph-name="amacron" unicode="&#x101;" horiz-adv-x="529" 
d="M358 232l-99.999 -0.000976562c-47.333 0 -80.666 -7.33301 -99.999 -22c-19.333 -14 -29 -36 -29 -66c0 -25.333 7.66699 -46.166 23 -62.499s41.666 -24.5 78.999 -24.5c20.667 0 42.167 1.83301 64.5 5.5s43.166 9.16699 62.499 16.5v153zM360.001 28.999
c-21.333 -12.667 -45 -22.998 -71 -30.998s-52.333 -12 -79 -12c-22.667 0 -43.834 3.16699 -63.501 9.5s-37 15.833 -52 28.5s-26.833 28.667 -35.5 48s-13 42 -13 68c0 44.667 13 80 39 106c32.667 33.333 87.334 50 164.001 50c18 0 36.167 -0.333008 54.5 -1
s36.5 -1.66699 54.5 -3v43c0 20 -1.83301 35.5 -5.5 46.5s-9.16699 20.167 -16.5 27.5c-8.66699 8 -20.334 13.5 -35.001 16.5s-33.667 4.5 -57 4.5h-152v52c26 7.33301 55.167 12.833 87.5 16.5s62.166 5.5 89.499 5.5c61.333 0 106.333 -15 135 -45
c12 -12.667 20.833 -27.834 26.5 -45.501s8.5 -39.834 8.5 -66.501v-286h66v-60c-17.333 -2 -33.666 -3.66699 -48.999 -5s-29.666 -2 -42.999 -2c-16.667 0 -29 3.16699 -37 9.5s-13.333 14.833 -16 25.5zM129.001 618.001v70h270v-70h-270z" />
    <glyph glyph-name="Abreve" unicode="&#x102;" horiz-adv-x="641" 
d="M443 205h-263l-44 -139h55v-66h-191v66h57l203 618h75c9.33301 0 15.5 -1.5 18.5 -4.5s6.16699 -8.5 9.5 -16.5l218 -597h56v-66h-207v66h61zM202 274h217l-114 320zM307 755c-24 0 -44.502 3.66699 -61.502 11s-30.667 17.333 -41 30s-18.166 27.334 -23.499 44.001
s-8.66602 34.667 -9.99902 54l52 6c4 -27.333 12.667 -47.5 26 -60.5s32.666 -19.5 57.999 -19.5s44.666 6.5 57.999 19.5s22 33.167 26 60.5l52 -6c-1.33301 -19.333 -4.66602 -37.333 -9.99902 -54s-13.166 -31.334 -23.499 -44.001s-24 -22.667 -41 -30
s-37.5 -11 -61.5 -11z" />
    <glyph glyph-name="abreve" unicode="&#x103;" horiz-adv-x="529" 
d="M358 232l-99.999 -0.000976562c-47.333 0 -80.666 -7.33301 -99.999 -22c-19.333 -14 -29 -36 -29 -66c0 -25.333 7.66699 -46.166 23 -62.499s41.666 -24.5 78.999 -24.5c20.667 0 42.167 1.83301 64.5 5.5s43.166 9.16699 62.499 16.5v153zM360.001 28.999
c-21.333 -12.667 -45 -22.998 -71 -30.998s-52.333 -12 -79 -12c-22.667 0 -43.834 3.16699 -63.501 9.5s-37 15.833 -52 28.5s-26.833 28.667 -35.5 48s-13 42 -13 68c0 44.667 13 80 39 106c32.667 33.333 87.334 50 164.001 50c18 0 36.167 -0.333008 54.5 -1
s36.5 -1.66699 54.5 -3v43c0 20 -1.83301 35.5 -5.5 46.5s-9.16699 20.167 -16.5 27.5c-8.66699 8 -20.334 13.5 -35.001 16.5s-33.667 4.5 -57 4.5h-152v52c26 7.33301 55.167 12.833 87.5 16.5s62.166 5.5 89.499 5.5c61.333 0 106.333 -15 135 -45
c12 -12.667 20.833 -27.834 26.5 -45.501s8.5 -39.834 8.5 -66.501v-286h66v-60c-17.333 -2 -33.666 -3.66699 -48.999 -5s-29.666 -2 -42.999 -2c-16.667 0 -29 3.16699 -37 9.5s-13.333 14.833 -16 25.5zM264.001 585.001c-24 0 -44.502 3.66699 -61.502 11
s-30.667 17.333 -41 30s-18.166 27.334 -23.499 44.001s-8.66602 34.667 -9.99902 54l52 6c4 -27.333 12.667 -47.5 26 -60.5s32.666 -19.5 57.999 -19.5s44.666 6.5 57.999 19.5s22 33.167 26 60.5l52 -6c-1.33301 -19.333 -4.66602 -37.333 -9.99902 -54
s-13.166 -31.334 -23.499 -44.001s-24 -22.667 -41 -30s-37.5 -11 -61.5 -11z" />
    <glyph glyph-name="Aogonek" unicode="&#x104;" horiz-adv-x="641" 
d="M438 -121c0 22 5.16504 43.335 15.498 64.002s23.833 39.667 40.5 57h-64v66h61l-48 139h-263l-44 -139h55v-66h-191v66h57l203 618h75c9.33301 0 15.5 -1.5 18.5 -4.5s6.16699 -8.5 9.5 -16.5l218 -597h56v-66h-89c-13.333 -18.667 -23.666 -37.834 -30.999 -57.501
s-11 -38.5 -11 -56.5c0 -19.333 5.83301 -34.5 17.5 -45.5s33.5 -16.5 65.5 -16.5h41v-46c-11.333 -3.33301 -23.666 -5.83301 -36.999 -7.5s-26 -2.5 -38 -2.5c-36 0 -64.5 9.66699 -85.5 29s-31.5 46.666 -31.5 81.999zM201.998 274.002h217l-114 320z" />
    <glyph glyph-name="aogonek" unicode="&#x105;" horiz-adv-x="529" 
d="M313 -121c0 24.667 6.66992 47.6699 20.0029 69.0029s30 38.666 50 51.999c-6.66699 2.66699 -11.834 6.66699 -15.501 12s-6.16699 11 -7.5 17c-21.333 -12.667 -45 -23 -71 -31s-52.333 -12 -79 -12c-22.667 0 -43.834 3.16699 -63.501 9.5s-37 15.833 -52 28.5
s-26.833 28.667 -35.5 48s-13 42 -13 68c0 44.667 13 80 39 106c32.667 33.333 87.334 50 164.001 50c18 0 36.167 -0.333008 54.5 -1s36.5 -1.66699 54.5 -3v43c0 20 -1.83301 35.5 -5.5 46.5s-9.16699 20.167 -16.5 27.5c-8.66699 8 -20.334 13.5 -35.001 16.5
s-33.667 4.5 -57 4.5h-152v52c26 7.33301 55.167 12.833 87.5 16.5s62.166 5.5 89.499 5.5c61.333 0 106.333 -15 135 -45c12 -12.667 20.833 -27.834 26.5 -45.501s8.5 -39.834 8.5 -66.501v-286h66v-60c-22.667 -1.33301 -41.834 -6 -57.501 -14s-28.5 -17.667 -38.5 -29
s-17.167 -23.5 -21.5 -36.5s-6.5 -24.833 -6.5 -35.5c0 -19.333 5.83301 -34.5 17.5 -45.5s33.5 -16.5 65.5 -16.5h41v-46c-11.333 -3.33301 -23.666 -5.83301 -36.999 -7.5s-26 -2.5 -38 -2.5c-36 0 -64.5 9.5 -85.5 28.5s-31.5 46.5 -31.5 82.5zM358.003 232.003
l-99.999 -0.000976562c-47.333 0 -80.666 -7.33301 -99.999 -22c-19.333 -14 -29 -36 -29 -66c0 -25.333 7.66699 -46.166 23 -62.499s41.666 -24.5 78.999 -24.5c20.667 0 42.167 1.83301 64.5 5.5s43.166 9.16699 62.499 16.5v153z" />
    <glyph glyph-name="Cacute" unicode="&#x106;" horiz-adv-x="579" 
d="M461 525c-1.33301 2.66699 -2.83203 7.83398 -4.49902 15.501s-3.33398 16.167 -5.00098 25.5s-3 18.666 -4 27.999s-1.5 17 -1.5 23c-9.33301 1.33301 -20.666 2.5 -33.999 3.5s-27 1.5 -41 1.5c-75.333 0 -131.833 -22 -169.5 -66s-56.5 -115.333 -56.5 -214
c0 -103.333 20.667 -177 62 -221c21.333 -23.333 49.166 -39.333 83.499 -48s75.833 -13 124.5 -13h106v-61c-22.667 -4 -47 -7.16699 -73 -9.5s-47.667 -3.5 -65 -3.5c-112.667 0 -193.667 27.667 -243 83c-28 31.333 -49 70 -63 116s-21 98 -21 156
c0 59.333 7.33301 111.166 22 155.499s35.667 81.333 63 111s60 52 98 67s80.667 22.5 128 22.5c25.333 0 51 -1.66699 77 -5s47.667 -7.66602 65 -12.999c10.667 -2.66699 16 -9.66699 16 -21v-133h-64v0zM254.001 788l143 137c8 7.33301 14.833 11.333 20.5 12
s11.5 -3.33301 17.5 -12l32 -44l-182 -132z" />
    <glyph glyph-name="cacute" unicode="&#x107;" horiz-adv-x="465" 
d="M425 6c-19.333 -5.33301 -41.832 -10.001 -67.499 -14.001s-48.834 -6 -69.501 -6c-79.333 0 -140 23 -182 69c-20 22 -35.5 49.167 -46.5 81.5s-16.5 68.833 -16.5 109.5c0 42.667 6.16699 80.334 18.5 113.001s29.166 59.667 50.499 81
c20.667 21.333 46.5 37.333 77.5 48s64.5 16 100.5 16c23.333 0 45.333 -1.5 66 -4.5s38.667 -6.16699 54 -9.5c6.66699 -1.33301 11 -3.5 13 -6.5s3 -7.83301 3 -14.5v-111h-62c-1.33301 2.66699 -2.66602 7.16699 -3.99902 13.5s-2.83301 13 -4.5 20s-3 14.167 -4 21.5
s-1.5 14 -1.5 20c-16 2 -32.333 3 -49 3c-28 0 -52.667 -3.16699 -74 -9.5s-39 -16.833 -53 -31.5c-14.667 -15.333 -26.167 -35.333 -34.5 -60s-12.5 -54 -12.5 -88c0 -26.667 3 -53 9 -79s17.333 -47.667 34 -65c16 -16.667 36.333 -28.5 61 -35.5s55 -10.5 91 -10.5h103
v-51zM186.001 617.999l143 137c8 7.33301 14.833 11.333 20.5 12s11.5 -3.33301 17.5 -12l32 -44l-182 -132z" />
    <glyph glyph-name="Ccircumflex" unicode="&#x108;" horiz-adv-x="579" 
d="M461 525c-1.33301 2.66699 -2.83203 7.83398 -4.49902 15.501s-3.33398 16.167 -5.00098 25.5s-3 18.666 -4 27.999s-1.5 17 -1.5 23c-9.33301 1.33301 -20.666 2.5 -33.999 3.5s-27 1.5 -41 1.5c-75.333 0 -131.833 -22 -169.5 -66s-56.5 -115.333 -56.5 -214
c0 -103.333 20.667 -177 62 -221c21.333 -23.333 49.166 -39.333 83.499 -48s75.833 -13 124.5 -13h106v-61c-22.667 -4 -47 -7.16699 -73 -9.5s-47.667 -3.5 -65 -3.5c-112.667 0 -193.667 27.667 -243 83c-28 31.333 -49 70 -63 116s-21 98 -21 156
c0 59.333 7.33301 111.166 22 155.499s35.667 81.333 63 111s60 52 98 67s80.667 22.5 128 22.5c25.333 0 51 -1.66699 77 -5s47.667 -7.66602 65 -12.999c10.667 -2.66699 16 -9.66699 16 -21v-133h-64v0zM357.001 923c12.667 0 22.332 -1.83301 28.999 -5.5
s14.667 -11.5 24 -23.5l91 -111l-33 -28l-119 103l-119 -103l-33 28l91 111c9.33301 12 17.333 19.833 24 23.5s16.334 5.5 29.001 5.5h16z" />
    <glyph glyph-name="ccircumflex" unicode="&#x109;" horiz-adv-x="465" 
d="M425 6c-19.333 -5.33301 -41.832 -10.001 -67.499 -14.001s-48.834 -6 -69.501 -6c-79.333 0 -140 23 -182 69c-20 22 -35.5 49.167 -46.5 81.5s-16.5 68.833 -16.5 109.5c0 42.667 6.16699 80.334 18.5 113.001s29.166 59.667 50.499 81
c20.667 21.333 46.5 37.333 77.5 48s64.5 16 100.5 16c23.333 0 45.333 -1.5 66 -4.5s38.667 -6.16699 54 -9.5c6.66699 -1.33301 11 -3.5 13 -6.5s3 -7.83301 3 -14.5v-111h-62c-1.33301 2.66699 -2.66602 7.16699 -3.99902 13.5s-2.83301 13 -4.5 20s-3 14.167 -4 21.5
s-1.5 14 -1.5 20c-16 2 -32.333 3 -49 3c-28 0 -52.667 -3.16699 -74 -9.5s-39 -16.833 -53 -31.5c-14.667 -15.333 -26.167 -35.333 -34.5 -60s-12.5 -54 -12.5 -88c0 -26.667 3 -53 9 -79s17.333 -47.667 34 -65c16 -16.667 36.333 -28.5 61 -35.5s55 -10.5 91 -10.5h103
v-51zM284.001 752.999c12.667 0 22.332 -1.83301 28.999 -5.5s14.667 -11.5 24 -23.5l91 -111l-33 -28l-119 103l-119 -103l-33 28l91 111c9.33301 12 17.333 19.833 24 23.5s16.334 5.5 29.001 5.5h16z" />
    <glyph glyph-name="Cdotaccent" unicode="&#x10a;" horiz-adv-x="579" 
d="M461 525c-1.33301 2.66699 -2.83203 7.83398 -4.49902 15.501s-3.33398 16.167 -5.00098 25.5s-3 18.666 -4 27.999s-1.5 17 -1.5 23c-9.33301 1.33301 -20.666 2.5 -33.999 3.5s-27 1.5 -41 1.5c-75.333 0 -131.833 -22 -169.5 -66s-56.5 -115.333 -56.5 -214
c0 -103.333 20.667 -177 62 -221c21.333 -23.333 49.166 -39.333 83.499 -48s75.833 -13 124.5 -13h106v-61c-22.667 -4 -47 -7.16699 -73 -9.5s-47.667 -3.5 -65 -3.5c-112.667 0 -193.667 27.667 -243 83c-28 31.333 -49 70 -63 116s-21 98 -21 156
c0 59.333 7.33301 111.166 22 155.499s35.667 81.333 63 111s60 52 98 67s80.667 22.5 128 22.5c25.333 0 51 -1.66699 77 -5s47.667 -7.66602 65 -12.999c10.667 -2.66699 16 -9.66699 16 -21v-133h-64v0zM356.001 777c-15.333 0 -27.833 4.16699 -37.5 12.5
s-14.5 22.833 -14.5 43.5v2c0 20.667 4.83301 35.167 14.5 43.5s22.167 12.5 37.5 12.5h6c15.333 0 27.833 -4.16699 37.5 -12.5s14.5 -22.833 14.5 -43.5v-2c0 -20.667 -4.83301 -35.167 -14.5 -43.5s-22.167 -12.5 -37.5 -12.5h-6z" />
    <glyph glyph-name="cdotaccent" unicode="&#x10b;" horiz-adv-x="465" 
d="M425 6c-19.333 -5.33301 -41.832 -10.001 -67.499 -14.001s-48.834 -6 -69.501 -6c-79.333 0 -140 23 -182 69c-20 22 -35.5 49.167 -46.5 81.5s-16.5 68.833 -16.5 109.5c0 42.667 6.16699 80.334 18.5 113.001s29.166 59.667 50.499 81
c20.667 21.333 46.5 37.333 77.5 48s64.5 16 100.5 16c23.333 0 45.333 -1.5 66 -4.5s38.667 -6.16699 54 -9.5c6.66699 -1.33301 11 -3.5 13 -6.5s3 -7.83301 3 -14.5v-111h-62c-1.33301 2.66699 -2.66602 7.16699 -3.99902 13.5s-2.83301 13 -4.5 20s-3 14.167 -4 21.5
s-1.5 14 -1.5 20c-16 2 -32.333 3 -49 3c-28 0 -52.667 -3.16699 -74 -9.5s-39 -16.833 -53 -31.5c-14.667 -15.333 -26.167 -35.333 -34.5 -60s-12.5 -54 -12.5 -88c0 -26.667 3 -53 9 -79s17.333 -47.667 34 -65c16 -16.667 36.333 -28.5 61 -35.5s55 -10.5 91 -10.5h103
v-51zM287.001 586.999c-15.333 0 -27.833 4.16699 -37.5 12.5s-14.5 22.833 -14.5 43.5v2c0 20.667 4.83301 35.167 14.5 43.5s22.167 12.5 37.5 12.5h6c15.333 0 27.833 -4.16699 37.5 -12.5s14.5 -22.833 14.5 -43.5v-2c0 -20.667 -4.83301 -35.167 -14.5 -43.5
s-22.167 -12.5 -37.5 -12.5h-6z" />
    <glyph glyph-name="Ccaron" unicode="&#x10c;" horiz-adv-x="579" 
d="M461 525c-1.33301 2.66699 -2.83203 7.83398 -4.49902 15.501s-3.33398 16.167 -5.00098 25.5s-3 18.666 -4 27.999s-1.5 17 -1.5 23c-9.33301 1.33301 -20.666 2.5 -33.999 3.5s-27 1.5 -41 1.5c-75.333 0 -131.833 -22 -169.5 -66s-56.5 -115.333 -56.5 -214
c0 -103.333 20.667 -177 62 -221c21.333 -23.333 49.166 -39.333 83.499 -48s75.833 -13 124.5 -13h106v-61c-22.667 -4 -47 -7.16699 -73 -9.5s-47.667 -3.5 -65 -3.5c-112.667 0 -193.667 27.667 -243 83c-28 31.333 -49 70 -63 116s-21 98 -21 156
c0 59.333 7.33301 111.166 22 155.499s35.667 81.333 63 111s60 52 98 67s80.667 22.5 128 22.5c25.333 0 51 -1.66699 77 -5s47.667 -7.66602 65 -12.999c10.667 -2.66699 16 -9.66699 16 -21v-133h-64v0zM341.001 759c-12.667 0 -22.332 1.83301 -28.999 5.5
s-14.667 11.5 -24 23.5l-91 111l33 28l119 -103l119 103l33 -28l-91 -111c-9.33301 -12 -17.333 -19.833 -24 -23.5s-16.334 -5.5 -29.001 -5.5h-16z" />
    <glyph glyph-name="ccaron" unicode="&#x10d;" horiz-adv-x="465" 
d="M425 6c-19.333 -5.33301 -41.832 -10.001 -67.499 -14.001s-48.834 -6 -69.501 -6c-79.333 0 -140 23 -182 69c-20 22 -35.5 49.167 -46.5 81.5s-16.5 68.833 -16.5 109.5c0 42.667 6.16699 80.334 18.5 113.001s29.166 59.667 50.499 81
c20.667 21.333 46.5 37.333 77.5 48s64.5 16 100.5 16c23.333 0 45.333 -1.5 66 -4.5s38.667 -6.16699 54 -9.5c6.66699 -1.33301 11 -3.5 13 -6.5s3 -7.83301 3 -14.5v-111h-62c-1.33301 2.66699 -2.66602 7.16699 -3.99902 13.5s-2.83301 13 -4.5 20s-3 14.167 -4 21.5
s-1.5 14 -1.5 20c-16 2 -32.333 3 -49 3c-28 0 -52.667 -3.16699 -74 -9.5s-39 -16.833 -53 -31.5c-14.667 -15.333 -26.167 -35.333 -34.5 -60s-12.5 -54 -12.5 -88c0 -26.667 3 -53 9 -79s17.333 -47.667 34 -65c16 -16.667 36.333 -28.5 61 -35.5s55 -10.5 91 -10.5h103
v-51zM270.001 588.999c-12.667 0 -22.332 1.83301 -28.999 5.5s-14.667 11.5 -24 23.5l-91 111l33 28l119 -103l119 103l33 -28l-91 -111c-9.33301 -12 -17.333 -19.833 -24 -23.5s-16.334 -5.5 -29.001 -5.5h-16z" />
    <glyph glyph-name="Dcaron" unicode="&#x10e;" horiz-adv-x="684" 
d="M62 0v66h69v552h-69v66h234c63.333 0 115 -6.33301 155 -19s73 -32.334 99 -59.001c52 -54 78 -140.667 78 -260c0 -126 -26 -216.333 -78 -271c-24.667 -25.333 -55.5 -44.166 -92.5 -56.499s-84.5 -18.5 -142.5 -18.5h-253zM218 68h98.001c40 0 73.667 4.5 101 13.5
s49.666 22.833 66.999 41.5c21.333 23.333 36 53.333 44 90s12 81 12 133c0 49.333 -4.66699 92 -14 128s-25 65 -47 87c-18.667 18.667 -42.167 32.5 -70.5 41.5s-65.5 13.5 -111.5 13.5h-79v-548zM334.001 759c-12.667 0 -22.332 1.83301 -28.999 5.5
s-14.667 11.5 -24 23.5l-91 111l33 28l119 -103l119 103l33 -28l-91 -111c-9.33301 -12 -17.333 -19.833 -24 -23.5s-16.334 -5.5 -29.001 -5.5h-16z" />
    <glyph glyph-name="dcaron" unicode="&#x10f;" horiz-adv-x="627" 
d="M380 30c-23.333 -13.333 -47.668 -24.001 -73.001 -32.001s-50 -12 -74 -12c-62 0 -108.667 23 -140 69s-47 110.333 -47 193c0 79.333 17 141.833 51 187.5s81.333 68.5 142 68.5c22 0 45 -3.33301 69 -10s46.667 -15.334 68 -26.001v190h-68v60
c5.33301 0.666992 12.166 1.33398 20.499 2.00098l25.5 2c8.66699 0.666992 17.167 1.16699 25.5 1.5s15.5 0.5 21.5 0.5c20.667 0 35.667 -4.66699 45 -14c7.33301 -7.33301 11 -20.666 11 -39.999v-609h66v-60c-17.333 -2 -33.666 -3.66699 -48.999 -5
s-29.666 -2 -42.999 -2c-16.667 0 -28.667 3.16699 -36 9.5s-12.333 14.833 -15 25.5v1zM254.998 59.999c18 0 38.333 1.99902 61 5.99902s42.667 9.66699 60 17v329c-20 5.33301 -40.333 9.66602 -61 12.999s-39 5 -55 5c-45.333 0 -78.333 -15 -99 -45
s-31 -75.333 -31 -136c0 -36 2.66699 -66.167 8 -90.5s13.166 -43.666 23.499 -57.999s23.333 -24.666 39 -30.999s33.834 -9.5 54.501 -9.5zM544.998 481.998l0.000976562 114.997c-26.667 4.66699 -40 21.334 -40 50.001v2c0 16 4.5 28 13.5 36s20.5 12 34.5 12h1
c18.667 0 32.167 -4.83301 40.5 -14.5s12.5 -26.5 12.5 -50.5c0 -10 -0.5 -21.167 -1.5 -33.5s-2.5 -24.666 -4.5 -36.999s-4.16699 -24.166 -6.5 -35.499s-4.5 -21.333 -6.5 -30c-1.33301 -5.33301 -3.33301 -9 -6 -11s-7.33398 -3 -14.001 -3h-23z" />
    <glyph glyph-name="Dcroat" unicode="&#x110;" horiz-adv-x="691" 
d="M50 370l88 11v237h-69v66h234c63.333 0 115 -6.33301 155 -19s73 -32.334 99 -59.001c52 -54 78 -140.667 78 -260c0 -126 -26 -216.333 -78 -271c-24.667 -25.333 -55.5 -44.166 -92.5 -56.499s-84.5 -18.5 -142.5 -18.5h-253v66h69v248h-88v56zM225 383h139.001v-69
h-139v-246h98c40 0 73.667 4.5 101 13.5s49.666 22.833 66.999 41.5c21.333 23.333 36 53.333 44 90s12 81 12 133c0 49.333 -4.66699 92 -14 128s-25 65 -47 87c-18.667 18.667 -42.167 32.5 -70.5 41.5s-65.5 13.5 -111.5 13.5h-79v-233z" />
    <glyph glyph-name="dcroat" unicode="&#x111;" horiz-adv-x="551" 
d="M457 553l-0.00195312 -492.001h66v-60c-17.333 -2 -33.666 -3.66699 -48.999 -5s-29.666 -2 -42.999 -2c-16.667 0 -28.667 3.16699 -36 9.5s-12.333 14.833 -15 25.5v1c-23.333 -13.333 -47.666 -24 -72.999 -32s-50 -12 -74 -12c-62 0 -108.667 23 -140 69
s-47 110.333 -47 193c0 79.333 17 141.833 51 187.5s81.333 68.5 142 68.5c22 0 45 -3.33301 69 -10s46.667 -15.334 68 -26.001v85h-164v58h164v47h-68v60c5.33301 0.666992 12.166 1.33398 20.499 2.00098l25.5 2c8.66699 0.666992 17.167 1.16699 25.5 1.5
s15.5 0.5 21.5 0.5c20.667 0 35.667 -4.66699 45 -14c7.33301 -7.33301 11 -20.666 11 -39.999v-61l82 -7v-49h-82zM254.998 59.999c18 0 38.333 1.99902 61 5.99902s42.667 9.66699 60 17v329c-20 5.33301 -40.333 9.66602 -61 12.999s-39 5 -55 5
c-45.333 0 -78.333 -15 -99 -45s-31 -75.333 -31 -136c0 -36 2.66699 -66.167 8 -90.5s13.166 -43.666 23.499 -57.999s23.333 -24.666 39 -30.999s33.834 -9.5 54.501 -9.5z" />
    <glyph glyph-name="Emacron" unicode="&#x112;" horiz-adv-x="603" 
d="M62 0v66h69v552h-69v66h461c10 0 16.333 -1 19 -3s4 -5.33301 4 -10v-147h-59c-4.66699 12 -8.5 26.833 -11.5 44.5s-4.5 34.167 -4.5 49.5h-253v-234h192c6.66699 0 11 -0.5 13 -1.5s3 -3.5 3 -7.5v-62h-208v-247h258c0 15.333 1.5 32 4.5 50s6.83301 33 11.5 45h59
v-148c0 -4.66699 -1.33301 -8 -4 -10s-9 -3 -19 -3h-466zM186 798v70h270v-70h-270z" />
    <glyph glyph-name="emacron" unicode="&#x113;" horiz-adv-x="506" 
d="M127 220c1.33301 -26.667 4.83301 -49.835 10.5 -69.502s15.167 -36.167 28.5 -49.5c14 -15.333 32.667 -26.5 56 -33.5s55 -10.5 95 -10.5h124v-50c-21.333 -6 -46 -11 -74 -15s-54.667 -6 -80 -6c-42 0 -78 5.5 -108 16.5s-54.333 26.5 -73 46.5
c-21.333 23.333 -37.166 51.666 -47.499 84.999s-15.5 70.666 -15.5 111.999c0 38 4.66699 72.833 14 104.5s23.166 58.834 41.499 81.501s40.833 40.334 67.5 53.001s57 19 91 19c32.667 0 61.667 -5.66699 87 -17s46.5 -27.666 63.5 -48.999s30 -47.166 39 -77.499
s13.5 -64.5 13.5 -102.5v-29c0 -6 -3.66699 -9 -11 -9h-322zM383 283.999c-3.33301 48 -14.999 85.333 -34.999 112s-50.333 40 -91 40c-22 0 -40.833 -4 -56.5 -12s-28.834 -19 -39.501 -33s-18.667 -30.167 -24 -48.5s-8.33301 -37.833 -9 -58.5h255zM128.001 617.999v70
h270v-70h-270z" />
    <glyph glyph-name="Ebreve" unicode="&#x114;" horiz-adv-x="603" 
d="M62 0v66h69v552h-69v66h461c10 0 16.333 -1 19 -3s4 -5.33301 4 -10v-147h-59c-4.66699 12 -8.5 26.833 -11.5 44.5s-4.5 34.167 -4.5 49.5h-253v-234h192c6.66699 0 11 -0.5 13 -1.5s3 -3.5 3 -7.5v-62h-208v-247h258c0 15.333 1.5 32 4.5 50s6.83301 33 11.5 45h59
v-148c0 -4.66699 -1.33301 -8 -4 -10s-9 -3 -19 -3h-466zM321 755c-24 0 -44.502 3.66699 -61.502 11s-30.667 17.333 -41 30s-18.166 27.334 -23.499 44.001s-8.66602 34.667 -9.99902 54l52 6c4 -27.333 12.667 -47.5 26 -60.5s32.666 -19.5 57.999 -19.5
s44.666 6.5 57.999 19.5s22 33.167 26 60.5l52 -6c-1.33301 -19.333 -4.66602 -37.333 -9.99902 -54s-13.166 -31.334 -23.499 -44.001s-24 -22.667 -41 -30s-37.5 -11 -61.5 -11z" />
    <glyph glyph-name="ebreve" unicode="&#x115;" horiz-adv-x="506" 
d="M127 220c1.33301 -26.667 4.83301 -49.835 10.5 -69.502s15.167 -36.167 28.5 -49.5c14 -15.333 32.667 -26.5 56 -33.5s55 -10.5 95 -10.5h124v-50c-21.333 -6 -46 -11 -74 -15s-54.667 -6 -80 -6c-42 0 -78 5.5 -108 16.5s-54.333 26.5 -73 46.5
c-21.333 23.333 -37.166 51.666 -47.499 84.999s-15.5 70.666 -15.5 111.999c0 38 4.66699 72.833 14 104.5s23.166 58.834 41.499 81.501s40.833 40.334 67.5 53.001s57 19 91 19c32.667 0 61.667 -5.66699 87 -17s46.5 -27.666 63.5 -48.999s30 -47.166 39 -77.499
s13.5 -64.5 13.5 -102.5v-29c0 -6 -3.66699 -9 -11 -9h-322zM383 283.999c-3.33301 48 -14.999 85.333 -34.999 112s-50.333 40 -91 40c-22 0 -40.833 -4 -56.5 -12s-28.834 -19 -39.501 -33s-18.667 -30.167 -24 -48.5s-8.33301 -37.833 -9 -58.5h255zM261.001 584.999
c-24 0 -44.502 3.66699 -61.502 11s-30.667 17.333 -41 30s-18.166 27.334 -23.499 44.001s-8.66602 34.667 -9.99902 54l52 6c4 -27.333 12.667 -47.5 26 -60.5s32.666 -19.5 57.999 -19.5s44.666 6.5 57.999 19.5s22 33.167 26 60.5l52 -6
c-1.33301 -19.333 -4.66602 -37.333 -9.99902 -54s-13.166 -31.334 -23.499 -44.001s-24 -22.667 -41 -30s-37.5 -11 -61.5 -11z" />
    <glyph glyph-name="Edotaccent" unicode="&#x116;" horiz-adv-x="603" 
d="M62 0v66h69v552h-69v66h461c10 0 16.333 -1 19 -3s4 -5.33301 4 -10v-147h-59c-4.66699 12 -8.5 26.833 -11.5 44.5s-4.5 34.167 -4.5 49.5h-253v-234h192c6.66699 0 11 -0.5 13 -1.5s3 -3.5 3 -7.5v-62h-208v-247h258c0 15.333 1.5 32 4.5 50s6.83301 33 11.5 45h59
v-148c0 -4.66699 -1.33301 -8 -4 -10s-9 -3 -19 -3h-466zM318 777c-15.333 0 -27.833 4.16699 -37.5 12.5s-14.5 22.833 -14.5 43.5v2c0 20.667 4.83301 35.167 14.5 43.5s22.167 12.5 37.5 12.5h6c15.333 0 27.833 -4.16699 37.5 -12.5s14.5 -22.833 14.5 -43.5v-2
c0 -20.667 -4.83301 -35.167 -14.5 -43.5s-22.167 -12.5 -37.5 -12.5h-6z" />
    <glyph glyph-name="edotaccent" unicode="&#x117;" horiz-adv-x="506" 
d="M127 220c1.33301 -26.667 4.83301 -49.835 10.5 -69.502s15.167 -36.167 28.5 -49.5c14 -15.333 32.667 -26.5 56 -33.5s55 -10.5 95 -10.5h124v-50c-21.333 -6 -46 -11 -74 -15s-54.667 -6 -80 -6c-42 0 -78 5.5 -108 16.5s-54.333 26.5 -73 46.5
c-21.333 23.333 -37.166 51.666 -47.499 84.999s-15.5 70.666 -15.5 111.999c0 38 4.66699 72.833 14 104.5s23.166 58.834 41.499 81.501s40.833 40.334 67.5 53.001s57 19 91 19c32.667 0 61.667 -5.66699 87 -17s46.5 -27.666 63.5 -48.999s30 -47.166 39 -77.499
s13.5 -64.5 13.5 -102.5v-29c0 -6 -3.66699 -9 -11 -9h-322zM383 283.999c-3.33301 48 -14.999 85.333 -34.999 112s-50.333 40 -91 40c-22 0 -40.833 -4 -56.5 -12s-28.834 -19 -39.501 -33s-18.667 -30.167 -24 -48.5s-8.33301 -37.833 -9 -58.5h255zM254.001 586.999
c-15.333 0 -27.833 4.16699 -37.5 12.5s-14.5 22.833 -14.5 43.5v2c0 20.667 4.83301 35.167 14.5 43.5s22.167 12.5 37.5 12.5h6c15.333 0 27.833 -4.16699 37.5 -12.5s14.5 -22.833 14.5 -43.5v-2c0 -20.667 -4.83301 -35.167 -14.5 -43.5s-22.167 -12.5 -37.5 -12.5h-6z
" />
    <glyph glyph-name="Eogonek" unicode="&#x118;" horiz-adv-x="603" 
d="M357 -121c0 22 4.83105 43.335 14.498 64.002s22.834 39.667 39.501 57h-349v66h69v552h-69v66h461c10 0 16.333 -1 19 -3s4 -5.33301 4 -10v-147h-59c-4.66699 12 -8.5 26.833 -11.5 44.5s-4.5 34.167 -4.5 49.5h-253v-234h192c6.66699 0 11 -0.5 13 -1.5s3 -3.5 3 -7.5
v-62h-208v-247h258c0 15.333 1.5 32 4.5 50s6.83301 33 11.5 45h59v-148c0 -4.66699 -1.33301 -8 -4 -10s-9 -3 -19 -3h-60c-13.333 -18.667 -23.833 -37.834 -31.5 -57.501s-11.5 -38.5 -11.5 -56.5c0 -19.333 5.83301 -34.5 17.5 -45.5s33.5 -16.5 65.5 -16.5h41v-46
c-11.333 -3.33301 -23.666 -5.83301 -36.999 -7.5s-26 -2.5 -38 -2.5c-36 0 -64.5 9.66699 -85.5 29s-31.5 46.666 -31.5 81.999z" />
    <glyph glyph-name="eogonek" unicode="&#x119;" horiz-adv-x="506" 
d="M268 -121c0 22 3.99902 42.166 11.999 60.499s19.333 34.166 34 47.499c-4.66699 0 -9.16699 -0.166992 -13.5 -0.5s-8.83301 -0.5 -13.5 -0.5c-42 0 -78 5.5 -108 16.5s-54.333 26.5 -73 46.5c-21.333 23.333 -37.166 51.666 -47.499 84.999s-15.5 70.666 -15.5 111.999
c0 38 4.66699 72.833 14 104.5s23.166 58.834 41.499 81.501s40.833 40.334 67.5 53.001s57 19 91 19c32.667 0 61.667 -5.66699 87 -17s46.5 -27.666 63.5 -48.999s30 -47.166 39 -77.499s13.5 -64.5 13.5 -102.5v-29c0 -6 -3.66699 -9 -11 -9h-322
c1.33301 -26.667 4.83301 -49.834 10.5 -69.501s15.167 -36.167 28.5 -49.5c14 -15.333 32.667 -26.5 56 -33.5s55 -10.5 95 -10.5h124v-50c-17.333 -5.33301 -32 -10.666 -44 -15.999s-23 -13.666 -33 -24.999s-17.167 -24 -21.5 -38s-6.5 -28 -6.5 -42
c0 -19.333 5.83301 -34.5 17.5 -45.5s33.5 -16.5 65.5 -16.5h41v-46c-11.333 -3.33301 -23.666 -5.83301 -36.999 -7.5s-26 -2.5 -38 -2.5c-36 0 -64.5 9.66699 -85.5 29s-31.5 46.666 -31.5 81.999zM382.999 283.999c-3.33301 48 -14.999 85.333 -34.999 112
s-50.333 40 -91 40c-22 0 -40.833 -4 -56.5 -12s-28.834 -19 -39.501 -33s-18.667 -30.167 -24 -48.5s-8.33301 -37.833 -9 -58.5h255z" />
    <glyph glyph-name="Ecaron" unicode="&#x11a;" horiz-adv-x="603" 
d="M62 0v66h69v552h-69v66h461c10 0 16.333 -1 19 -3s4 -5.33301 4 -10v-147h-59c-4.66699 12 -8.5 26.833 -11.5 44.5s-4.5 34.167 -4.5 49.5h-253v-234h192c6.66699 0 11 -0.5 13 -1.5s3 -3.5 3 -7.5v-62h-208v-247h258c0 15.333 1.5 32 4.5 50s6.83301 33 11.5 45h59
v-148c0 -4.66699 -1.33301 -8 -4 -10s-9 -3 -19 -3h-466zM323 759c-12.667 0 -22.332 1.83301 -28.999 5.5s-14.667 11.5 -24 23.5l-91 111l33 28l119 -103l119 103l33 -28l-91 -111c-9.33301 -12 -17.333 -19.833 -24 -23.5s-16.334 -5.5 -29.001 -5.5h-16z" />
    <glyph glyph-name="ecaron" unicode="&#x11b;" horiz-adv-x="506" 
d="M127 220c1.33301 -26.667 4.83301 -49.835 10.5 -69.502s15.167 -36.167 28.5 -49.5c14 -15.333 32.667 -26.5 56 -33.5s55 -10.5 95 -10.5h124v-50c-21.333 -6 -46 -11 -74 -15s-54.667 -6 -80 -6c-42 0 -78 5.5 -108 16.5s-54.333 26.5 -73 46.5
c-21.333 23.333 -37.166 51.666 -47.499 84.999s-15.5 70.666 -15.5 111.999c0 38 4.66699 72.833 14 104.5s23.166 58.834 41.499 81.501s40.833 40.334 67.5 53.001s57 19 91 19c32.667 0 61.667 -5.66699 87 -17s46.5 -27.666 63.5 -48.999s30 -47.166 39 -77.499
s13.5 -64.5 13.5 -102.5v-29c0 -6 -3.66699 -9 -11 -9h-322zM383 283.999c-3.33301 48 -14.999 85.333 -34.999 112s-50.333 40 -91 40c-22 0 -40.833 -4 -56.5 -12s-28.834 -19 -39.501 -33s-18.667 -30.167 -24 -48.5s-8.33301 -37.833 -9 -58.5h255zM249.001 588.999
c-12.667 0 -22.332 1.83301 -28.999 5.5s-14.667 11.5 -24 23.5l-91 111l33 28l119 -103l119 103l33 -28l-91 -111c-9.33301 -12 -17.333 -19.833 -24 -23.5s-16.334 -5.5 -29.001 -5.5h-16z" />
    <glyph glyph-name="Gcircumflex" unicode="&#x11c;" horiz-adv-x="656" 
d="M491 527c-1.33301 2 -2.66504 6.66309 -3.99805 13.9961l-4.5 24.5c-1.66699 9 -3 18.333 -4 28s-1.83301 18.167 -2.5 25.5c-12 1.33301 -27.167 2.5 -45.5 3.5s-35.5 1.5 -51.5 1.5c-40.667 0 -74.667 -4.66699 -102 -14s-50.666 -24.666 -69.999 -45.999
c-42 -47.333 -63 -121.666 -63 -222.999c0 -95.333 15.5 -166 46.5 -212s80.5 -69 148.5 -69c22.667 0 47.667 2.33301 75 7s51.666 10.667 72.999 18v181h-106v66h191v-332h-61c-6.66699 8 -11.667 18.333 -15 31c-22.667 -13.333 -49.834 -24.166 -81.501 -32.499
s-62.167 -12.5 -91.5 -12.5c-45.333 0 -84.833 8 -118.5 24s-61.5 39.167 -83.5 69.5s-38.333 67.5 -49 111.5s-16 93.667 -16 149c0 62.667 7.66699 116.834 23 162.501s37.666 83.5 66.999 113.5c52.667 54 128 81 226 81c14 0 28.667 -0.5 44 -1.5s30.5 -2.33301 45.5 -4
s29.167 -3.66699 42.5 -6s25 -4.5 35 -6.5c10.667 -2.66699 16 -10 16 -22v-130h-64zM366.001 922.996c12.667 0 22.332 -1.83301 28.999 -5.5s14.667 -11.5 24 -23.5l91 -111l-33 -28l-119 103l-119 -103l-33 28l91 111c9.33301 12 17.333 19.833 24 23.5
s16.334 5.5 29.001 5.5h16z" />
    <glyph glyph-name="gcircumflex" unicode="&#x11d;" horiz-adv-x="513" 
d="M459 320c0 -56.667 -16.833 -101.502 -50.5 -134.502s-83.5 -49.5 -149.5 -49.5c-31.333 0 -59 4 -83 12l-18 -75h152c68 0 116 -13 144 -39c26.667 -24.667 40 -60.667 40 -108c0 -29.333 -5.5 -54.333 -16.5 -75s-26.667 -37.667 -47 -51
s-44.666 -23.166 -72.999 -29.499s-59.5 -9.5 -93.5 -9.5h-11c-66.667 0 -118.667 13.833 -156 41.5s-56 65.167 -56 112.5c0 36.667 14.667 71.667 44 105c-5.33301 6 -8 15 -8 27c0 28.667 18.667 68.667 56 120c-24.667 16 -43.167 37 -55.5 63s-18.5 56 -18.5 90
c0 56.667 16.833 101.5 50.5 134.5s83.5 49.5 149.5 49.5c47.333 0 87 -9.33301 119 -28l47 76c10.667 -5.33301 22.167 -12.166 34.5 -20.499s22.166 -16.5 29.499 -24.5l-64 -73c22.667 -30.667 34 -68.667 34 -114zM381 319.998c0 36 -8.83301 64.5 -26.5 85.5
s-49.5 31.5 -95.5 31.5s-77.833 -10.5 -95.5 -31.5s-26.5 -49.5 -26.5 -85.5s8.83301 -64.5 26.5 -85.5s49.5 -31.5 95.5 -31.5s77.833 10.5 95.5 31.5s26.5 49.5 26.5 85.5zM146 -2.00195c-7.33301 0 -12.666 0.333984 -15.999 1.00098v-2
c-2.66699 -12 -4.83398 -23.333 -6.50098 -34s-2.5 -21 -2.5 -31c0 -32 10.833 -56.667 32.5 -74s58.167 -26 109.5 -26h2c51.333 0 89.166 7.16699 113.499 21.5s36.5 36.833 36.5 67.5c0 11.333 -1.66699 22.166 -5 32.499s-8.66602 18.5 -15.999 24.5
c-8.66699 7.33301 -20 12.5 -34 15.5s-32.333 4.5 -55 4.5h-159zM268 752.999c12.667 0 22.332 -1.83301 28.999 -5.5s14.667 -11.5 24 -23.5l91 -111l-33 -28l-119 103l-119 -103l-33 28l91 111c9.33301 12 17.333 19.833 24 23.5s16.334 5.5 29.001 5.5h16z" />
    <glyph glyph-name="Gbreve" unicode="&#x11e;" horiz-adv-x="656" 
d="M491 527c-1.33301 2 -2.66504 6.66309 -3.99805 13.9961l-4.5 24.5c-1.66699 9 -3 18.333 -4 28s-1.83301 18.167 -2.5 25.5c-12 1.33301 -27.167 2.5 -45.5 3.5s-35.5 1.5 -51.5 1.5c-40.667 0 -74.667 -4.66699 -102 -14s-50.666 -24.666 -69.999 -45.999
c-42 -47.333 -63 -121.666 -63 -222.999c0 -95.333 15.5 -166 46.5 -212s80.5 -69 148.5 -69c22.667 0 47.667 2.33301 75 7s51.666 10.667 72.999 18v181h-106v66h191v-332h-61c-6.66699 8 -11.667 18.333 -15 31c-22.667 -13.333 -49.834 -24.166 -81.501 -32.499
s-62.167 -12.5 -91.5 -12.5c-45.333 0 -84.833 8 -118.5 24s-61.5 39.167 -83.5 69.5s-38.333 67.5 -49 111.5s-16 93.667 -16 149c0 62.667 7.66699 116.834 23 162.501s37.666 83.5 66.999 113.5c52.667 54 128 81 226 81c14 0 28.667 -0.5 44 -1.5s30.5 -2.33301 45.5 -4
s29.167 -3.66699 42.5 -6s25 -4.5 35 -6.5c10.667 -2.66699 16 -10 16 -22v-130h-64zM358.001 754.996c-24 0 -44.502 3.66699 -61.502 11s-30.667 17.333 -41 30s-18.166 27.334 -23.499 44.001s-8.66602 34.667 -9.99902 54l52 6c4 -27.333 12.667 -47.5 26 -60.5
s32.666 -19.5 57.999 -19.5s44.666 6.5 57.999 19.5s22 33.167 26 60.5l52 -6c-1.33301 -19.333 -4.66602 -37.333 -9.99902 -54s-13.166 -31.334 -23.499 -44.001s-24 -22.667 -41 -30s-37.5 -11 -61.5 -11z" />
    <glyph glyph-name="gbreve" unicode="&#x11f;" horiz-adv-x="513" 
d="M459 320c0 -56.667 -16.833 -101.502 -50.5 -134.502s-83.5 -49.5 -149.5 -49.5c-31.333 0 -59 4 -83 12l-18 -75h152c68 0 116 -13 144 -39c26.667 -24.667 40 -60.667 40 -108c0 -29.333 -5.5 -54.333 -16.5 -75s-26.667 -37.667 -47 -51
s-44.666 -23.166 -72.999 -29.499s-59.5 -9.5 -93.5 -9.5h-11c-66.667 0 -118.667 13.833 -156 41.5s-56 65.167 -56 112.5c0 36.667 14.667 71.667 44 105c-5.33301 6 -8 15 -8 27c0 28.667 18.667 68.667 56 120c-24.667 16 -43.167 37 -55.5 63s-18.5 56 -18.5 90
c0 56.667 16.833 101.5 50.5 134.5s83.5 49.5 149.5 49.5c47.333 0 87 -9.33301 119 -28l47 76c10.667 -5.33301 22.167 -12.166 34.5 -20.499s22.166 -16.5 29.499 -24.5l-64 -73c22.667 -30.667 34 -68.667 34 -114zM381 319.998c0 36 -8.83301 64.5 -26.5 85.5
s-49.5 31.5 -95.5 31.5s-77.833 -10.5 -95.5 -31.5s-26.5 -49.5 -26.5 -85.5s8.83301 -64.5 26.5 -85.5s49.5 -31.5 95.5 -31.5s77.833 10.5 95.5 31.5s26.5 49.5 26.5 85.5zM146 -2.00195c-7.33301 0 -12.666 0.333984 -15.999 1.00098v-2
c-2.66699 -12 -4.83398 -23.333 -6.50098 -34s-2.5 -21 -2.5 -31c0 -32 10.833 -56.667 32.5 -74s58.167 -26 109.5 -26h2c51.333 0 89.166 7.16699 113.499 21.5s36.5 36.833 36.5 67.5c0 11.333 -1.66699 22.166 -5 32.499s-8.66602 18.5 -15.999 24.5
c-8.66699 7.33301 -20 12.5 -34 15.5s-32.333 4.5 -55 4.5h-159zM261 584.999c-24 0 -44.502 3.66699 -61.502 11s-30.667 17.333 -41 30s-18.166 27.334 -23.499 44.001s-8.66602 34.667 -9.99902 54l52 6c4 -27.333 12.667 -47.5 26 -60.5s32.666 -19.5 57.999 -19.5
s44.666 6.5 57.999 19.5s22 33.167 26 60.5l52 -6c-1.33301 -19.333 -4.66602 -37.333 -9.99902 -54s-13.166 -31.334 -23.499 -44.001s-24 -22.667 -41 -30s-37.5 -11 -61.5 -11z" />
    <glyph glyph-name="Gdotaccent" unicode="&#x120;" horiz-adv-x="656" 
d="M491 527c-1.33301 2 -2.66504 6.66309 -3.99805 13.9961l-4.5 24.5c-1.66699 9 -3 18.333 -4 28s-1.83301 18.167 -2.5 25.5c-12 1.33301 -27.167 2.5 -45.5 3.5s-35.5 1.5 -51.5 1.5c-40.667 0 -74.667 -4.66699 -102 -14s-50.666 -24.666 -69.999 -45.999
c-42 -47.333 -63 -121.666 -63 -222.999c0 -95.333 15.5 -166 46.5 -212s80.5 -69 148.5 -69c22.667 0 47.667 2.33301 75 7s51.666 10.667 72.999 18v181h-106v66h191v-332h-61c-6.66699 8 -11.667 18.333 -15 31c-22.667 -13.333 -49.834 -24.166 -81.501 -32.499
s-62.167 -12.5 -91.5 -12.5c-45.333 0 -84.833 8 -118.5 24s-61.5 39.167 -83.5 69.5s-38.333 67.5 -49 111.5s-16 93.667 -16 149c0 62.667 7.66699 116.834 23 162.501s37.666 83.5 66.999 113.5c52.667 54 128 81 226 81c14 0 28.667 -0.5 44 -1.5s30.5 -2.33301 45.5 -4
s29.167 -3.66699 42.5 -6s25 -4.5 35 -6.5c10.667 -2.66699 16 -10 16 -22v-130h-64zM355.001 776.996c-15.333 0 -27.833 4.16699 -37.5 12.5s-14.5 22.833 -14.5 43.5v2c0 20.667 4.83301 35.167 14.5 43.5s22.167 12.5 37.5 12.5h6c15.333 0 27.833 -4.16699 37.5 -12.5
s14.5 -22.833 14.5 -43.5v-2c0 -20.667 -4.83301 -35.167 -14.5 -43.5s-22.167 -12.5 -37.5 -12.5h-6z" />
    <glyph glyph-name="gdotaccent" unicode="&#x121;" horiz-adv-x="513" 
d="M459 320c0 -56.667 -16.833 -101.502 -50.5 -134.502s-83.5 -49.5 -149.5 -49.5c-31.333 0 -59 4 -83 12l-18 -75h152c68 0 116 -13 144 -39c26.667 -24.667 40 -60.667 40 -108c0 -29.333 -5.5 -54.333 -16.5 -75s-26.667 -37.667 -47 -51
s-44.666 -23.166 -72.999 -29.499s-59.5 -9.5 -93.5 -9.5h-11c-66.667 0 -118.667 13.833 -156 41.5s-56 65.167 -56 112.5c0 36.667 14.667 71.667 44 105c-5.33301 6 -8 15 -8 27c0 28.667 18.667 68.667 56 120c-24.667 16 -43.167 37 -55.5 63s-18.5 56 -18.5 90
c0 56.667 16.833 101.5 50.5 134.5s83.5 49.5 149.5 49.5c47.333 0 87 -9.33301 119 -28l47 76c10.667 -5.33301 22.167 -12.166 34.5 -20.499s22.166 -16.5 29.499 -24.5l-64 -73c22.667 -30.667 34 -68.667 34 -114zM381 319.998c0 36 -8.83301 64.5 -26.5 85.5
s-49.5 31.5 -95.5 31.5s-77.833 -10.5 -95.5 -31.5s-26.5 -49.5 -26.5 -85.5s8.83301 -64.5 26.5 -85.5s49.5 -31.5 95.5 -31.5s77.833 10.5 95.5 31.5s26.5 49.5 26.5 85.5zM146 -2.00195c-7.33301 0 -12.666 0.333984 -15.999 1.00098v-2
c-2.66699 -12 -4.83398 -23.333 -6.50098 -34s-2.5 -21 -2.5 -31c0 -32 10.833 -56.667 32.5 -74s58.167 -26 109.5 -26h2c51.333 0 89.166 7.16699 113.499 21.5s36.5 36.833 36.5 67.5c0 11.333 -1.66699 22.166 -5 32.499s-8.66602 18.5 -15.999 24.5
c-8.66699 7.33301 -20 12.5 -34 15.5s-32.333 4.5 -55 4.5h-159zM255 586.999c-15.333 0 -27.833 4.16699 -37.5 12.5s-14.5 22.833 -14.5 43.5v2c0 20.667 4.83301 35.167 14.5 43.5s22.167 12.5 37.5 12.5h6c15.333 0 27.833 -4.16699 37.5 -12.5s14.5 -22.833 14.5 -43.5
v-2c0 -20.667 -4.83301 -35.167 -14.5 -43.5s-22.167 -12.5 -37.5 -12.5h-6z" />
    <glyph glyph-name="Gcommaaccent" unicode="&#x122;" horiz-adv-x="656" 
d="M491 527c-1.33301 2 -2.66504 6.66309 -3.99805 13.9961l-4.5 24.5c-1.66699 9 -3 18.333 -4 28s-1.83301 18.167 -2.5 25.5c-12 1.33301 -27.167 2.5 -45.5 3.5s-35.5 1.5 -51.5 1.5c-40.667 0 -74.667 -4.66699 -102 -14s-50.666 -24.666 -69.999 -45.999
c-42 -47.333 -63 -121.666 -63 -222.999c0 -95.333 15.5 -166 46.5 -212s80.5 -69 148.5 -69c22.667 0 47.667 2.33301 75 7s51.666 10.667 72.999 18v181h-106v66h191v-332h-61c-6.66699 8 -11.667 18.333 -15 31c-22.667 -13.333 -49.834 -24.166 -81.501 -32.499
s-62.167 -12.5 -91.5 -12.5c-45.333 0 -84.833 8 -118.5 24s-61.5 39.167 -83.5 69.5s-38.333 67.5 -49 111.5s-16 93.667 -16 149c0 62.667 7.66699 116.834 23 162.501s37.666 83.5 66.999 113.5c52.667 54 128 81 226 81c14 0 28.667 -0.5 44 -1.5s30.5 -2.33301 45.5 -4
s29.167 -3.66699 42.5 -6s25 -4.5 35 -6.5c10.667 -2.66699 16 -10 16 -22v-130h-64zM346.001 -288.004l0.000976562 114.997c-26.667 4.66699 -40 21.334 -40 50.001v2c0 16 4.5 28 13.5 36s20.5 12 34.5 12h1c18.667 0 32.167 -4.83301 40.5 -14.5s12.5 -26.5 12.5 -50.5
c0 -10 -0.5 -21.167 -1.5 -33.5s-2.5 -24.666 -4.5 -36.999s-4.16699 -24.166 -6.5 -35.499s-4.5 -21.333 -6.5 -30c-1.33301 -5.33301 -3.33301 -9 -6 -11s-7.33398 -3 -14.001 -3h-23z" />
    <glyph glyph-name="gcommaaccent" unicode="&#x123;" horiz-adv-x="513" 
d="M459 320c0 -56.667 -16.833 -101.502 -50.5 -134.502s-83.5 -49.5 -149.5 -49.5c-31.333 0 -59 4 -83 12l-18 -75h152c68 0 116 -13 144 -39c26.667 -24.667 40 -60.667 40 -108c0 -29.333 -5.5 -54.333 -16.5 -75s-26.667 -37.667 -47 -51
s-44.666 -23.166 -72.999 -29.499s-59.5 -9.5 -93.5 -9.5h-11c-66.667 0 -118.667 13.833 -156 41.5s-56 65.167 -56 112.5c0 36.667 14.667 71.667 44 105c-5.33301 6 -8 15 -8 27c0 28.667 18.667 68.667 56 120c-24.667 16 -43.167 37 -55.5 63s-18.5 56 -18.5 90
c0 56.667 16.833 101.5 50.5 134.5s83.5 49.5 149.5 49.5c47.333 0 87 -9.33301 119 -28l47 76c10.667 -5.33301 22.167 -12.166 34.5 -20.499s22.166 -16.5 29.499 -24.5l-64 -73c22.667 -30.667 34 -68.667 34 -114zM381 319.998c0 36 -8.83301 64.5 -26.5 85.5
s-49.5 31.5 -95.5 31.5s-77.833 -10.5 -95.5 -31.5s-26.5 -49.5 -26.5 -85.5s8.83301 -64.5 26.5 -85.5s49.5 -31.5 95.5 -31.5s77.833 10.5 95.5 31.5s26.5 49.5 26.5 85.5zM146 -2.00195c-7.33301 0 -12.666 0.333984 -15.999 1.00098v-2
c-2.66699 -12 -4.83398 -23.333 -6.50098 -34s-2.5 -21 -2.5 -31c0 -32 10.833 -56.667 32.5 -74s58.167 -26 109.5 -26h2c51.333 0 89.166 7.16699 113.499 21.5s36.5 36.833 36.5 67.5c0 11.333 -1.66699 22.166 -5 32.499s-8.66602 18.5 -15.999 24.5
c-8.66699 7.33301 -20 12.5 -34 15.5s-32.333 4.5 -55 4.5h-159zM270 789.999l-0.000976562 -114.997c26.667 -4.66699 40 -21.334 40 -50.001v-2c0 -16 -4.5 -28 -13.5 -36s-20.5 -12 -34.5 -12h-1c-18.667 0 -32.167 4.83301 -40.5 14.5s-12.5 26.5 -12.5 50.5
c0 10 0.5 21.167 1.5 33.5s2.5 24.666 4.5 36.999s4.16699 24.166 6.5 35.499s4.5 21.333 6.5 30c1.33301 5.33301 3.33301 9 6 11s7.33398 3 14.001 3h23z" />
    <glyph glyph-name="Hcircumflex" unicode="&#x124;" horiz-adv-x="738" 
d="M451 618v66h225v-66h-69v-552h69v-66h-225v66h69v247h-302v-247h69v-66h-225v66h69v552h-69v66h225v-66h-69v-234h302v234h-69zM377 923c12.667 0 22.332 -1.83301 28.999 -5.5s14.667 -11.5 24 -23.5l91 -111l-33 -28l-119 103l-119 -103l-33 28l91 111
c9.33301 12 17.333 19.833 24 23.5s16.334 5.5 29.001 5.5h16z" />
    <glyph glyph-name="hcircumflex" unicode="&#x125;" horiz-adv-x="576" 
d="M166 463c24.667 12 50.668 21.832 78.001 29.499s55 11.5 83 11.5s52.333 -3.83301 73 -11.5s37.334 -18.167 50.001 -31.5s21.667 -29.166 27 -47.499s8 -41.5 8 -69.5v-283h65v-60c-5.33301 -0.666992 -12 -1.33398 -20 -2.00098l-24.5 -2
c-8.33301 -0.666992 -16.5 -1.16699 -24.5 -1.5s-15 -0.5 -21 -0.5c-20.667 0 -35.667 4.66699 -45 14c-7.33301 7.33301 -11 20.666 -11 39.999v276c0 20.667 -1.66699 37.5 -5 50.5s-9 23.5 -17 31.5s-18.833 13.667 -32.5 17s-29.834 5 -48.501 5
s-39.5 -1.66699 -62.5 -5s-47.167 -8 -72.5 -14v-410h-81v658h-68v60c5.33301 0.666992 12.166 1.33398 20.499 2.00098l25.5 2c8.66699 0.666992 17.167 1.16699 25.5 1.5s15.5 0.5 21.5 0.5c20.667 0 35.667 -4.66699 45 -14c7.33301 -7.33301 11 -20.666 11 -39.999v-207
zM138.001 914.999c12.667 0 22.332 -1.83301 28.999 -5.5s14.667 -11.5 24 -23.5l91 -111l-33 -28l-119 103l-119 -103l-33 28l91 111c9.33301 12 17.333 19.833 24 23.5s16.334 5.5 29.001 5.5h16z" />
    <glyph glyph-name="Hbar" unicode="&#x126;" horiz-adv-x="738" 
d="M131 545v73h-69v66h225v-66h-69v-73h302v73h-69v66h225v-66h-69v-73h99v-65h-99v-414h69v-66h-225v66h69v247h-302v-247h69v-66h-225v66h69v414h-99v65h99zM520 384v96h-302v-96h302z" />
    <glyph glyph-name="hbar" unicode="&#x127;" horiz-adv-x="576" 
d="M85 658l-67.999 -0.000976562v60c5.33301 0.666992 12.166 1.33398 20.499 2.00098l25.5 2c8.66699 0.666992 17.167 1.16699 25.5 1.5s15.5 0.5 21.5 0.5c20.667 0 35.667 -4.66699 45 -14c7.33301 -7.33301 11 -20.666 11 -39.999v-59h164v-58h-164v-90
c24.667 12 50.667 21.833 78 29.5s55 11.5 83 11.5s52.333 -3.83301 73 -11.5s37.334 -18.167 50.001 -31.5s21.667 -29.166 27 -47.499s8 -41.5 8 -69.5v-283h65v-60c-5.33301 -0.666992 -12 -1.33398 -20 -2.00098l-24.5 -2c-8.33301 -0.666992 -16.5 -1.16699 -24.5 -1.5
s-15 -0.5 -21 -0.5c-20.667 0 -35.667 4.66699 -45 14c-7.33301 7.33301 -11 20.666 -11 39.999v276c0 20.667 -1.66699 37.5 -5 50.5s-9 23.5 -17 31.5s-18.833 13.667 -32.5 17s-29.834 5 -48.501 5s-39.5 -1.66699 -62.5 -5s-47.167 -8 -72.5 -14v-410h-81v553h-82v49
l82 9v47z" />
    <glyph glyph-name="Itilde" unicode="&#x128;" horiz-adv-x="353" 
d="M133 618h-69v66h225v-66h-69v-552h69v-66h-225v66h69v552zM323 882c-1.33301 -32.667 -9.00293 -58.167 -23.0029 -76.5s-31.667 -27.5 -53 -27.5c-13.333 0 -25.666 2 -36.999 6s-22.333 8.5 -33 13.5s-21.167 9.66699 -31.5 14s-20.833 6.5 -31.5 6.5
c-10 0 -17.5 -2.66699 -22.5 -8s-9.16699 -15 -12.5 -29l-47 5c1.33301 32.667 9 58.167 23 76.5s31.667 27.5 53 27.5c12.667 0 24.834 -2.16699 36.501 -6.5s22.834 -9 33.501 -14s21.167 -9.5 31.5 -13.5s20.833 -6 31.5 -6c10 0 17.5 2.66699 22.5 8s9.16699 15 12.5 29
z" />
    <glyph glyph-name="itilde" unicode="&#x129;" horiz-adv-x="256" 
d="M180 0l-81 -0.00195312v428h-70v60c5.33301 0.666992 12.333 1.33398 21 2.00098l26.5 2c9 0.666992 17.667 1.16699 26 1.5s15.5 0.5 21.5 0.5c20.667 0 35.667 -4.66699 45 -14c7.33301 -7.33301 11 -20.666 11 -39.999v-440zM273 711.998
c-1.33301 -32.667 -9.00293 -58.167 -23.0029 -76.5s-31.667 -27.5 -53 -27.5c-13.333 0 -25.666 2 -36.999 6s-22.333 8.5 -33 13.5s-21.167 9.66699 -31.5 14s-20.833 6.5 -31.5 6.5c-10 0 -17.5 -2.66699 -22.5 -8s-9.16699 -15 -12.5 -29l-47 5
c1.33301 32.667 9 58.167 23 76.5s31.667 27.5 53 27.5c12.667 0 24.834 -2.16699 36.501 -6.5s22.834 -9 33.501 -14s21.167 -9.5 31.5 -13.5s20.833 -6 31.5 -6c10 0 17.5 2.66699 22.5 8s9.16699 15 12.5 29z" />
    <glyph glyph-name="Imacron" unicode="&#x12a;" horiz-adv-x="353" 
d="M133 618h-69v66h225v-66h-69v-552h69v-66h-225v66h69v552zM43 798v70h270v-70h-270z" />
    <glyph glyph-name="imacron" unicode="&#x12b;" horiz-adv-x="256" 
d="M180 0l-81 -0.00195312v428h-70v60c5.33301 0.666992 12.333 1.33398 21 2.00098l26.5 2c9 0.666992 17.667 1.16699 26 1.5s15.5 0.5 21.5 0.5c20.667 0 35.667 -4.66699 45 -14c7.33301 -7.33301 11 -20.666 11 -39.999v-440zM-8 617.998v70h270v-70h-270z" />
    <glyph glyph-name="Ibreve" unicode="&#x12c;" horiz-adv-x="353" 
d="M133 618h-69v66h225v-66h-69v-552h69v-66h-225v66h69v552zM178 755c-24 0 -44.502 3.66699 -61.502 11s-30.667 17.333 -41 30s-18.166 27.334 -23.499 44.001s-8.66602 34.667 -9.99902 54l52 6c4 -27.333 12.667 -47.5 26 -60.5s32.666 -19.5 57.999 -19.5
s44.666 6.5 57.999 19.5s22 33.167 26 60.5l52 -6c-1.33301 -19.333 -4.66602 -37.333 -9.99902 -54s-13.166 -31.334 -23.499 -44.001s-24 -22.667 -41 -30s-37.5 -11 -61.5 -11z" />
    <glyph glyph-name="ibreve" unicode="&#x12d;" horiz-adv-x="256" 
d="M180 0l-81 -0.00195312v428h-70v60c5.33301 0.666992 12.333 1.33398 21 2.00098l26.5 2c9 0.666992 17.667 1.16699 26 1.5s15.5 0.5 21.5 0.5c20.667 0 35.667 -4.66699 45 -14c7.33301 -7.33301 11 -20.666 11 -39.999v-440zM129 584.998
c-24 0 -44.502 3.66699 -61.502 11s-30.667 17.333 -41 30s-18.166 27.334 -23.499 44.001s-8.66602 34.667 -9.99902 54l52 6c4 -27.333 12.667 -47.5 26 -60.5s32.666 -19.5 57.999 -19.5s44.666 6.5 57.999 19.5s22 33.167 26 60.5l52 -6
c-1.33301 -19.333 -4.66602 -37.333 -9.99902 -54s-13.166 -31.334 -23.499 -44.001s-24 -22.667 -41 -30s-37.5 -11 -61.5 -11z" />
    <glyph glyph-name="Iogonek" unicode="&#x12e;" horiz-adv-x="353" 
d="M97 -121c0 22 5.16504 43.335 15.498 64.002s23.833 39.667 40.5 57h-89v66h69v552h-69v66h225v-66h-69v-552h69v-66h-82c-13.333 -18.667 -23.666 -37.834 -30.999 -57.501s-11 -38.5 -11 -56.5c0 -19.333 5.83301 -34.5 17.5 -45.5s33.5 -16.5 65.5 -16.5h41v-46
c-11.333 -3.33301 -23.666 -5.83301 -36.999 -7.5s-26 -2.5 -38 -2.5c-36 0 -64.5 9.66699 -85.5 29s-31.5 46.666 -31.5 81.999z" />
    <glyph glyph-name="iogonek" unicode="&#x12f;" horiz-adv-x="256" 
d="M32 -121c0 24 6.33008 47.4971 18.9971 70.4971s28.667 43.167 48 60.5v418h-70v60c5.33301 0.666992 12.333 1.33398 21 2.00098l26.5 2c9 0.666992 17.667 1.16699 26 1.5s15.5 0.5 21.5 0.5c20.667 0 35.667 -4.66699 45 -14c7.33301 -7.33301 11 -20.666 11 -39.999
v-440h-24c-5.33301 0 -9.66602 -1 -12.999 -3s-7.66602 -7.33301 -12.999 -16c-10 -15.333 -17.5 -31.166 -22.5 -47.499s-7.5 -32.166 -7.5 -47.499c0 -19.333 5.83301 -34.5 17.5 -45.5s33.5 -16.5 65.5 -16.5h41v-46c-11.333 -3.33301 -23.666 -5.83301 -36.999 -7.5
s-26 -2.5 -38 -2.5c-36 0 -64.5 9.66699 -85.5 29s-31.5 46.666 -31.5 81.999zM131.997 590.997c-15.333 0 -27.333 4 -36 12s-13 21.667 -13 41v3c0 19.333 4.33301 33 13 41s20.667 12 36 12h6c15.333 0 27.333 -4 36 -12s13 -21.667 13 -41v-3
c0 -19.333 -4.33301 -33 -13 -41s-20.667 -12 -36 -12h-6z" />
    <glyph glyph-name="Idotaccent" unicode="&#x130;" horiz-adv-x="353" 
d="M133 618h-69v66h225v-66h-69v-552h69v-66h-225v66h69v552zM175 777c-15.333 0 -27.833 4.16699 -37.5 12.5s-14.5 22.833 -14.5 43.5v2c0 20.667 4.83301 35.167 14.5 43.5s22.167 12.5 37.5 12.5h6c15.333 0 27.833 -4.16699 37.5 -12.5s14.5 -22.833 14.5 -43.5v-2
c0 -20.667 -4.83301 -35.167 -14.5 -43.5s-22.167 -12.5 -37.5 -12.5h-6z" />
    <glyph glyph-name="dotlessi" unicode="&#x131;" horiz-adv-x="256" 
d="M180 0l-81 -0.00195312v428h-70v60c5.33301 0.666992 12.333 1.33398 21 2.00098l26.5 2c9 0.666992 17.667 1.16699 26 1.5s15.5 0.5 21.5 0.5c20.667 0 35.667 -4.66699 45 -14c7.33301 -7.33301 11 -20.666 11 -39.999v-440z" />
    <glyph glyph-name="IJ" unicode="&#x132;" horiz-adv-x="802" 
d="M133 618h-69v66h225v-66h-69v-552h69v-66h-225v66h69v552zM490 58c25.333 0 46.167 1.83398 62.5 5.50098s29.833 10.167 40.5 19.5c17.333 16 26 45 26 87v448h-170v66h257v-506c0 -36 -4.16699 -66.5 -12.5 -91.5s-20.833 -45.167 -37.5 -60.5
c-28.667 -26.667 -71.667 -40 -129 -40c-18 0 -37.333 0.666992 -58 2s-40.667 3.66602 -60 6.99902v63h81z" />
    <glyph glyph-name="ij" unicode="&#x133;" horiz-adv-x="512" 
d="M132 591c-15.333 0 -27.333 4 -36 12s-13 21.667 -13 41v3c0 19.333 4.33301 33 13 41s20.667 12 36 12h6c15.333 0 27.333 -4 36 -12s13 -21.667 13 -41v-3c0 -19.333 -4.33301 -33 -13 -41s-20.667 -12 -36 -12h-6zM180 0l-81 -0.00195312v428h-70v60
c5.33301 0.666992 12.333 1.33398 21 2.00098l26.5 2c9 0.666992 17.667 1.16699 26 1.5s15.5 0.5 21.5 0.5c20.667 0 35.667 -4.66699 45 -14c7.33301 -7.33301 11 -20.666 11 -39.999v-440zM388 590.998c-15.333 0 -27.333 4 -36 12s-13 21.667 -13 41v3
c0 19.333 4.33301 33 13 41s20.667 12 36 12h6c15.333 0 27.333 -4 36 -12s13 -21.667 13 -41v-3c0 -19.333 -4.33301 -33 -13 -41s-20.667 -12 -36 -12h-6zM436 -64.002c0 -30 -2.5 -55.002 -7.5 -75.002s-13.167 -36.667 -24.5 -50c-22 -26.667 -56.667 -40 -104 -40
c-11.333 0 -23.833 0.666992 -37.5 2s-25.167 3 -34.5 5v61h41c18 0 32 1.33301 42 4s18.333 7.66699 25 15c12.667 13.333 19 40.333 19 81v489h-70v60c5.33301 0.666992 12.333 1.33398 21 2.00098l26.5 2c9 0.666992 17.667 1.16699 26 1.5s15.5 0.5 21.5 0.5
c20.667 0 35.667 -4.66699 45 -14c7.33301 -7.33301 11 -20.666 11 -39.999v-504z" />
    <glyph glyph-name="Jcircumflex" unicode="&#x134;" horiz-adv-x="449" 
d="M137 58c25.333 0 46.167 1.83398 62.5 5.50098s29.833 10.167 40.5 19.5c17.333 16 26 45 26 87v448h-170v66h257v-506c0 -36 -4.16699 -66.5 -12.5 -91.5s-20.833 -45.167 -37.5 -60.5c-28.667 -26.667 -71.667 -40 -129 -40c-18 0 -37.333 0.666992 -58 2
s-40.667 3.66602 -60 6.99902v63h81zM242.001 923.001c12.667 0 22.332 -1.83301 28.999 -5.5s14.667 -11.5 24 -23.5l91 -111l-33 -28l-119 103l-119 -103l-33 28l91 111c9.33301 12 17.333 19.833 24 23.5s16.334 5.5 29.001 5.5h16z" />
    <glyph glyph-name="jcircumflex" unicode="&#x135;" horiz-adv-x="256" 
d="M180 -64c0 -30 -2.5 -55.002 -7.5 -75.002s-13.167 -36.667 -24.5 -50c-22 -26.667 -56.667 -40 -104 -40c-11.333 0 -23.833 0.666992 -37.5 2s-25.167 3 -34.5 5v61h41c18 0 32 1.33301 42 4s18.333 7.66699 25 15c12.667 13.333 19 40.333 19 81v489h-70v60
c5.33301 0.666992 12.333 1.33398 21 2.00098l26.5 2c9 0.666992 17.667 1.16699 26 1.5s15.5 0.5 21.5 0.5c20.667 0 35.667 -4.66699 45 -14c7.33301 -7.33301 11 -20.666 11 -39.999v-504zM134 752.998c12.667 0 22.332 -1.83301 28.999 -5.5s14.667 -11.5 24 -23.5
l91 -111l-33 -28l-119 103l-119 -103l-33 28l91 111c9.33301 12 17.333 19.833 24 23.5s16.334 5.5 29.001 5.5h16z" />
    <glyph glyph-name="Kcommaaccent" unicode="&#x136;" horiz-adv-x="665" 
d="M131 618l-69.001 0.000976562v66h225v-66h-69v-276l269 309c11.333 13.333 21.833 22.166 31.5 26.499s22.5 6.5 38.5 6.5h82v-66h-76l-197 -214l201 -338h80v-64c-15.333 -1.33301 -32.333 -2.5 -51 -3.5s-33 -1.5 -43 -1.5c-19.333 0 -33.166 3 -41.499 9
s-16.833 16.333 -25.5 31l-178 304l-90 -98v-177h69v-66h-225v66h69v552zM370.999 -287.999l0.000976562 114.997c-26.667 4.66699 -40 21.334 -40 50.001v2c0 16 4.5 28 13.5 36s20.5 12 34.5 12h1c18.667 0 32.167 -4.83301 40.5 -14.5s12.5 -26.5 12.5 -50.5
c0 -10 -0.5 -21.167 -1.5 -33.5s-2.5 -24.666 -4.5 -36.999s-4.16699 -24.166 -6.5 -35.499s-4.5 -21.333 -6.5 -30c-1.33301 -5.33301 -3.33301 -9 -6 -11s-7.33398 -3 -14.001 -3h-23z" />
    <glyph glyph-name="kcommaaccent" unicode="&#x137;" horiz-adv-x="534" 
d="M166 256l180.001 199.999c13.333 15.333 25 24.833 35 28.5s24 5.5 42 5.5h65v-62h-69l-117 -121l155 -246h62v-58c-4.66699 -0.666992 -10.5 -1.33398 -17.5 -2.00098l-22 -2c-7.66699 -0.666992 -14.667 -1.16699 -21 -1.5s-11.5 -0.5 -15.5 -0.5
c-15.333 0 -27 2 -35 6s-16 12.667 -24 26l-137 221l-81 -80v-170h-81v658h-68v60c5.33301 0.666992 12.166 1.33398 20.499 2.00098l25.5 2c8.66699 0.666992 17.167 1.16699 25.5 1.5s15.5 0.5 21.5 0.5c20.667 0 35.667 -4.66699 45 -14
c7.33301 -7.33301 11 -20.666 11 -39.999v-414zM284.001 -288.001l0.000976562 114.997c-26.667 4.66699 -40 21.334 -40 50.001v2c0 16 4.5 28 13.5 36s20.5 12 34.5 12h1c18.667 0 32.167 -4.83301 40.5 -14.5s12.5 -26.5 12.5 -50.5c0 -10 -0.5 -21.167 -1.5 -33.5
s-2.5 -24.666 -4.5 -36.999s-4.16699 -24.166 -6.5 -35.499s-4.5 -21.333 -6.5 -30c-1.33301 -5.33301 -3.33301 -9 -6 -11s-7.33398 -3 -14.001 -3h-23z" />
    <glyph glyph-name="kgreenlandic" unicode="&#x138;" horiz-adv-x="545" 
d="M177 256l180 200c13.333 15.333 25 24.833 35 28.5s24 5.5 42 5.5h65v-62h-69l-117 -121l155 -246h62v-58c-4.66699 -0.666992 -10.5 -1.33398 -17.5 -2.00098l-22 -2c-7.66699 -0.666992 -14.667 -1.16699 -21 -1.5s-11.5 -0.5 -15.5 -0.5c-15.333 0 -27 2 -35 6
s-16 12.667 -24 26l-137 221l-81 -80v-170h-81v428h-68v59l20.5 2.5c8.33301 1 16.833 1.83301 25.5 2.5s17.167 1.16699 25.5 1.5s15.5 0.5 21.5 0.5c20.667 0 35.667 -4.66699 45 -14c7.33301 -7.33301 11 -20.666 11 -39.999v-184z" />
    <glyph glyph-name="Lacute" unicode="&#x139;" horiz-adv-x="573" 
d="M468 66c0 15.333 1.5 32 4.5 50s6.83301 33 11.5 45h59v-148c0 -4.66699 -1.33301 -8 -4 -10s-9 -3 -19 -3h-458v66h69v552h-69v66h225v-66h-69v-552h250zM84 788l143 137c8 7.33301 14.833 11.333 20.5 12s11.5 -3.33301 17.5 -12l32 -44l-182 -132z" />
    <glyph glyph-name="lacute" unicode="&#x13a;" horiz-adv-x="242" 
d="M166 0l-80.999 -0.00195312v658h-68v60c5.33301 0.666992 12.166 1.33398 20.499 2.00098l25.5 2c8.66699 0.666992 17.167 1.16699 25.5 1.5s15.5 0.5 21.5 0.5c20.667 0 35.667 -4.66699 45 -14c7.33301 -7.33301 11 -20.666 11 -39.999v-670zM6.00098 804.998l143 137
c8 7.33301 14.833 11.333 20.5 12s11.5 -3.33301 17.5 -12l32 -44l-182 -132z" />
    <glyph glyph-name="Lcommaaccent" unicode="&#x13b;" horiz-adv-x="573" 
d="M468 66c0 15.333 1.5 32 4.5 50s6.83301 33 11.5 45h59v-148c0 -4.66699 -1.33301 -8 -4 -10s-9 -3 -19 -3h-458v66h69v552h-69v66h225v-66h-69v-552h250zM307 -288l0.000976562 114.997c-26.667 4.66699 -40 21.334 -40 50.001v2c0 16 4.5 28 13.5 36s20.5 12 34.5 12h1
c18.667 0 32.167 -4.83301 40.5 -14.5s12.5 -26.5 12.5 -50.5c0 -10 -0.5 -21.167 -1.5 -33.5s-2.5 -24.666 -4.5 -36.999s-4.16699 -24.166 -6.5 -35.499s-4.5 -21.333 -6.5 -30c-1.33301 -5.33301 -3.33301 -9 -6 -11s-7.33398 -3 -14.001 -3h-23z" />
    <glyph glyph-name="lcommaaccent" unicode="&#x13c;" horiz-adv-x="242" 
d="M166 0l-80.999 -0.00195312v658h-68v60c5.33301 0.666992 12.166 1.33398 20.499 2.00098l25.5 2c8.66699 0.666992 17.167 1.16699 25.5 1.5s15.5 0.5 21.5 0.5c20.667 0 35.667 -4.66699 45 -14c7.33301 -7.33301 11 -20.666 11 -39.999v-670zM114.001 -288.002
l0.000976562 114.997c-26.667 4.66699 -40 21.334 -40 50.001v2c0 16 4.5 28 13.5 36s20.5 12 34.5 12h1c18.667 0 32.167 -4.83301 40.5 -14.5s12.5 -26.5 12.5 -50.5c0 -10 -0.5 -21.167 -1.5 -33.5s-2.5 -24.666 -4.5 -36.999s-4.16699 -24.166 -6.5 -35.499
s-4.5 -21.333 -6.5 -30c-1.33301 -5.33301 -3.33301 -9 -6 -11s-7.33398 -3 -14.001 -3h-23z" />
    <glyph glyph-name="Lcaron" unicode="&#x13d;" horiz-adv-x="573" 
d="M468 66c0 15.333 1.5 32 4.5 50s6.83301 33 11.5 45h59v-148c0 -4.66699 -1.33301 -8 -4 -10s-9 -3 -19 -3h-458v66h69v552h-69v66h225v-66h-69v-552h250zM381 482l0.000976562 114.997c-26.667 4.66699 -40 21.334 -40 50.001v2c0 16 4.5 28 13.5 36s20.5 12 34.5 12h1
c18.667 0 32.167 -4.83301 40.5 -14.5s12.5 -26.5 12.5 -50.5c0 -10 -0.5 -21.167 -1.5 -33.5s-2.5 -24.666 -4.5 -36.999s-4.16699 -24.166 -6.5 -35.499s-4.5 -21.333 -6.5 -30c-1.33301 -5.33301 -3.33301 -9 -6 -11s-7.33398 -3 -14.001 -3h-23z" />
    <glyph glyph-name="lcaron" unicode="&#x13e;" horiz-adv-x="336" 
d="M166 0l-80.999 -0.00195312v658h-68v60c5.33301 0.666992 12.166 1.33398 20.499 2.00098l25.5 2c8.66699 0.666992 17.167 1.16699 25.5 1.5s15.5 0.5 21.5 0.5c20.667 0 35.667 -4.66699 45 -14c7.33301 -7.33301 11 -20.666 11 -39.999v-670zM254.001 481.998
l0.000976562 114.997c-26.667 4.66699 -40 21.334 -40 50.001v2c0 16 4.5 28 13.5 36s20.5 12 34.5 12h1c18.667 0 32.167 -4.83301 40.5 -14.5s12.5 -26.5 12.5 -50.5c0 -10 -0.5 -21.167 -1.5 -33.5s-2.5 -24.666 -4.5 -36.999s-4.16699 -24.166 -6.5 -35.499
s-4.5 -21.333 -6.5 -30c-1.33301 -5.33301 -3.33301 -9 -6 -11s-7.33398 -3 -14.001 -3h-23z" />
    <glyph glyph-name="Ldot" unicode="&#x13f;" horiz-adv-x="573" 
d="M468 66c0 15.333 1.5 32 4.5 50s6.83301 33 11.5 45h59v-148c0 -4.66699 -1.33301 -8 -4 -10s-9 -3 -19 -3h-458v66h69v552h-69v66h225v-66h-69v-552h250zM410 294c-15.333 0 -27.833 4.16699 -37.5 12.5s-14.5 22.833 -14.5 43.5v2c0 20.667 4.83301 35.167 14.5 43.5
s22.167 12.5 37.5 12.5h6c15.333 0 27.833 -4.16699 37.5 -12.5s14.5 -22.833 14.5 -43.5v-2c0 -20.667 -4.83301 -35.167 -14.5 -43.5s-22.167 -12.5 -37.5 -12.5h-6z" />
    <glyph glyph-name="ldot" unicode="&#x140;" horiz-adv-x="357" 
d="M166 0l-80.999 -0.00195312v658h-68v60c5.33301 0.666992 12.166 1.33398 20.499 2.00098l25.5 2c8.66699 0.666992 17.167 1.16699 25.5 1.5s15.5 0.5 21.5 0.5c20.667 0 35.667 -4.66699 45 -14c7.33301 -7.33301 11 -20.666 11 -39.999v-670zM291.001 294.998
c-15.333 0 -27.833 4.16699 -37.5 12.5s-14.5 22.833 -14.5 43.5v2c0 20.667 4.83301 35.167 14.5 43.5s22.167 12.5 37.5 12.5h6c15.333 0 27.833 -4.16699 37.5 -12.5s14.5 -22.833 14.5 -43.5v-2c0 -20.667 -4.83301 -35.167 -14.5 -43.5s-22.167 -12.5 -37.5 -12.5h-6z
" />
    <glyph glyph-name="Lslash" unicode="&#x141;" horiz-adv-x="573" 
d="M468 66c0 15.333 1.5 32 4.5 50s6.83301 33 11.5 45h59v-148c0 -4.66699 -1.33301 -8 -4 -10s-9 -3 -19 -3h-458v66h69v171l-65 -42l-32 54l97 64v305h-69v66h225v-66h-69v-248l142 94l32 -55l-174 -115v-228h250z" />
    <glyph glyph-name="lslash" unicode="&#x142;" horiz-adv-x="310" 
d="M191 431l87.001 57.998l32 -55l-119 -79v-355h-81v302l-58 -38l-32 54l90 59v281h-68v60c5.33301 0.666992 12.166 1.33398 20.499 2.00098l25.5 2c8.66699 0.666992 17.167 1.16699 25.5 1.5s15.5 0.5 21.5 0.5c20.667 0 35.667 -4.66699 45 -14
c7.33301 -7.33301 11 -20.666 11 -39.999v-239z" />
    <glyph glyph-name="Nacute" unicode="&#x143;" horiz-adv-x="763" 
d="M154 684c15.333 0 26.5 -1.33301 33.5 -4s14.833 -10 23.5 -22l360 -510v470h-69v66h213v-66h-69v-618h-64l-376 537v-471h69v-66h-213v66h69v552h-69v66h92v0zM295 788l143 137c8 7.33301 14.833 11.333 20.5 12s11.5 -3.33301 17.5 -12l32 -44l-182 -132z" />
    <glyph glyph-name="nacute" unicode="&#x144;" horiz-adv-x="587" 
d="M561 61l-0.000976562 -59.999c-5.33301 -0.666992 -12 -1.33398 -20 -2.00098l-24.5 -2c-8.33301 -0.666992 -16.5 -1.16699 -24.5 -1.5s-15 -0.5 -21 -0.5c-20.667 0 -35.667 4.66699 -45 14c-7.33301 7.33301 -11 20.666 -11 39.999v276
c0 20.667 -1.66699 37.5 -5 50.5s-9 23.5 -17 31.5s-18.833 13.667 -32.5 17s-29.834 5 -48.501 5s-39.5 -1.66699 -62.5 -5s-47.167 -8 -72.5 -14v-410h-81v428h-68v59c17.333 2 34 3.66699 50 5s30.667 2 44 2c16.667 0 29 -2.33301 37 -7s13.667 -12.667 17 -24
c24.667 12 50.834 21.833 78.501 29.5s55.5 11.5 83.5 11.5s52.333 -3.83301 73 -11.5s37.334 -18.167 50.001 -31.5s21.667 -29.166 27 -47.499s8 -41.5 8 -69.5v-283h65zM214.999 618.001l143 137c8 7.33301 14.833 11.333 20.5 12s11.5 -3.33301 17.5 -12l32 -44
l-182 -132z" />
    <glyph glyph-name="Ncommaaccent" unicode="&#x145;" horiz-adv-x="763" 
d="M154 684c15.333 0 26.5 -1.33301 33.5 -4s14.833 -10 23.5 -22l360 -510v470h-69v66h213v-66h-69v-618h-64l-376 537v-471h69v-66h-213v66h69v552h-69v66h92v0zM380 -288l0.000976562 114.997c-26.667 4.66699 -40 21.334 -40 50.001v2c0 16 4.5 28 13.5 36
s20.5 12 34.5 12h1c18.667 0 32.167 -4.83301 40.5 -14.5s12.5 -26.5 12.5 -50.5c0 -10 -0.5 -21.167 -1.5 -33.5s-2.5 -24.666 -4.5 -36.999s-4.16699 -24.166 -6.5 -35.499s-4.5 -21.333 -6.5 -30c-1.33301 -5.33301 -3.33301 -9 -6 -11s-7.33398 -3 -14.001 -3h-23z" />
    <glyph glyph-name="ncommaaccent" unicode="&#x146;" horiz-adv-x="587" 
d="M561 61l-0.000976562 -59.999c-5.33301 -0.666992 -12 -1.33398 -20 -2.00098l-24.5 -2c-8.33301 -0.666992 -16.5 -1.16699 -24.5 -1.5s-15 -0.5 -21 -0.5c-20.667 0 -35.667 4.66699 -45 14c-7.33301 7.33301 -11 20.666 -11 39.999v276
c0 20.667 -1.66699 37.5 -5 50.5s-9 23.5 -17 31.5s-18.833 13.667 -32.5 17s-29.834 5 -48.501 5s-39.5 -1.66699 -62.5 -5s-47.167 -8 -72.5 -14v-410h-81v428h-68v59c17.333 2 34 3.66699 50 5s30.667 2 44 2c16.667 0 29 -2.33301 37 -7s13.667 -12.667 17 -24
c24.667 12 50.834 21.833 78.501 29.5s55.5 11.5 83.5 11.5s52.333 -3.83301 73 -11.5s37.334 -18.167 50.001 -31.5s21.667 -29.166 27 -47.499s8 -41.5 8 -69.5v-283h65zM294.999 -287.999l0.000976562 114.997c-26.667 4.66699 -40 21.334 -40 50.001v2
c0 16 4.5 28 13.5 36s20.5 12 34.5 12h1c18.667 0 32.167 -4.83301 40.5 -14.5s12.5 -26.5 12.5 -50.5c0 -10 -0.5 -21.167 -1.5 -33.5s-2.5 -24.666 -4.5 -36.999s-4.16699 -24.166 -6.5 -35.499s-4.5 -21.333 -6.5 -30c-1.33301 -5.33301 -3.33301 -9 -6 -11
s-7.33398 -3 -14.001 -3h-23z" />
    <glyph glyph-name="Ncaron" unicode="&#x147;" horiz-adv-x="763" 
d="M154 684c15.333 0 26.5 -1.33301 33.5 -4s14.833 -10 23.5 -22l360 -510v470h-69v66h213v-66h-69v-618h-64l-376 537v-471h69v-66h-213v66h69v552h-69v66h92v0zM373 759c-12.667 0 -22.332 1.83301 -28.999 5.5s-14.667 11.5 -24 23.5l-91 111l33 28l119 -103l119 103
l33 -28l-91 -111c-9.33301 -12 -17.333 -19.833 -24 -23.5s-16.334 -5.5 -29.001 -5.5h-16z" />
    <glyph glyph-name="ncaron" unicode="&#x148;" horiz-adv-x="587" 
d="M561 61l-0.000976562 -59.999c-5.33301 -0.666992 -12 -1.33398 -20 -2.00098l-24.5 -2c-8.33301 -0.666992 -16.5 -1.16699 -24.5 -1.5s-15 -0.5 -21 -0.5c-20.667 0 -35.667 4.66699 -45 14c-7.33301 7.33301 -11 20.666 -11 39.999v276
c0 20.667 -1.66699 37.5 -5 50.5s-9 23.5 -17 31.5s-18.833 13.667 -32.5 17s-29.834 5 -48.501 5s-39.5 -1.66699 -62.5 -5s-47.167 -8 -72.5 -14v-410h-81v428h-68v59c17.333 2 34 3.66699 50 5s30.667 2 44 2c16.667 0 29 -2.33301 37 -7s13.667 -12.667 17 -24
c24.667 12 50.834 21.833 78.501 29.5s55.5 11.5 83.5 11.5s52.333 -3.83301 73 -11.5s37.334 -18.167 50.001 -31.5s21.667 -29.166 27 -47.499s8 -41.5 8 -69.5v-283h65zM309.999 589.001c-12.667 0 -22.332 1.83301 -28.999 5.5s-14.667 11.5 -24 23.5l-91 111l33 28
l119 -103l119 103l33 -28l-91 -111c-9.33301 -12 -17.333 -19.833 -24 -23.5s-16.334 -5.5 -29.001 -5.5h-16z" />
    <glyph glyph-name="napostrophe" unicode="&#x149;" horiz-adv-x="732" 
d="M706 61l-0.000976562 -59.999c-5.33301 -0.666992 -12 -1.33398 -20 -2.00098l-24.5 -2c-8.33301 -0.666992 -16.5 -1.16699 -24.5 -1.5s-15 -0.5 -21 -0.5c-20.667 0 -35.667 4.66699 -45 14c-7.33301 7.33301 -11 20.666 -11 39.999v276
c0 20.667 -1.66699 37.5 -5 50.5s-9 23.5 -17 31.5s-18.833 13.667 -32.5 17s-29.834 5 -48.501 5s-39.5 -1.66699 -62.5 -5s-47.167 -8 -72.5 -14v-410h-81v428h-68v59c17.333 2 34 3.66699 50 5s30.667 2 44 2c16.667 0 29 -2.33301 37 -7s13.667 -12.667 17 -24
c24.667 12 50.834 21.833 78.501 29.5s55.5 11.5 83.5 11.5s52.333 -3.83301 73 -11.5s37.334 -18.167 50.001 -31.5s21.667 -29.166 27 -47.499s8 -41.5 8 -69.5v-283h65zM67.999 458.001l0.00195312 124.996c-14.667 3.33301 -26.167 9.33301 -34.5 18
s-12.5 21.667 -12.5 39v3c0 20 4.66699 34 14 42s21.666 12 36.999 12h1c19.333 0 33.666 -5.16699 42.999 -15.5s14 -28.166 14 -53.499c0 -10.667 -0.666992 -23 -2 -37s-3 -28.167 -5 -42.5s-4.16699 -28.166 -6.5 -41.499s-4.83301 -24.666 -7.5 -33.999
c-1.33301 -5.33301 -3.33301 -9.16602 -6 -11.499s-7.66699 -3.5 -15 -3.5h-20z" />
    <glyph glyph-name="Eng" unicode="&#x14a;" horiz-adv-x="763" 
d="M546 -92c16.667 16 25 45 25 87v20l-365 522v-471h69v-66h-213v66h69v552h-69v66h92c15.333 0 26.5 -1.33301 33.5 -4s14.833 -10 23.5 -22l360 -510v470h-69v66h213v-66h-69v-623c0 -66.667 -15.667 -114.667 -47 -144c-13.333 -12.667 -29.5 -22 -48.5 -28
s-40.167 -9 -63.5 -9c-20.667 0 -40.5 1.16699 -59.5 3.5s-34.167 4.83301 -45.5 7.5v58h62c25.333 0 46 1.83301 62 5.5s29.333 10.167 40 19.5z" />
    <glyph glyph-name="eng" unicode="&#x14b;" horiz-adv-x="565" 
d="M496 -64c0 -30 -2.50098 -55.001 -7.50098 -75.001s-13.167 -36.667 -24.5 -50c-22 -26.667 -56.667 -40 -104 -40c-11.333 0 -23.833 0.666992 -37.5 2s-25.167 3 -34.5 5v61h41c18 0 32 1.33301 42 4s18.333 7.66699 25 15c12.667 13.333 19 40.333 19 81v386
c0 20.667 -1.66699 37.5 -5 50.5s-9 23.5 -17 31.5s-18.833 13.667 -32.5 17s-29.834 5 -48.501 5s-39.5 -1.66699 -62.5 -5s-47.167 -8 -72.5 -14v-410h-81v428h-68v59c17.333 2 34 3.66699 50 5s30.667 2 44 2c16.667 0 29 -2.33301 37 -7s13.667 -12.667 17 -24
c24.667 12 50.834 21.833 78.501 29.5s55.5 11.5 83.5 11.5s52.333 -3.83301 73 -11.5s37.334 -18.167 50.001 -31.5s21.667 -29.166 27 -47.499s8 -41.5 8 -69.5v-408z" />
    <glyph glyph-name="Omacron" unicode="&#x14c;" horiz-adv-x="662" 
d="M331 65c34.667 0 63.834 6.33301 87.501 19s42.834 31 57.501 55s25.167 53 31.5 87s9.5 72.333 9.5 115s-3.16699 81 -9.5 115s-16.833 63 -31.5 87s-33.834 42.5 -57.501 55.5s-52.834 19.5 -87.501 19.5s-63.834 -6.5 -87.501 -19.5s-42.834 -31.5 -57.501 -55.5
s-25.167 -53 -31.5 -87s-9.5 -72.333 -9.5 -115s3.16699 -81 9.5 -115s16.833 -63 31.5 -87s33.834 -42.333 57.501 -55s52.834 -19 87.501 -19zM331 -14c-88.667 0 -156.667 29.667 -204 89s-71 148 -71 266s23.667 206.833 71 266.5s115.333 89.5 204 89.5
s156.667 -29.833 204 -89.5s71 -148.5 71 -266.5s-23.667 -206.667 -71 -266s-115.333 -89 -204 -89zM196 798v70h270v-70h-270z" />
    <glyph glyph-name="omacron" unicode="&#x14d;" horiz-adv-x="534" 
d="M491 245c0 -80.667 -19 -144 -57 -190s-93.667 -69 -167 -69s-129 23 -167 69s-57 109.333 -57 190s19 144 57 190s93.667 69 167 69s129 -23 167 -69s57 -109.333 57 -190zM407 245c0 60.667 -10.667 107 -32 139s-57.333 48 -108 48s-86.667 -16 -108 -48
s-32 -78.333 -32 -139s10.667 -107 32 -139s57.333 -48 108 -48s86.667 16 108 48s32 78.333 32 139zM132 618v70h270v-70h-270z" />
    <glyph glyph-name="Obreve" unicode="&#x14e;" horiz-adv-x="662" 
d="M331 65c34.667 0 63.834 6.33301 87.501 19s42.834 31 57.501 55s25.167 53 31.5 87s9.5 72.333 9.5 115s-3.16699 81 -9.5 115s-16.833 63 -31.5 87s-33.834 42.5 -57.501 55.5s-52.834 19.5 -87.501 19.5s-63.834 -6.5 -87.501 -19.5s-42.834 -31.5 -57.501 -55.5
s-25.167 -53 -31.5 -87s-9.5 -72.333 -9.5 -115s3.16699 -81 9.5 -115s16.833 -63 31.5 -87s33.834 -42.333 57.501 -55s52.834 -19 87.501 -19zM331 -14c-88.667 0 -156.667 29.667 -204 89s-71 148 -71 266s23.667 206.833 71 266.5s115.333 89.5 204 89.5
s156.667 -29.833 204 -89.5s71 -148.5 71 -266.5s-23.667 -206.667 -71 -266s-115.333 -89 -204 -89zM331 755c-24 0 -44.502 3.66699 -61.502 11s-30.667 17.333 -41 30s-18.166 27.334 -23.499 44.001s-8.66602 34.667 -9.99902 54l52 6c4 -27.333 12.667 -47.5 26 -60.5
s32.666 -19.5 57.999 -19.5s44.666 6.5 57.999 19.5s22 33.167 26 60.5l52 -6c-1.33301 -19.333 -4.66602 -37.333 -9.99902 -54s-13.166 -31.334 -23.499 -44.001s-24 -22.667 -41 -30s-37.5 -11 -61.5 -11z" />
    <glyph glyph-name="obreve" unicode="&#x14f;" horiz-adv-x="534" 
d="M491 245c0 -80.667 -19 -144 -57 -190s-93.667 -69 -167 -69s-129 23 -167 69s-57 109.333 -57 190s19 144 57 190s93.667 69 167 69s129 -23 167 -69s57 -109.333 57 -190zM407 245c0 60.667 -10.667 107 -32 139s-57.333 48 -108 48s-86.667 -16 -108 -48
s-32 -78.333 -32 -139s10.667 -107 32 -139s57.333 -48 108 -48s86.667 16 108 48s32 78.333 32 139zM267 585c-24 0 -44.502 3.66699 -61.502 11s-30.667 17.333 -41 30s-18.166 27.334 -23.499 44.001s-8.66602 34.667 -9.99902 54l52 6c4 -27.333 12.667 -47.5 26 -60.5
s32.666 -19.5 57.999 -19.5s44.666 6.5 57.999 19.5s22 33.167 26 60.5l52 -6c-1.33301 -19.333 -4.66602 -37.333 -9.99902 -54s-13.166 -31.334 -23.499 -44.001s-24 -22.667 -41 -30s-37.5 -11 -61.5 -11z" />
    <glyph glyph-name="Ohungarumlaut" unicode="&#x150;" horiz-adv-x="662" 
d="M331 65c34.667 0 63.834 6.33301 87.501 19s42.834 31 57.501 55s25.167 53 31.5 87s9.5 72.333 9.5 115s-3.16699 81 -9.5 115s-16.833 63 -31.5 87s-33.834 42.5 -57.501 55.5s-52.834 19.5 -87.501 19.5s-63.834 -6.5 -87.501 -19.5s-42.834 -31.5 -57.501 -55.5
s-25.167 -53 -31.5 -87s-9.5 -72.333 -9.5 -115s3.16699 -81 9.5 -115s16.833 -63 31.5 -87s33.834 -42.333 57.501 -55s52.834 -19 87.501 -19zM331 -14c-88.667 0 -156.667 29.667 -204 89s-71 148 -71 266s23.667 206.833 71 266.5s115.333 89.5 204 89.5
s156.667 -29.833 204 -89.5s71 -148.5 71 -266.5s-23.667 -206.667 -71 -266s-115.333 -89 -204 -89zM152 799l110.002 162c5.33301 8 10.666 12.833 15.999 14.5s11.666 -0.833008 18.999 -7.5l40 -36l-147 -163zM325.002 799l110 162c5.33301 8 10.833 12.833 16.5 14.5
s12.167 -0.833008 19.5 -7.5l39 -36l-147 -163z" />
    <glyph glyph-name="ohungarumlaut" unicode="&#x151;" horiz-adv-x="534" 
d="M491 245c0 -80.667 -19 -144 -57 -190s-93.667 -69 -167 -69s-129 23 -167 69s-57 109.333 -57 190s19 144 57 190s93.667 69 167 69s129 -23 167 -69s57 -109.333 57 -190zM407 245c0 60.667 -10.667 107 -32 139s-57.333 48 -108 48s-86.667 -16 -108 -48
s-32 -78.333 -32 -139s10.667 -107 32 -139s57.333 -48 108 -48s86.667 16 108 48s32 78.333 32 139zM98 629l110.002 162c5.33301 8 10.666 12.833 15.999 14.5s11.666 -0.833008 18.999 -7.5l40 -36l-147 -163zM271.002 629l110 162c5.33301 8 10.833 12.833 16.5 14.5
s12.167 -0.833008 19.5 -7.5l39 -36l-147 -163z" />
    <glyph glyph-name="OE" unicode="&#x152;" horiz-adv-x="943" 
d="M468 68l-1 547.996h-64c-42.667 0 -80.834 -5 -114.501 -15s-61.167 -26.667 -82.5 -50s-37.5 -52.166 -48.5 -86.499s-16.5 -75.166 -16.5 -122.499s5.5 -88.166 16.5 -122.499s27.167 -63.166 48.5 -86.499s48.833 -40 82.5 -50s71.834 -15 114.501 -15h65z
M393 -0.00390625c-58.667 0 -109 7.49805 -151 22.498s-76.667 36.833 -104 65.5c-57.333 60.667 -86 145.334 -86 254.001s28.667 193.334 86 254.001c27.333 28.667 62 50.5 104 65.5s92.333 22.5 151 22.5h466c10 0 16.333 -1 19 -3s4 -5.33301 4 -10v-147h-59
c-4.66699 12 -8.5 26.833 -11.5 44.5s-4.5 34.167 -4.5 49.5h-253v-234h192c6.66699 0 11 -0.5 13 -1.5s3 -3.5 3 -7.5v-62h-208v-247h258c0 15.333 1.5 32 4.5 50s6.83301 33 11.5 45h59v-148c0 -4.66699 -1.33301 -8 -4 -10s-9 -3 -19 -3h-471z" />
    <glyph glyph-name="oe" unicode="&#x153;" horiz-adv-x="871" 
d="M492 220c1.33301 -26.667 4.83203 -49.835 10.499 -69.502s15.167 -36.167 28.5 -49.5c14 -15.333 32.667 -26.5 56 -33.5s55 -10.5 95 -10.5h124v-50c-21.333 -6 -46 -11 -74 -15s-54.667 -6 -80 -6c-42 0 -78 5.5 -108 16.5s-54.333 26.5 -73 46.5
c-6.66699 6.66699 -14 15.667 -22 27c-18.667 -29.333 -43.167 -51.666 -73.5 -66.999s-66.5 -23 -108.5 -23c-73.333 0 -129 23 -167 69s-57 109.333 -57 190s19 144 57 190s93.667 69 167 69c42 0 78.333 -7.83301 109 -23.5s55.334 -38.5 74.001 -68.5
c18 29.333 41.5 52 70.5 68s63.167 24 102.5 24c66 0 116.167 -21.667 150.5 -65s51.5 -103.666 51.5 -180.999v-29c0 -6 -3.66699 -9 -11 -9h-322zM406.999 244.999c0 60.667 -10.667 107 -32 139s-57.333 48 -108 48s-86.667 -16 -108 -48s-32 -78.333 -32 -139
s10.667 -107 32 -139s57.333 -48 108 -48s86.667 16 108 48s32 78.333 32 139zM747.999 283.999c-3.33301 48.667 -14.999 86.166 -34.999 112.499s-50.333 39.5 -91 39.5c-22 0 -40.833 -4 -56.5 -12s-28.834 -18.833 -39.501 -32.5s-18.667 -29.667 -24 -48
s-8.33301 -38.166 -9 -59.499h255z" />
    <glyph glyph-name="Racute" unicode="&#x154;" horiz-adv-x="656" 
d="M287 66v-66h-225v66h69v552h-69v66h277c46 0 82.833 -3.66699 110.5 -11s50.167 -19.333 67.5 -36s30.5 -37 39.5 -61s13.5 -53.333 13.5 -88c0 -112 -44.333 -179.667 -133 -203l113 -219h76v-64c-15.333 -1.33301 -30.5 -2.5 -45.5 -3.5s-28.167 -1.5 -39.5 -1.5
c-19.333 0 -34 3 -44 9s-18.667 16.333 -26 31l-120 240h-133v-211h69zM218 346l110.002 0.000976562c30.667 0 55.5 2.66699 74.5 8s34.167 13.666 45.5 24.999s19.666 26.5 24.999 45.5s8 40.5 8 64.5c0 22 -2.83301 41.5 -8.5 58.5s-14.167 30.833 -25.5 41.5
c-11.333 10 -25.833 17.333 -43.5 22s-40.834 7 -69.501 7h-116v-272zM251.002 788.001l143 137c8 7.33301 14.833 11.333 20.5 12s11.5 -3.33301 17.5 -12l32 -44l-182 -132z" />
    <glyph glyph-name="racute" unicode="&#x155;" horiz-adv-x="351" 
d="M177 0h-81v428h-68v59c17.333 2 34 3.66699 50 5s30.667 2 44 2c16.667 0 29.334 -2.5 38.001 -7.5s14 -15.5 16 -31.5c10 6 21.167 12 33.5 18s24.833 11.167 37.5 15.5s25.167 8 37.5 11s23.166 4.5 32.499 4.5c8 0 14 -1.5 18 -4.5s6 -8.5 6 -16.5v-61h-26
c-29.333 0 -54.333 -1 -75 -3s-41.667 -5.33301 -63 -10v-409zM109 618l143 137c8 7.33301 14.833 11.333 20.5 12s11.5 -3.33301 17.5 -12l32 -44l-182 -132z" />
    <glyph glyph-name="Rcommaaccent" unicode="&#x156;" horiz-adv-x="656" 
d="M287 66v-66h-225v66h69v552h-69v66h277c46 0 82.833 -3.66699 110.5 -11s50.167 -19.333 67.5 -36s30.5 -37 39.5 -61s13.5 -53.333 13.5 -88c0 -112 -44.333 -179.667 -133 -203l113 -219h76v-64c-15.333 -1.33301 -30.5 -2.5 -45.5 -3.5s-28.167 -1.5 -39.5 -1.5
c-19.333 0 -34 3 -44 9s-18.667 16.333 -26 31l-120 240h-133v-211h69zM218 346l110.002 0.000976562c30.667 0 55.5 2.66699 74.5 8s34.167 13.666 45.5 24.999s19.666 26.5 24.999 45.5s8 40.5 8 64.5c0 22 -2.83301 41.5 -8.5 58.5s-14.167 30.833 -25.5 41.5
c-11.333 10 -25.833 17.333 -43.5 22s-40.834 7 -69.501 7h-116v-272zM358.002 -287.999l0.000976562 114.997c-26.667 4.66699 -40 21.334 -40 50.001v2c0 16 4.5 28 13.5 36s20.5 12 34.5 12h1c18.667 0 32.167 -4.83301 40.5 -14.5s12.5 -26.5 12.5 -50.5
c0 -10 -0.5 -21.167 -1.5 -33.5s-2.5 -24.666 -4.5 -36.999s-4.16699 -24.166 -6.5 -35.499s-4.5 -21.333 -6.5 -30c-1.33301 -5.33301 -3.33301 -9 -6 -11s-7.33398 -3 -14.001 -3h-23z" />
    <glyph glyph-name="rcommaaccent" unicode="&#x157;" horiz-adv-x="351" 
d="M177 0h-81v428h-68v59c17.333 2 34 3.66699 50 5s30.667 2 44 2c16.667 0 29.334 -2.5 38.001 -7.5s14 -15.5 16 -31.5c10 6 21.167 12 33.5 18s24.833 11.167 37.5 15.5s25.167 8 37.5 11s23.166 4.5 32.499 4.5c8 0 14 -1.5 18 -4.5s6 -8.5 6 -16.5v-61h-26
c-29.333 0 -54.333 -1 -75 -3s-41.667 -5.33301 -63 -10v-409zM127 -288l0.000976562 114.997c-26.667 4.66699 -40 21.334 -40 50.001v2c0 16 4.5 28 13.5 36s20.5 12 34.5 12h1c18.667 0 32.167 -4.83301 40.5 -14.5s12.5 -26.5 12.5 -50.5c0 -10 -0.5 -21.167 -1.5 -33.5
s-2.5 -24.666 -4.5 -36.999s-4.16699 -24.166 -6.5 -35.499s-4.5 -21.333 -6.5 -30c-1.33301 -5.33301 -3.33301 -9 -6 -11s-7.33398 -3 -14.001 -3h-23z" />
    <glyph glyph-name="Rcaron" unicode="&#x158;" horiz-adv-x="656" 
d="M287 66v-66h-225v66h69v552h-69v66h277c46 0 82.833 -3.66699 110.5 -11s50.167 -19.333 67.5 -36s30.5 -37 39.5 -61s13.5 -53.333 13.5 -88c0 -112 -44.333 -179.667 -133 -203l113 -219h76v-64c-15.333 -1.33301 -30.5 -2.5 -45.5 -3.5s-28.167 -1.5 -39.5 -1.5
c-19.333 0 -34 3 -44 9s-18.667 16.333 -26 31l-120 240h-133v-211h69zM218 346l110.002 0.000976562c30.667 0 55.5 2.66699 74.5 8s34.167 13.666 45.5 24.999s19.666 26.5 24.999 45.5s8 40.5 8 64.5c0 22 -2.83301 41.5 -8.5 58.5s-14.167 30.833 -25.5 41.5
c-11.333 10 -25.833 17.333 -43.5 22s-40.834 7 -69.501 7h-116v-272zM330.002 759.001c-12.667 0 -22.332 1.83301 -28.999 5.5s-14.667 11.5 -24 23.5l-91 111l33 28l119 -103l119 103l33 -28l-91 -111c-9.33301 -12 -17.333 -19.833 -24 -23.5s-16.334 -5.5 -29.001 -5.5
h-16z" />
    <glyph glyph-name="rcaron" unicode="&#x159;" horiz-adv-x="351" 
d="M177 0h-81v428h-68v59c17.333 2 34 3.66699 50 5s30.667 2 44 2c16.667 0 29.334 -2.5 38.001 -7.5s14 -15.5 16 -31.5c10 6 21.167 12 33.5 18s24.833 11.167 37.5 15.5s25.167 8 37.5 11s23.166 4.5 32.499 4.5c8 0 14 -1.5 18 -4.5s6 -8.5 6 -16.5v-61h-26
c-29.333 0 -54.333 -1 -75 -3s-41.667 -5.33301 -63 -10v-409zM208 589c-12.667 0 -22.332 1.83301 -28.999 5.5s-14.667 11.5 -24 23.5l-91 111l33 28l119 -103l119 103l33 -28l-91 -111c-9.33301 -12 -17.333 -19.833 -24 -23.5s-16.334 -5.5 -29.001 -5.5h-16z" />
    <glyph glyph-name="Sacute" unicode="&#x15a;" horiz-adv-x="567" 
d="M155 68c12 -2.66699 28.001 -4.99609 48.001 -6.99609s40.667 -3 62 -3c60.667 0 104.334 12 131.001 36c22.667 20.667 34 49 34 85c0 15.333 -1.83301 29.166 -5.5 41.499s-9.83398 23.166 -18.501 32.499s-20.667 17.666 -36 24.999s-37 15.333 -65 24l-52 16
c-33.333 10 -60.666 20.833 -81.999 32.5s-38.333 23.5 -51 35.5c-17.333 16.667 -29.833 35.167 -37.5 55.5s-11.5 43.166 -11.5 68.499c0 28.667 4.5 54 13.5 76s22.167 41 39.5 57c21.333 20 46.833 34.5 76.5 43.5s65.5 13.5 107.5 13.5
c28.667 0 57.5 -2.16699 86.5 -6.5s52.167 -9.16602 69.5 -14.499c5.33301 -1.33301 9.33301 -3.33301 12 -6s4 -7.33398 4 -14.001v-119h-64c-1.33301 2.66699 -2.66602 7.16699 -3.99902 13.5s-2.66602 13.333 -3.99902 21s-2.5 15.5 -3.5 23.5s-1.5 15 -1.5 21
c-13.333 2 -29.833 3.66699 -49.5 5s-35.834 2 -48.501 2c-28 0 -52.333 -2.66699 -73 -8s-37.667 -14.666 -51 -27.999c-18 -18 -27 -41.667 -27 -71c0 -14.667 2 -28.167 6 -40.5s11.333 -23.833 22 -34.5c9.33301 -8.66699 21.5 -17.167 36.5 -25.5
s35.833 -16.5 62.5 -24.5l55 -17c34.667 -11.333 63.167 -22.833 85.5 -34.5s40.5 -25.834 54.5 -42.501c24.667 -28.667 37 -68.334 37 -119.001c0 -30 -4.5 -56.167 -13.5 -78.5s-21.833 -41.5 -38.5 -57.5c-41.333 -40 -106 -60 -194 -60c-35.333 0 -68.333 2 -99 6
s-55.334 8.66699 -74.001 14c-6 2 -10.167 4.33301 -12.5 7s-3.5 7.33398 -3.5 14.001v122h64c1.33301 -2.66699 2.66602 -7.16699 3.99902 -13.5s2.66602 -13.5 3.99902 -21.5s2.5 -16 3.5 -24s1.5 -15 1.5 -21zM198.001 788.004l143 137c8 7.33301 14.833 11.333 20.5 12
s11.5 -3.33301 17.5 -12l32 -44l-182 -132z" />
    <glyph glyph-name="sacute" unicode="&#x15b;" horiz-adv-x="473" 
d="M124 129c2 -6 4.33105 -15.9932 6.99805 -29.9932s4.66699 -26.333 6 -37c10.667 -3.33301 25.667 -6 45 -8s37 -3 53 -3c46 0 78.333 8 97 24c7.33301 6 12.666 13.667 15.999 23s5 19.333 5 30c0 22.667 -7.5 39.667 -22.5 51s-38.5 20.666 -70.5 27.999l-58 15
c-26 6.66699 -47.667 13.667 -65 21s-31.666 16.666 -42.999 27.999c-12 12 -20.833 25.667 -26.5 41s-8.5 31.666 -8.5 48.999c0 21.333 3.66699 40.666 11 57.999s18.333 32 33 44c17.333 15.333 38 26 62 32s51.333 9 82 9c20 0 43.167 -1.16699 69.5 -3.5
s48.833 -5.83301 67.5 -10.5c8 -2 13.167 -4.83301 15.5 -8.5s3.5 -8.5 3.5 -14.5v-97h-60c-2.66699 6 -5.16699 15.667 -7.5 29s-4.16602 25 -5.49902 35c-12 1.33301 -25.333 2.5 -40 3.5s-28.667 1.5 -42 1.5c-76.667 0 -115 -24 -115 -72
c0 -20.667 7.5 -36.334 22.5 -47.001s38.5 -20 70.5 -28l60 -15c28 -7.33301 50 -14.833 66 -22.5s29.667 -17.167 41 -28.5c23.333 -23.333 35 -54.333 35 -93c0 -44.667 -14 -79.334 -42 -104.001c-32.667 -28.667 -82.667 -43 -150 -43c-26 0 -53.167 1.66699 -81.5 5
s-52.5 7.66602 -72.5 12.999c-7.33301 2 -12.166 4.83301 -14.499 8.5s-3.5 8.5 -3.5 14.5v102h60zM139.998 618.007l143 137c8 7.33301 14.833 11.333 20.5 12s11.5 -3.33301 17.5 -12l32 -44l-182 -132z" />
    <glyph glyph-name="Scircumflex" unicode="&#x15c;" horiz-adv-x="567" 
d="M155 68c12 -2.66699 28.001 -4.99609 48.001 -6.99609s40.667 -3 62 -3c60.667 0 104.334 12 131.001 36c22.667 20.667 34 49 34 85c0 15.333 -1.83301 29.166 -5.5 41.499s-9.83398 23.166 -18.501 32.499s-20.667 17.666 -36 24.999s-37 15.333 -65 24l-52 16
c-33.333 10 -60.666 20.833 -81.999 32.5s-38.333 23.5 -51 35.5c-17.333 16.667 -29.833 35.167 -37.5 55.5s-11.5 43.166 -11.5 68.499c0 28.667 4.5 54 13.5 76s22.167 41 39.5 57c21.333 20 46.833 34.5 76.5 43.5s65.5 13.5 107.5 13.5
c28.667 0 57.5 -2.16699 86.5 -6.5s52.167 -9.16602 69.5 -14.499c5.33301 -1.33301 9.33301 -3.33301 12 -6s4 -7.33398 4 -14.001v-119h-64c-1.33301 2.66699 -2.66602 7.16699 -3.99902 13.5s-2.66602 13.333 -3.99902 21s-2.5 15.5 -3.5 23.5s-1.5 15 -1.5 21
c-13.333 2 -29.833 3.66699 -49.5 5s-35.834 2 -48.501 2c-28 0 -52.333 -2.66699 -73 -8s-37.667 -14.666 -51 -27.999c-18 -18 -27 -41.667 -27 -71c0 -14.667 2 -28.167 6 -40.5s11.333 -23.833 22 -34.5c9.33301 -8.66699 21.5 -17.167 36.5 -25.5
s35.833 -16.5 62.5 -24.5l55 -17c34.667 -11.333 63.167 -22.833 85.5 -34.5s40.5 -25.834 54.5 -42.501c24.667 -28.667 37 -68.334 37 -119.001c0 -30 -4.5 -56.167 -13.5 -78.5s-21.833 -41.5 -38.5 -57.5c-41.333 -40 -106 -60 -194 -60c-35.333 0 -68.333 2 -99 6
s-55.334 8.66699 -74.001 14c-6 2 -10.167 4.33301 -12.5 7s-3.5 7.33398 -3.5 14.001v122h64c1.33301 -2.66699 2.66602 -7.16699 3.99902 -13.5s2.66602 -13.5 3.99902 -21.5s2.5 -16 3.5 -24s1.5 -15 1.5 -21zM303.001 923.004c12.667 0 22.332 -1.83301 28.999 -5.5
s14.667 -11.5 24 -23.5l91 -111l-33 -28l-119 103l-119 -103l-33 28l91 111c9.33301 12 17.333 19.833 24 23.5s16.334 5.5 29.001 5.5h16z" />
    </font>
</defs>
</svg>
