<?xml version="1.0" encoding="utf-8"?>
<!-- Generator: Adobe Illustrator 16.0.0, SVG Export Plug-In . SVG Version: 6.00 Build 0)  -->
<!DOCTYPE svg PUBLIC "-//W3C//DTD SVG 1.1//EN" "http://www.w3.org/Graphics/SVG/1.1/DTD/svg11.dtd">
<svg version="1.1" id="Layer_1" xmlns="http://www.w3.org/2000/svg" xmlns:xlink="http://www.w3.org/1999/xlink" x="0px" y="0px"
	 width="326.17px" height="55.043px" viewBox="0 0 326.17 55.043" enable-background="new 0 0 326.17 55.043" xml:space="preserve">
<title>Don Balón</title>
<path fill="#FFFFFF" d="M282.907,13.438h14.43v5.582c1.762-2.182,3.929-3.914,6.163-4.94c2.305-1.091,4.878-1.67,7.791-1.67
	c2.37,0,4.539,0.451,6.504,1.156c1.896,0.835,3.522,1.926,4.877,3.401c1.084,1.412,2.035,3.08,2.507,5.069
	c0.475,1.925,0.746,5.133,0.746,9.625v19.573h-15.851v-19.51c0-2.887-0.408-4.939-1.22-5.967c-0.814-1.09-2.236-1.668-4.202-1.668
	c-1.965,0-3.454,0.643-4.471,1.926c-0.946,1.219-1.424,3.145-1.424,5.711v19.508h-15.858V13.438h0.001H282.907z"/>
<path fill="#FFFFFF" d="M228.177,0.024v50.108c-0.598-0.146-1.205-0.139-1.541-0.612c-0.383-0.503-0.479-1.128-0.525-2.585V25.951
	c0-2.889,0.035-5.071-0.645-6.547c-0.744-1.475-2.101-2.951-3.994-4.042c-1.561-0.962-3.729-1.861-6.506-2.438
	c-2.777-0.515-5.824-0.834-9.078-0.834c-0.338,0-0.609,0.063-0.947,0.063c-6.504,0.065-11.517,1.22-14.902,3.274
	c-3.659,2.116-5.783,5.254-5.783,9.488l15.811,0.073c0.135-1.283,0.168-2.246,0.98-2.888c0.813-0.514,2.488-0.893,3.908-0.893
	c0.137,0,0.26-0.005,0.394-0.005c1.963,0,3.454,0.319,4.336,0.833c0.883,0.449,1.141,1.33,1.141,2.355
	c0,1.734-1.817,2.907-5.883,3.549c-0.407,0.063-0.883,0.1-1.354,0.127c-1.49,0.064-2.711,0.193-3.521,0.322
	c-6.71,0.769-11.312,2.18-13.687,3.912c-1.229,0.906-2.226,2.04-2.912,3.417c0.103-1.014,0.153-2.065,0.153-3.159
	c0-6.096-1.625-11.039-4.741-14.695c-3.116-3.658-7.385-5.457-12.668-5.457c-1.692,0-3.387,0.323-5.014,0.836
	c-0.404,0.127-0.813,0.32-1.15,0.447c-1.897,0.771-3.591,2.119-5.149,3.787V0.024h-15.54v51.21h14.024v-4.558
	c1.693,1.99,3.657,3.532,5.826,4.493c0.609,0.32,1.284,0.515,1.963,0.706c1.627,0.514,3.389,0.706,5.285,0.706
	c5.08,0,9.349-1.86,12.465-5.52c1.539-1.807,2.695-3.895,3.475-6.271c0.076,3.72,1.645,6.707,3.957,8.71
	c2.438,1.987,5.962,3.079,10.501,3.079c2.911,0,5.622-0.385,7.925-1.153c0.068,0,0.137,0,0.137-0.065
	c2.236-0.834,4.402-1.987,6.438-3.723l1.015,3.594h31.776V0.024h-15.991H228.177z M165.94,39.234
	c-1.084,1.478-2.71,2.246-4.744,2.246c-2.032,0-3.657-0.769-4.808-2.31c-1.085-1.478-1.695-3.658-1.695-6.418
	c0-2.953,0.542-5.134,1.626-6.61c1.017-1.412,2.708-2.117,4.876-2.117c2.169,0,3.861,0.771,4.945,2.117
	c1.019,1.477,1.561,3.657,1.561,6.61C167.701,35.513,167.091,37.759,165.94,39.234L165.94,39.234z M211.036,36.281
	c0,2.504-0.678,4.431-1.896,5.584c-1.017,0.899-2.373,1.412-4.201,1.604c-0.476,0.063-1.017,0.063-1.56,0.063
	c-1.422,0-2.573-0.32-3.316-0.896c-0.747-0.578-1.152-1.412-1.152-2.439c0-1.668,1.965-3.017,5.893-3.978
	c0.068,0,0.148-0.04,0.148-0.04c2.438-0.641,4.458-1.244,5.95-1.822c0,0.258,0.134,0.515,0.134,0.771V36.281z"/>
<path fill="#FFFFFF" d="M130.499,22.158c-0.407-1.928-1.322-3.661-2.542-5.009c-1.22-1.54-2.949-2.697-4.883-3.468
	c-1.829-0.772-4.167-1.157-6.507-1.157c-2.849,0-5.491,0.579-7.729,1.639c-2.237,1.06-4.373,2.696-6.203,4.914v-5.493H88.191v12.859
	c-0.911-3.529-2.674-6.51-5.274-8.909c-3.965-3.469-9.464-5.289-16.381-5.289c0,0-0.094-0.01-0.195-0.01
	c-7.118,0-12.711,1.83-16.677,5.395c-2.629,2.427-4.358,5.406-5.229,8.962V0H28.876v17.534c-1.625-1.638-3.356-3.083-5.389-3.853
	c-0.304-0.099-0.608-0.192-1.018-0.289c-1.625-0.674-3.558-1.061-5.49-1.061c-4.983,0-9.051,1.928-12.306,5.686
	c-3.051,3.754-4.678,8.67-4.678,14.735c0,5.976,1.627,10.886,4.779,14.549c3.153,3.661,7.323,5.49,12.408,5.49
	c1.932,0,3.662-0.192,5.287-0.673c0.714-0.193,1.324-0.481,2.034-0.773c2.136-0.963,4.169-2.504,5.797-4.431v4.528h14.134V38.324
	c0.893,3.651,2.677,6.688,5.331,9.074c3.966,3.659,9.561,5.394,16.576,5.394h0.204c6.916,0,12.407-1.829,16.372-5.49
	c2.6-2.335,4.363-5.254,5.274-8.774v12.916h15.864V31.984c0-2.602,0.509-4.528,1.426-5.875c0.914-1.157,2.542-1.832,4.575-1.832
	c1.933,0,3.356,0.576,4.17,1.637c0.713,0.964,1.219,3.085,1.219,5.973v19.557h15.865V31.792c-0.001-4.431-0.304-7.708-0.814-9.634
	H130.499z M27.25,39.4c-1.119,1.543-2.748,2.313-4.782,2.313h-0.1c-1.932,0-3.558-0.771-4.679-2.313
	c-1.015-1.539-1.729-3.66-1.729-6.453c0-2.984,0.614-5.297,1.627-6.743c1.018-1.349,2.645-2.12,4.78-2.12
	c2.238,0,3.966,0.868,4.982,2.216c1.118,1.349,1.627,3.662,1.627,6.647C28.978,35.74,28.367,37.861,27.25,39.4z M71.324,39.98
	c-0.915,1.539-2.543,2.313-4.779,2.313h-0.204c-2.44,0-4.068-0.772-5.084-2.313c-0.915-1.447-1.424-4.047-1.424-7.514
	c0-3.468,0.509-5.973,1.527-7.515c0.913-1.446,2.541-2.216,4.981-2.216c0.102,0,0.223,0.01,0.223,0.01
	c2.236,0,3.846,0.857,4.862,2.302c1.015,1.54,1.524,3.951,1.524,7.418C72.95,35.838,72.441,38.438,71.324,39.98z"/>
<path fill="#FFFFFF" d="M239.356,30.531c0-13.537,11.443-24.772,25.068-24.772s24.271,11.235,24.271,24.772
	s-11.046,24.512-24.669,24.512C250.401,55.043,239.356,44.068,239.356,30.531L239.356,30.531z"/>
<path fill="#E60000" d="M251.837,12.1c-0.384,0.154-0.818,0.595-0.967,0.981l-1.992,5.219c-0.146,0.385-0.062,0.969,0.189,1.297
	l3.42,4.466c0.252,0.328,0.756,0.439,1.121,0.246l8.985-4.755c0.365-0.194,0.821-0.651,1.015-1.017l2.692-5.093
	c0.19-0.365,0.067-0.85-0.276-1.079l-4.621-3.425c-0.345-0.228-0.939-0.288-1.324-0.135l-8.235,3.295H251.837z"/>
<path fill="#FFB310" d="M269.597,13.61c-0.393-0.01-0.839,0.276-0.995,0.634l-2.548,5.258c-0.156,0.359-0.062,0.885,0.21,1.167
	l5.28,7.042c0.271,0.281,0.807,0.576,1.189,0.652l6.184,0.994c0.385,0.076,0.811-0.162,0.949-0.528l2.489-6.851
	c0.14-0.366,0.076-0.935-0.14-1.263l-4.331-6.327c-0.216-0.328-0.711-0.605-1.103-0.615L269.597,13.61L269.597,13.61z"/>
<path fill="#FFB310" d="M247.327,21.08c0.275-0.282,0.695-0.257,0.939,0.052l3.69,5.254c0.241,0.311,0.418,0.887,0.391,1.28
	l0.023,7.156c-0.027,0.393-0.447,1.111-0.72,1.396l-3.418,3.778c-0.271,0.285-0.735,0.305-1.03,0.046l-4.017-3.503
	c-0.293-0.26-0.771-0.852-0.879-1.502l-0.387-8.623c0.006-0.579,0.559-1.193,0.803-1.511L247.327,21.08L247.327,21.08z"/>
<path fill="#0671B0" d="M253.767,37.457c-0.365-0.137-0.863,0.003-1.105,0.308l-3.314,3.903c-0.244,0.306-0.347,0.861-0.232,1.234
	l2.496,5.707c0.115,0.373,0.511,0.791,0.875,0.93l7.397,2.951c0.365,0.139,0.907,0.045,1.208-0.207l4.037-3.409
	c0.297-0.253,0.472-0.771,0.385-1.15l-1.395-6.127c-0.086-0.381-0.455-0.805-0.822-0.94L253.767,37.457z"/>
<path fill="#E60000" d="M272.616,30.627c-0.4-0.037-0.91,0.209-1.131,0.546l-5.388,8.185c-0.221,0.336-0.34,0.937-0.267,1.33
	l1.138,6.064c0.074,0.396,0.463,0.708,0.864,0.693l8.854-0.301c0.401-0.014,0.905-0.305,1.118-0.646l4.501-7.199
	c0.214-0.341,0.246-0.919,0.073-1.28l-2.654-5.596c-0.174-0.365-0.643-0.689-1.043-0.727L272.616,30.627L272.616,30.627z"/>
<path d="M253.897,34.081c0.1,0.942,0.416,1.938,2.307,2.585c1.789,0.613,6.434,1.932,6.434,1.932s1.825,0.602,3.031-0.949
	c1.205-1.551,4.023-7.045,4.023-7.045s0.975-1.293-0.267-2.78c-1.239-1.487-2.37-3.217-4.119-5.284
	c-0.998-1.175-1.358-1.601-2.909-0.935c-2.326,1-5.869,2.771-5.869,2.771s-2.793,1.059-2.723,3.079L253.897,34.081L253.897,34.081z"
	/>
<path d="M283.696,22.758c-0.117,0.348-1.396,4.715-2.277,6.924c-0.102,0.193-0.34,0.426,0.513,2.303
	c0.868,1.918,1.764,4.24,2.237,5.381c0.457,1.103,3.074-1.608,3.77-2.071c1.378-0.919,2.404-7.601-0.202-10.575
	c-1.35-1.54-2.735-2.608-3.265-2.657C284.001,22.02,283.919,22.099,283.696,22.758L283.696,22.758z"/>
<path d="M264.257,6.293c-1.15,0.852-1.112,0.947-1.561,1.35c-0.291,0.26-0.088,0.442,0.547,0.885
	c0.854,0.597,3.275,2.48,3.828,2.883c0.771,0.561,1.084,0.771,3.058,0.826c2.896,0.082,4.388,0.082,5.536,0.124
	c1.156,0.042,1.588-0.001,1.142-1.394c-0.745-2.318-2.533-4.004-5.19-4.679C268.958,5.614,265.405,5.442,264.257,6.293z"/>
<path d="M248.577,48.922c2.004,0.586,1.988,0.203,2.031,0.113c0.082-0.168-2.442-5.36-2.578-5.684
	c-0.342-0.822-0.569-1.507-1.369-2.076c-2.034-1.453-3.434-2.613-4.441-3.58c-0.818-0.78-1.203-0.265-1.395,0.343
	c-0.546,1.733,0.361,4.729,1.974,6.838C244.464,47.053,246.033,48.176,248.577,48.922z"/>
<path fill="#0671B0" d="M240.308,36.445c0.59,0.933,1.047,0.512,1.123,0.472c0.144-0.073,0.065-0.743,0-1.185
	c-0.088-0.604-1.026-8.286-0.004-10.731c0.393-0.937-0.846-0.97-1.156-0.522c-1.058,1.53-1.541,3.626-1.455,6.003
	C238.904,32.941,239.007,34.398,240.308,36.445L240.308,36.445z"/>
<path fill="#FFB310" d="M260.267,54.541c1.098-0.125,0.776-1.062-0.234-1.144c-1.678-0.135-6.006-1.614-8.401-3.222
	c-1.089-0.729-1.19,1.119,0.188,2.021C253.319,53.182,257.282,54.883,260.267,54.541z"/>
<path fill="#0671B0" d="M249.978,10.314c-0.681,0.867-0.132,1.159-0.066,1.218c0.115,0.11,0.721-0.187,1.115-0.395
	c0.541-0.286,7.469-3.735,10.116-3.586c1.013,0.058,0.632-1.123,0.104-1.265c-1.793-0.485-4.627,0.101-6.842,0.976
	C252.119,8.166,251.478,8.406,249.978,10.314z"/>
<path fill="#0671B0" d="M279.546,11.077c-1.028-0.397-0.995,0.08-1.036,0.156c-0.077,0.14,0.159,1.409,0.375,1.707
	c0.358,0.496,3.704,4.59,5.62,7.729c0.529,0.866,1.699,0.856,1.761,0.314c0.289-2.586-0.882-4.297-2.281-6.221
	C282.538,12.772,282.626,12.265,279.546,11.077L279.546,11.077z"/>
<path fill="#0671B0" d="M286.946,39.611c0.066-0.893-0.896-0.723-0.979-0.699c-0.895,0.24-1.234,0.611-1.444,0.91
	c-0.356,0.498-3.084,4.812-5.446,7.629c-0.652,0.776-0.345,1.824,0.262,1.769c2.219-0.206,3.932-1.921,5.311-3.86
	C286.07,43.354,286.772,41.941,286.946,39.611z"/>
<path d="M263.427,52.376c-1.357,0.995-2.07,1.749,1.062,2.173c4.715,0.639,5.521,0.314,8.791-0.998
	c0.387-0.156,2.93-1.127,3.438-2.199c0.758-1.6,1.157-3.275-0.287-2.949c-4.378,0.451-6.86,0.057-8.347,0.473
	C266.885,49.213,264.082,51.895,263.427,52.376L263.427,52.376z"/>
<path d="M247.707,12.631c0.485-0.184,1.055-0.219,1.669-0.263c0,0,0.833,0.088,0.439,0.747c-0.314,0.522-1.316,2.239-1.756,3.776
	c-0.147,0.513-0.343,1.487-0.482,1.933c-0.309,0.965-2.821,2.066-5.842,5.136c0,0-0.438,0.204-0.438-1.01
	C241.298,21.897,242.009,14.806,247.707,12.631z"/>
</svg>
