<?xml version="1.0" encoding="utf-8"?>
<!-- Generator: Adobe Illustrator 16.0.0, SVG Export Plug-In . SVG Version: 6.00 Build 0)  -->
<!DOCTYPE svg PUBLIC "-//W3C//DTD SVG 1.1//EN" "http://www.w3.org/Graphics/SVG/1.1/DTD/svg11.dtd">
<svg version="1.1" id="Capa_1" xmlns="http://www.w3.org/2000/svg" xmlns:xlink="http://www.w3.org/1999/xlink" x="0px" y="0px"
	 width="24.667px" height="24.425px" viewBox="0 0 24.667 24.425" enable-background="new 0 0 24.667 24.425" xml:space="preserve">
<g>
	<path fill="#808080" d="M1.667,23.425V10.263c0,0,0.076-4.838,5.971-4.838c4.662,0,8.787,0,8.787,0S23.667,6.292,23.667,0v19.305
		c0,0-0.754,4.12-5.203,4.12C14.013,23.425,1.667,23.425,1.667,23.425z"/>
	<g>
		<path fill="#FFFFFF" d="M13.482,15.714h-1.859v2.838c0,0.404-0.096,0.713-0.287,0.922c-0.191,0.211-0.433,0.314-0.725,0.314
			c-0.306,0-0.552-0.104-0.738-0.311s-0.28-0.512-0.28-0.912v-7.725c0-0.447,0.103-0.766,0.308-0.957s0.53-0.287,0.978-0.287h2.604
			c0.771,0,1.362,0.059,1.777,0.178c0.41,0.113,0.765,0.303,1.063,0.566c0.298,0.266,0.525,0.588,0.68,0.971
			s0.232,0.814,0.232,1.293c0,1.02-0.314,1.795-0.943,2.32C15.663,15.452,14.727,15.714,13.482,15.714z M12.99,11.12h-1.367v3.062
			h1.367c0.479,0,0.878-0.049,1.2-0.15c0.32-0.1,0.566-0.264,0.734-0.492c0.168-0.227,0.253-0.525,0.253-0.895
			c0-0.443-0.13-0.803-0.39-1.08C14.497,11.269,13.897,11.12,12.99,11.12z"/>
	</g>
</g>
</svg>
